<?xml version="1.0" encoding="UTF-8"?>
<svg id="_レイヤー_2" data-name="レイヤー 2" xmlns="http://www.w3.org/2000/svg" viewBox="0 0 254 198.75">
  <defs>
    <style>
      .cls-1 {
        fill: #333;
      }

      .cls-2 {
        fill: #212121;
      }

      .cls-3 {
        fill: #444;
      }
    </style>
  </defs>
  <g id="_レイヤー_1-2" data-name="レイヤー 1">
    <g>
      <g>
        <path class="cls-3" d="M5,130.68c-.07,30.9,10.34,45.94,15.47,51.47h0c.05,.39,.08,.6,.08,.6l7.75-25.13,2.17-6.97s-.02-.04-.02-.06c-.77-2.94-3.4-13.45-3.76-20.09-.03-.49-.04-.95-.04-1.39,0-1.38,1.12-2.5,2.5-2.5s2.5,1.12,2.5,2.5c0,6.25,3.33,19.07,3.78,20.76,0,.01,0,.02,.01,.03l5.35,13.02,26.72-31.28c3.92-4.58,7.74-9.36,11.35-14.21,14.02-18.86,16.04-21.56,16.04-21.56,.57-.75,1.51-1.12,2.45-.95,.93,.17,1.69,.85,1.96,1.76,.03,.12,3.92,12.76,29.95,49.34,13.46,18.92,39.42,37.83,49.63,42.95-.99-7.34-3-17.77-3.03-17.89-.2-1.04,.27-2.09,1.18-2.62,.9-.54,2.05-.46,2.86,.21,14.2,11.67,23.6,17.96,32.17,23.22,.5-11.26,1.6-18.58,1.65-18.92,.14-.95,.82-1.73,1.74-2.02,.24-.07,.49-.11,.73-.11,.69,0,1.35,.29,1.83,.8,1.7,1.83,12.6,9.51,16.93,11.66,6.2-10.6,10.32-25.51,12.15-36.31,2.25-13.24,2.5-26.4,.74-39.1-4.26-30.71-17.94-56.66-39.58-75.07-21.39-18.2-49.07-27.82-80.04-27.82-34.61,0-65.83,12.05-87.92,33.92C17.28,61.71,5.07,93.44,5,130.68Z"/>
        <path class="cls-2" d="M20.61,182.31l7.69-24.69-7.75,25.13s-.03-.21-.08-.59c.05,.05,.09,.1,.14,.15Z"/>
        <path class="cls-2" d="M36.78,35.37C59.81,12.56,92.29,0,128.22,0c32.17,0,60.97,10.03,83.28,29.01,22.59,19.22,36.86,46.25,41.29,78.19,1.83,13.21,1.58,26.88-.76,40.63-2.01,11.86-6.72,28.56-13.89,39.84-.51,.81-1.44,1.25-2.4,1.14-3.13-.37-12.29-6.58-17.63-10.65-.43,3.97-.99,10.35-1.2,18.16-.02,.88-.52,1.69-1.3,2.12-.37,.21-.79,.31-1.2,.31-.45,0-.89-.12-1.29-.36-8.69-5.24-17.66-10.88-31.12-21.59,.89,5.03,2,11.73,2.33,15.74,.07,.77-.23,1.53-.79,2.05-.57,.52-1.35,.76-2.11,.63-8.26-1.38-40.85-24.66-56.25-46.3-18.47-25.97-25.99-40.07-28.93-46.49-2.23,3-6.26,8.4-13.38,17.98-3.68,4.94-7.56,9.81-11.56,14.48l-29.37,34.39c-.57,.66-1.44,.98-2.3,.85-.86-.14-1.59-.72-1.92-1.52l-4.33-10.54-9.18,29.48c-.23,.76-.81,1.36-1.56,1.62s-1.58,.15-2.23-.3C19.58,188.3-.09,174.34,0,130.67,.08,92.07,12.79,59.12,36.78,35.37ZM20.47,182.16c.05,.38,.08,.59,.08,.59l7.75-25.13,2.17-6.97s-.02-.04-.02-.06c-.77-2.94-3.4-13.45-3.76-20.09-.03-.49-.04-.95-.04-1.39,0-1.38,1.12-2.5,2.5-2.5s2.5,1.12,2.5,2.5c0,6.25,3.33,19.07,3.78,20.76,0,.01,0,.02,.01,.03l5.35,13.02,26.72-31.28c3.92-4.58,7.74-9.36,11.35-14.21,14.02-18.86,16.04-21.56,16.04-21.56,.57-.75,1.51-1.12,2.45-.95,.93,.17,1.69,.85,1.96,1.76,.03,.12,3.92,12.76,29.95,49.34,13.46,18.92,39.42,37.83,49.63,42.95-.99-7.34-3-17.77-3.03-17.89-.2-1.04,.27-2.09,1.18-2.62,.9-.54,2.05-.46,2.86,.21,14.2,11.67,23.6,17.96,32.17,23.22,.5-11.26,1.6-18.58,1.65-18.92,.14-.95,.82-1.73,1.74-2.02,.24-.07,.49-.11,.73-.11,.69,0,1.35,.29,1.83,.8,1.7,1.83,12.6,9.51,16.93,11.66,6.2-10.6,10.32-25.51,12.15-36.31,2.25-13.24,2.5-26.4,.74-39.1-4.26-30.71-17.94-56.66-39.58-75.07-21.39-18.2-49.07-27.82-80.04-27.82-34.61,0-65.83,12.05-87.92,33.92C17.28,61.71,5.07,93.44,5,130.68c-.07,30.9,10.34,45.94,15.47,51.47h0Z"/>
      </g>
      <path class="cls-1" d="M20.47,182.15h0c.05,.39,.08,.6,.08,.6l7.75-25.13,2.15-6.98v-.05c-.77-2.94-3.4-13.45-3.76-20.09-10.57,13.95-6.84,46.79-6.22,51.65Z"/>
    </g>
  </g>
</svg>