<?xml version="1.0" encoding="UTF-8"?>
<svg id="_レイヤー_2" data-name="レイヤー 2" xmlns="http://www.w3.org/2000/svg" viewBox="0 0 47.05 75.18">
  <defs>
    <style>
      .cls-1 {
        fill: #6a6;
      }

      .cls-2 {
        fill: #212121;
      }
    </style>
  </defs>
  <g id="_レイヤー_1-2" data-name="レイヤー 1">
    <g>
      <path class="cls-2" d="M46.86,1.55c-.38-.93-1.28-1.54-2.28-1.55h-.02C43.65,0,9.94,.39,.88,38.95c-3.15,13.42,3.13,33.63,3.4,34.48,.33,1.05,1.3,1.75,2.38,1.75,.1,0,.19-.01,.28-.02,1.19-.13,2.12-1.09,2.22-2.28,.02-.34,3.17-34.34,37.16-68.62,.71-.71,.92-1.78,.54-2.71ZM5.75,40.09C11.65,14.95,28.52,7.82,37.96,5.8,17.99,27.69,9.76,48.61,6.41,61.01c-1.22-6.51-2.12-14.71-.66-20.92Z"/>
      <path class="cls-1" d="M37.96,5.8C17.99,27.69,9.76,48.61,6.41,61.01c-1.22-6.51-2.12-14.71-.66-20.92C11.65,14.95,28.52,7.82,37.96,5.8Z"/>
    </g>
  </g>
</svg>