<?xml version="1.0" encoding="UTF-8"?>
<svg id="_レイヤー_2" data-name="レイヤー 2" xmlns="http://www.w3.org/2000/svg" viewBox="0 0 251.98 156.12">
  <defs>
    <style>
      .cls-1 {
        fill: #333;
      }

      .cls-2 {
        fill: #212121;
      }

      .cls-3 {
        fill: #444;
      }
    </style>
  </defs>
  <g id="_レイヤー_1-2" data-name="レイヤー 1">
    <g>
      <path class="cls-2" d="M232.27,54.08C208.74,21.23,167.72,0,127.77,0S47.96,19.8,23.51,51.68C1.65,80.18-5.26,114.95,4.03,149.58c.21,.76,.76,1.38,1.49,1.68,.73,.29,1.56,.22,2.23-.19,.08-.05,.86-.54,7.08-4.73-.03,3.63,.09,7.15,.1,7.37,.04,.88,.53,1.68,1.3,2.1,.38,.21,.79,.31,1.2,.31,.44,0,.88-.12,1.27-.35,1.31-.77,27.28-16.12,40.41-26.42-.65,3.56-.94,6.13-.96,6.3-.1,.81,.21,1.61,.81,2.15,.61,.54,1.43,.75,2.22,.57,.63-.14,62.59-14.53,104.92-53.68,2.49,3.62,4.68,7.14,6.8,10.56,4.16,6.67,8.08,12.97,13,17.89,.61,.61,1.49,.86,2.32,.67,.84-.19,1.52-.8,1.81-1.61,.9-2.58,1.54-5.65,1.97-8.19l33.23,33.68c.65,.66,1.6,.9,2.48,.65,.88-.26,1.55-.97,1.75-1.87,.99-4.53,1.64-8.41,2.08-11.49l10.74,18.95c.49,.86,1.44,1.34,2.41,1.25,.98-.09,1.81-.75,2.13-1.68,10.28-30.21,5.11-61.97-14.55-89.42Zm11.5,82.33l-11.73-20.68c-.55-.97-1.68-1.45-2.76-1.19-1.09,.26-1.87,1.21-1.92,2.32,0,.06-.24,5.38-1.86,13.98l-33.51-33.97c-.68-.69-1.71-.92-2.62-.6-.91,.33-1.56,1.16-1.65,2.12-.01,.05-.38,3.94-1.25,7.93-3.22-3.92-6.1-8.54-9.32-13.71-2.63-4.23-5.35-8.59-8.62-13.18-.42-.59-1.08-.97-1.8-1.03-.72-.07-1.44,.18-1.97,.68-35.44,34.03-86.61,49.61-100.87,53.45,.06-1.06,.2-2.44,.47-4.06,.26-1.66,.67-3.57,1.27-5.66,.09-.33,.19-.67,.3-1.01,3.12-10.02,9.09-18.62,17.73-25.56,1.08-.86,1.25-2.43,.39-3.51-.86-1.08-2.44-1.25-3.51-.39-1.03,.82-2.01,1.66-2.94,2.5-9.81,8.87-14.52,18.68-16.77,26.4-.09,.34-.19,.67-.28,1-7.4,5.59-13.61,10.08-17.12,12.15-8.83,5.89-18.47,11.79-23.59,14.88-.03-2.45-.01-5.44,.17-7.55,.09-.96-.39-1.88-1.22-2.37-.39-.23-.83-.34-1.27-.34-.49,0-.98,.14-1.4,.43-3.94,2.66-6.48,4.37-8.11,5.46-7.56-31.97-.71-63.87,19.47-90.18C51,24.05,89.43,5,127.77,5s77.82,20.41,100.43,51.99c17.51,24.45,22.95,52.44,15.57,79.42Z"/>
      <path class="cls-3" d="M243.77,136.41l-11.73-20.68c-.55-.97-1.68-1.45-2.76-1.19-1.09,.26-1.87,1.21-1.92,2.32,0,.06-.24,5.38-1.86,13.98l-33.51-33.97c-.68-.69-1.71-.92-2.62-.6-.91,.33-1.56,1.16-1.65,2.12-.01,.05-.38,3.94-1.25,7.93-3.22-3.92-6.1-8.54-9.32-13.71-2.63-4.23-5.35-8.59-8.62-13.18-.42-.59-1.08-.97-1.8-1.03-.72-.07-1.44,.18-1.97,.68-35.44,34.03-86.61,49.61-100.87,53.45,.06-1.06,.2-2.44,.47-4.06,.26-1.66,.67-3.57,1.27-5.66,.09-.33,.19-.67,.3-1.01,3.12-10.02,9.09-18.62,17.73-25.56,1.08-.86,1.25-2.43,.39-3.51-.86-1.08-2.44-1.25-3.51-.39-1.03,.82-2.01,1.66-2.94,2.5-14.95,5.57-24.31,17.66-34.17,39.55-8.83,5.89-18.47,11.79-23.59,14.88-.03-2.45-.01-5.44,.17-7.55,.09-.96-.39-1.88-1.22-2.37-.39-.23-.83-.34-1.27-.34-.49,0-.98,.14-1.4,.43-3.94,2.66-6.48,4.37-8.11,5.46-7.56-31.97-.71-63.87,19.47-90.18C51,24.05,89.43,5,127.77,5s77.82,20.41,100.43,51.99c17.51,24.45,22.95,52.44,15.57,79.42Z"/>
      <path class="cls-2" d="M64.36,128.47c.34-1.72,.74-3.59,1.23-5.46,.02-.07,.03-.14,.04-.2-.6,2.09-1.01,4-1.27,5.66Z"/>
      <path class="cls-1" d="M77.6,94.84c-9.81,8.87-14.52,18.68-16.77,26.4-.09,.34-.19,.67-.28,1-7.4,5.59-13.61,10.08-17.12,12.15,9.86-21.89,19.22-33.98,34.17-39.55Z"/>
    </g>
  </g>
</svg>