<?xml version="1.0" encoding="UTF-8"?>
<svg id="_レイヤー_2" data-name="レイヤー 2" xmlns="http://www.w3.org/2000/svg" viewBox="0 0 27.07 7.08">
  <defs>
    <style>
      .cls-1 {
        fill: #212121;
      }
    </style>
  </defs>
  <g id="_レイヤー_1-2" data-name="レイヤー 1">
    <path class="cls-1" d="M26.13,.12c-.77-.31-1.64,.06-1.95,.82-.05,.13-1.34,3.15-4.36,3.15-3.27,0-5.02-2.11-5.11-2.22,0,0-.01-.01-.02-.02-.03-.04-.07-.08-.11-.12-.03-.03-.07-.07-.1-.1,0,0-.01-.02-.02-.02-.03-.02-.07-.04-.1-.06-.04-.03-.08-.06-.13-.08-.05-.02-.09-.04-.14-.06-.04-.02-.08-.03-.13-.05-.05-.02-.1-.02-.16-.03-.04,0-.08-.02-.13-.02-.05,0-.1,0-.16,0-.04,0-.09,0-.13,0-.05,0-.1,.01-.15,.02-.05,0-.09,.02-.14,.03-.05,.01-.09,.03-.14,.05-.04,.02-.09,.03-.13,.06-.05,.02-.09,.06-.14,.09-.03,.02-.06,.03-.09,.06,0,0-.02,.02-.02,.02-.04,.03-.07,.07-.11,.11-.04,.04-.07,.07-.1,.11,0,0-.02,.02-.02,.02-.02,.02-1.81,2.21-5.1,2.21C4.23,4.08,2.94,1.06,2.89,.94,2.59,.17,1.71-.2,.94,.11,.17,.42-.2,1.29,.11,2.06c.08,.21,2.07,5.02,7.14,5.02,2.97,0,5.08-1.24,6.29-2.21,1.21,.98,3.32,2.21,6.29,2.21,5.07,0,7.06-4.82,7.14-5.02,.31-.77-.06-1.63-.83-1.94Z"/>
  </g>
</svg>