<?xml version="1.0" encoding="UTF-8"?>
<svg id="_レイヤー_2" data-name="レイヤー 2" xmlns="http://www.w3.org/2000/svg" viewBox="0 0 246.63 142.93">
  <defs>
    <style>
      .cls-1 {
        fill: #212121;
      }

      .cls-2 {
        fill: #444;
      }
    </style>
  </defs>
  <g id="_レイヤー_1-2" data-name="レイヤー 1">
    <g>
      <path class="cls-2" d="M238.16,128.44l-27.14-40.74c-.6-.9-1.71-1.31-2.75-1.02-1.05,.29-1.78,1.22-1.83,2.3,0,.06-.25,5.46-1.91,14.19l-30.62-28.66c-.69-.65-1.7-.85-2.59-.51-.89,.34-1.51,1.15-1.6,2.1,0,.06-.4,4.1-1.31,8.17l-17.23-17.38c-.73-.73-1.83-.94-2.78-.53l-41.38,18.06,4.56-12.07c.37-.98,.09-2.09-.71-2.78-.8-.68-1.94-.79-2.86-.28l-44.58,25.13,3.16-9.45c.37-1.11-.07-2.32-1.06-2.93-1-.61-2.28-.45-3.09,.39L26.93,118.69l-1.74-5.36c-.29-.9-1.07-1.56-2.01-1.7-.95-.14-1.87,.26-2.42,1.04-6.55,9.42-10.74,16.31-13.24,20.73C-.56,95.54,12.36,68.21,25.06,51.65,47.13,22.88,85.47,5,125.13,5s78.49,18.62,99.95,48.59c15.91,22.21,20.48,48.61,13.08,74.85Z"/>
      <path class="cls-1" d="M229.14,50.67C206.76,19.42,166.91,0,125.13,0S44.09,18.63,21.09,48.61C7.01,66.98-7.35,97.93,4.23,141.08c.28,1.02,1.16,1.76,2.22,1.85h.2c.98,0,1.87-.57,2.28-1.47,.03-.08,3.36-7.37,13.08-21.76l1.45,4.46c.27,.84,.95,1.47,1.8,1.66,.85,.21,1.75-.06,2.36-.68l30.78-31.45-1.77,5.3c-.33,.98-.02,2.06,.78,2.72,.8,.66,1.92,.76,2.82,.25l44.24-24.93-4.22,11.17c-.36,.94-.12,2,.61,2.7,.73,.69,1.8,.88,2.73,.48l45.24-19.75,19.06,19.22c.61,.61,1.48,.86,2.33,.67,.84-.19,1.52-.79,1.8-1.61,.94-2.66,1.59-5.84,2.02-8.43l30.34,28.4c.66,.61,1.6,.83,2.45,.56,.86-.26,1.51-.97,1.7-1.85,1.08-4.95,1.76-9.12,2.19-12.31l26.18,39.3c.53,.79,1.47,1.22,2.41,1.09,.94-.12,1.74-.77,2.04-1.67,10.01-29.42,5.67-59.36-12.21-84.33Zm-18.12,37.03c-.6-.9-1.71-1.31-2.75-1.02-1.05,.29-1.78,1.22-1.83,2.3,0,.06-.25,5.46-1.91,14.19l-30.62-28.66c-.69-.65-1.7-.85-2.59-.51-.89,.34-1.51,1.15-1.6,2.1,0,.06-.4,4.1-1.31,8.17l-17.23-17.38c-.73-.73-1.83-.94-2.78-.53l-41.38,18.06,4.56-12.07c.37-.98,.09-2.09-.71-2.78-.8-.68-1.94-.79-2.86-.28l-44.58,25.13,3.16-9.45c.37-1.11-.07-2.32-1.06-2.93-1-.61-2.28-.45-3.09,.39L26.93,118.69l-1.74-5.36c-.29-.9-1.07-1.56-2.01-1.7-.95-.14-1.87,.26-2.42,1.04-6.55,9.42-10.74,16.31-13.24,20.73C-.56,95.54,12.36,68.21,25.06,51.65,47.13,22.88,85.47,5,125.13,5s78.49,18.62,99.95,48.59c15.91,22.21,20.48,48.61,13.08,74.85l-27.14-40.74Z"/>
    </g>
  </g>
</svg>