<?xml version="1.0" encoding="UTF-8"?>
<svg id="_レイヤー_2" data-name="レイヤー 2" xmlns="http://www.w3.org/2000/svg" viewBox="0 0 45.29 15.09">
  <defs>
    <style>
      .cls-1 {
        fill: #ff97a4;
      }

      .cls-2 {
        fill: #212121;
      }
    </style>
  </defs>
  <g id="_レイヤー_1-2" data-name="レイヤー 1">
    <g>
      <path class="cls-2" d="M43.6,2.09c.17-.45,.12-.96-.16-1.38-.47-.69-1.4-.86-2.08-.4-.07,.04-6.47,4.28-19.51,4.28S2.43,.32,2.35,.27C1.67-.2,.74-.03,.27,.65-.2,1.33-.04,2.26,.64,2.73c.29,.2,7.14,4.86,21.21,4.86,1.72,0,3.34-.07,4.84-.19,.63,2.46,2.53,6.61,8.14,7.55,.55,.09,1.1,.14,1.63,.14,3.45,0,6.55-1.83,8.04-4.87,1.32-2.7,.96-5.69-.9-8.13Z"/>
      <path class="cls-1" d="M42.7,9.35c-1.1,2.25-3.87,4.25-7.54,3.63-4.36-.73-5.93-3.8-6.48-5.78,7.14-.84,11.56-2.83,13.39-3.82,1.35,1.82,1.61,3.97,.63,5.97Z"/>
    </g>
  </g>
</svg>