<?xml version="1.0" encoding="UTF-8"?>
<svg id="_レイヤー_2" data-name="レイヤー 2" xmlns="http://www.w3.org/2000/svg" viewBox="0 0 45.24 81.38">
  <defs>
    <style>
      .cls-1 {
        fill: #212121;
      }

      .cls-2 {
        fill: #444;
      }
    </style>
  </defs>
  <g id="_レイヤー_1-2" data-name="レイヤー 1">
    <g>
      <path class="cls-2" d="M29.23,76.05c-6.02-.67-14.3-2.69-19.42-8.52-4.56-5.19-5.88-12.68-3.93-22.26C9.97,25.15,24.39,14.2,34.12,8.95,21.1,25.82,15.7,41.35,18.03,55.24c1.66,9.83,6.87,16.66,11.2,20.81Z"/>
      <path class="cls-1" d="M44.86,1.17c-.59-.94-1.73-1.38-2.8-1.08C40.67,.49,7.92,10.18,.98,44.27c-2.29,11.2-.57,20.14,5.09,26.58,8.37,9.52,22.82,10.53,28.55,10.53,1.38,0,2.25-.06,2.41-.07,1.11-.08,2.03-.88,2.26-1.96,.24-1.08-.26-2.18-1.22-2.72-.13-.07-12.57-7.16-15.11-22.23-2.44-14.51,4.84-31.41,21.65-50.24,.74-.83,.84-2.05,.25-2.99ZM18.03,55.24c1.66,9.83,6.87,16.66,11.2,20.81-6.02-.67-14.3-2.69-19.42-8.52-4.56-5.19-5.88-12.68-3.93-22.26C9.97,25.15,24.39,14.2,34.12,8.95,21.1,25.82,15.7,41.35,18.03,55.24Z"/>
    </g>
  </g>
</svg>