<?xml version="1.0" encoding="UTF-8"?>
<svg id="_レイヤー_2" data-name="レイヤー 2" xmlns="http://www.w3.org/2000/svg" viewBox="0 0 33.83 149.5">
  <defs>
    <style>
      .cls-1 {
        fill: #212121;
      }

      .cls-2 {
        fill: #383838;
      }
    </style>
  </defs>
  <g id="_レイヤー_1-2" data-name="レイヤー 1">
    <g>
      <path class="cls-2" d="M28.12,140.66c-10.44-11.99-17.67-37.42-21.04-74.31C4.6,39.22,4.98,13.83,5.17,6.24l23.2-1.11c-.6,16.51-3.39,99.8-.25,135.53Z"/>
      <path class="cls-1" d="M33.47,2.59c.02-.69-.25-1.37-.74-1.87C32.23,.23,31.55-.02,30.85,0L2.62,1.36C1.33,1.42,.3,2.47,.25,3.76,.06,8.69-4.03,124.79,29.89,149.04c.43,.31,.94,.46,1.45,.46,.45,0,.9-.12,1.29-.36,.86-.52,1.32-1.49,1.18-2.48-4.57-32.66-.39-142.96-.34-144.07Zm-5.35,138.07c-10.44-11.99-17.67-37.42-21.04-74.31C4.6,39.22,4.98,13.83,5.17,6.24l23.2-1.11c-.6,16.51-3.39,99.8-.25,135.53Z"/>
    </g>
  </g>
</svg>