<?xml version="1.0" encoding="UTF-8"?>
<svg id="_レイヤー_2" data-name="レイヤー 2" xmlns="http://www.w3.org/2000/svg" viewBox="0 0 36.16 7.36">
  <defs>
    <style>
      .cls-1 {
        fill: #d39667;
      }
    </style>
  </defs>
  <g id="_レイヤー_1-2" data-name="レイヤー 1">
    <g>
      <path class="cls-1" d="M13.77,2.25c1.45,0,1.45-2.25,0-2.25s-1.45,2.25,0,2.25h0Z"/>
      <path class="cls-1" d="M1.09,4.49c1.45,0,1.45-2.25,0-2.25s-1.45,2.25,0,2.25h0Z"/>
      <path class="cls-1" d="M22.12,6.42c1.45,0,1.45-2.25,0-2.25s-1.45,2.25,0,2.25h0Z"/>
      <path class="cls-1" d="M35.07,6.42c1.45,0,1.45-2.25,0-2.25s-1.45,2.25,0,2.25h0Z"/>
      <path class="cls-1" d="M7.65,7.36c1.45,0,1.45-2.25,0-2.25s-1.45,2.25,0,2.25h0Z"/>
      <path class="cls-1" d="M28.27,2.25c1.45,0,1.45-2.25,0-2.25s-1.45,2.25,0,2.25h0Z"/>
    </g>
  </g>
</svg>