<?xml version="1.0" encoding="UTF-8"?>
<svg id="_レイヤー_2" data-name="レイヤー 2" xmlns="http://www.w3.org/2000/svg" viewBox="0 0 57.83 47.45">
  <defs>
    <style>
      .cls-1 {
        fill: #6a6;
      }

      .cls-2 {
        fill: #fff;
      }

      .cls-3 {
        fill: #212121;
      }
    </style>
  </defs>
  <g id="_レイヤー_1-2" data-name="レイヤー 1">
    <g>
      <path class="cls-3" d="M36.76,20.91c0-3.41,2.76-6.17,6.17-6.17s6.17,2.76,6.17,6.17-2.76,6.17-6.17,6.17-6.17-2.77-6.17-6.17Z"/>
      <path class="cls-3" d="M51.76,37.84c-3.44,3.44-7.37,6.85-15,6.85s-11.55-3.41-15-6.85l4.88-6.17c3.56,4.34,10.12,4.3,10.12,4.3,0,0,6.57,.04,10.12-4.3l4.88,6.17Z"/>
      <path class="cls-2" d="M49.1,20.91c0,3.4-2.76,6.17-6.17,6.17s-6.17-2.77-6.17-6.17,2.76-6.17,6.17-6.17,6.17,2.76,6.17,6.17Z"/>
      <path class="cls-3" d="M44.6,7.19l11.22-2.23c1.35-.27,2.23-1.59,1.96-2.94-.27-1.36-1.59-2.24-2.94-1.97L2.02,10.55C.66,10.82-.22,12.14,.05,13.49c.24,1.19,1.28,2.01,2.45,2.01,.16,0,.33-.01,.49-.04l19.13-3.8c-3.86,3.79-6.25,9.07-6.25,14.9,0,11.54,9.35,20.89,20.89,20.89s20.9-9.35,20.9-20.89c0-8.77-5.4-16.28-13.06-19.37Zm4.5,13.72c0,3.4-2.76,6.17-6.17,6.17s-6.17-2.77-6.17-6.17,2.76-6.17,6.17-6.17,6.17,2.76,6.17,6.17Zm-12.34,23.78c-7.36,0-11.55-3.41-15-6.85l4.88-6.17c3.56,4.34,10.12,4.3,10.12,4.3,0,0,6.57,.04,10.12-4.3l4.88,6.17c-3.44,3.44-7.37,6.85-15,6.85Z"/>
      <path class="cls-1" d="M51.76,37.84c-3.44,3.44-7.37,6.85-15,6.85s-11.55-3.41-15-6.85l4.88-6.17c3.56,4.34,10.12,4.3,10.12,4.3,0,0,6.57,.04,10.12-4.3l4.88,6.17Z"/>
    </g>
  </g>
</svg>