<?xml version="1.0" encoding="UTF-8"?>
<svg id="_レイヤー_2" data-name="レイヤー 2" xmlns="http://www.w3.org/2000/svg" viewBox="0 0 229.67 227.84">
  <defs>
    <style>
      .cls-1 {
        fill: #ffe2cc;
      }

      .cls-2 {
        fill: #212121;
      }
    </style>
  </defs>
  <g id="_レイヤー_1-2" data-name="レイヤー 1">
    <g>
      <path class="cls-2" d="M198.25,33.94C177.72,11.74,148.87,0,114.84,0S51.95,11.74,31.42,33.94C10.86,56.16,0,87.45,0,124.43c0,77.37,78.86,103.41,114.84,103.41s114.83-26.04,114.83-103.41c0-36.98-10.86-68.27-31.42-90.49ZM114.84,222.84c-16.59,0-44.51-5.82-68.61-22.2C27.42,187.86,5,164.26,5,124.43,5,51.88,48.11,5,114.84,5s109.83,46.88,109.83,119.43-75.43,98.41-109.83,98.41Z"/>
      <path class="cls-1" d="M224.67,124.43c0,73.63-75.43,98.41-109.83,98.41-16.59,0-44.51-5.82-68.61-22.2C27.42,187.86,5,164.26,5,124.43,5,51.88,48.11,5,114.84,5s109.83,46.88,109.83,119.43Z"/>
    </g>
  </g>
</svg>