<?xml version="1.0" encoding="UTF-8"?>
<svg id="_レイヤー_2" data-name="レイヤー 2" xmlns="http://www.w3.org/2000/svg" viewBox="0 0 7.18 5.95">
  <defs>
    <style>
      .cls-1 {
        fill: #212121;
      }
    </style>
  </defs>
  <g id="_レイヤー_1-2" data-name="レイヤー 1">
    <g>
      <path class="cls-1" d="M1,3.44c-.34,0-.68-.18-.86-.49C-.14,2.47,.02,1.86,.49,1.58L2.94,.14c.48-.28,1.09-.12,1.37,.35,.28,.48,.12,1.09-.35,1.37L1.51,3.3c-.16,.09-.33,.14-.51,.14Z"/>
      <path class="cls-1" d="M5.38,5.95c-.19,0-.38-.05-.56-.17-.46-.31-.58-.93-.27-1.39l.79-1.18c.31-.46,.93-.58,1.39-.27,.46,.31,.58,.93,.27,1.39l-.79,1.18c-.19,.29-.51,.44-.83,.44Z"/>
    </g>
  </g>
</svg>