<?xml version="1.0" encoding="UTF-8"?>
<svg id="_レイヤー_2" data-name="レイヤー 2" xmlns="http://www.w3.org/2000/svg" viewBox="0 0 62.64 43.23">
  <defs>
    <style>
      .cls-1 {
        fill: #6a6;
      }

      .cls-2 {
        fill: #fff;
      }

      .cls-3 {
        fill: #212121;
      }
    </style>
  </defs>
  <g id="_レイヤー_1-2" data-name="レイヤー 1">
    <g>
      <path class="cls-3" d="M61.96,9.31c-.55-.6-13.76-14.42-37.21-7.25C1.11,9.28,.03,27.72,0,28.5c-.06,1.38,1,2.54,2.37,2.6,.04,.01,.08,.01,.13,.01,1.32,0,2.42-1.04,2.49-2.37,.04-.57,.86-12.54,15.14-19.53-2.9,3.59-4.63,8.15-4.63,13.12,0,11.54,9.36,20.9,20.9,20.9s20.9-9.36,20.9-20.9c0-5.46-2.09-10.43-5.52-14.15,4.11,2.03,6.32,4.32,6.52,4.53,.95,1.01,2.53,1.07,3.54,.13s1.07-2.52,.12-3.53Zm-25.56,31.08c-7.37,0-11.55-3.41-15-6.85l4.88-6.17c3.55,4.34,10.12,4.3,10.12,4.3,0,0,6.57,.04,10.12-4.3l4.88,6.17c-3.44,3.44-7.37,6.85-15,6.85Zm0-23.71c0-3.41,2.76-6.17,6.17-6.17s6.17,2.76,6.17,6.17-2.76,6.17-6.17,6.17-6.17-2.76-6.17-6.17Z"/>
      <circle class="cls-3" cx="42.57" cy="16.68" r="6.17"/>
      <path class="cls-3" d="M51.4,33.54c-3.44,3.44-7.37,6.85-15,6.85s-11.55-3.41-15-6.85l4.88-6.17c3.55,4.34,10.12,4.3,10.12,4.3,0,0,6.57,.04,10.12-4.3l4.88,6.17Z"/>
      <circle class="cls-2" cx="42.57" cy="16.68" r="6.17"/>
      <path class="cls-1" d="M51.4,33.54c-3.44,3.44-7.37,6.85-15,6.85s-11.55-3.41-15-6.85l4.88-6.17c3.55,4.34,10.12,4.3,10.12,4.3,0,0,6.57,.04,10.12-4.3l4.88,6.17Z"/>
    </g>
  </g>
</svg>