<?xml version="1.0" encoding="UTF-8"?>
<svg id="_レイヤー_2" data-name="レイヤー 2" xmlns="http://www.w3.org/2000/svg" viewBox="0 0 41.07 60.42">
  <defs>
    <style>
      .cls-1 {
        fill: #ffe2cc;
      }

      .cls-2 {
        fill: #212121;
      }
    </style>
  </defs>
  <g id="_レイヤー_1-2" data-name="レイヤー 1">
    <g>
      <path class="cls-1" d="M36.07,13.9V54.57c-2.92-.65-7.74-2.01-12.7-4.58-10.29-5.35-16.32-13.19-17.92-23.33-1.38-8.79,.8-17.99,1.82-21.56,5.09-.3,21.01-.41,28.8,8.8Z"/>
      <path class="cls-2" d="M40.55,11.5C29.82-2.45,6.08,.14,5.08,.26l-1.56,.18-.51,1.48c-.18,.53-4.46,13.1-2.5,25.52,4.44,28.08,37.42,32.58,37.75,32.63l2.81,.35V12.17l-.52-.67ZM7.27,5.1c5.09-.3,21.01-.41,28.8,8.8V54.57c-2.92-.65-7.74-2.01-12.7-4.58-10.29-5.35-16.32-13.19-17.92-23.33-1.38-8.79,.8-17.99,1.82-21.56Z"/>
    </g>
  </g>
</svg>