<?xml version="1.0" encoding="UTF-8"?>
<svg id="_レイヤー_2" data-name="レイヤー 2" xmlns="http://www.w3.org/2000/svg" viewBox="0 0 251.98 160.49">
  <defs>
    <style>
      .cls-1 {
        fill: none;
      }

      .cls-2 {
        fill: #212121;
      }

      .cls-3 {
        fill: #444;
      }

      .cls-4 {
        fill: #5e5e5e;
      }
    </style>
  </defs>
  <g id="_レイヤー_1-2" data-name="レイヤー 1">
    <g>
      <path class="cls-4" d="M142.21,86.08l-13.52,3.14,10.44-8.25,1.49,3.66c.29,.73,.89,1.24,1.59,1.45Z"/>
      <path class="cls-4" d="M144.63,85.52c.74-.69,1.02-1.79,.62-2.77l-2.03-5,2.23-1.76,4.14,7.15c.25,.44,.62,.78,1.04,.98l-6,1.4Z"/>
      <path class="cls-4" d="M153.77,83.39c.57-.78,.66-1.86,.15-2.75l-4.36-7.53,1.94-1.19,8.38,10.05-6.11,1.42Z"/>
      <polygon class="cls-4" points="165.52 80.66 165.34 80.7 162.82 77.69 165.52 80.66"/>
      <line class="cls-1" x1="146.83" y1="73.37" x2="151.76" y2="81.89"/>
      <g>
        <line class="cls-1" x1="140.47" y1="77.63" x2="142.93" y2="83.69"/>
        <path class="cls-2" d="M232.26,54.08C208.74,21.23,167.72,0,127.76,0S47.95,19.8,23.51,51.68C1.65,80.18-5.27,114.95,4.03,149.59c.25,.95,1.05,1.67,2.03,1.82s1.96-.29,2.49-1.13c.04-.06,3.94-6.15,12.97-19.26l1.07,27.07c.04,1.11,.81,2.06,1.88,2.33,.21,.05,.41,.07,.61,.07,.87,0,1.7-.45,2.16-1.22l18.23-30.83-2.26,20.22c-.12,1.09,.48,2.12,1.47,2.56,1,.44,2.17,.19,2.89-.62l21.55-24.35-1.55,5.46c-.3,1.04,.11,2.16,1.01,2.76,.9,.61,2.09,.56,2.94-.11l57.17-45.14,10.44-8.25,1.49,3.66c.29,.73,.89,1.24,1.59,1.45,.24,.07,.48,.11,.73,.11,.31,0,.63-.06,.94-.19,.28-.11,.53-.28,.74-.48h0c.74-.69,1.02-1.79,.62-2.77l-2.03-5,2.23-1.76,4.14,7.15c.25,.44,.62,.78,1.04,.98,.35,.18,.74,.27,1.13,.27,.42,0,.85-.11,1.25-.33,.3-.17,.56-.4,.75-.67h.01c.57-.78,.66-1.86,.15-2.75l-4.36-7.53,1.94-1.19,8.38,10.05,25.86,31.01c.58,.69,1.48,1.02,2.37,.86,.88-.16,1.61-.78,1.91-1.63,.91-2.59,1.55-5.66,1.97-8.2l33.24,33.69c.64,.65,1.59,.9,2.47,.64,.88-.25,1.55-.97,1.75-1.87,.99-4.53,1.64-8.41,2.08-11.48l10.74,18.94c.49,.86,1.44,1.34,2.41,1.26,.98-.09,1.82-.75,2.13-1.69,10.28-30.21,5.11-61.97-14.55-89.42Zm11.5,82.34l-11.73-20.68c-.55-.97-1.68-1.46-2.76-1.2-1.08,.26-1.86,1.21-1.91,2.32,0,.07-.25,5.38-1.87,13.98l-33.51-33.96c-.68-.7-1.7-.93-2.62-.6-.91,.32-1.55,1.15-1.65,2.11,0,.06-.36,3.8-1.2,7.7l-21.17-25.39-2.52-3.01-8.87-10.64c-.41-.5-.98-.79-1.58-.88-.56-.07-1.14,.04-1.65,.35l-6,3.7c-.09,.05-.17,.11-.24,.17l-2.32,1.83-67.66,53.42,2.45-8.59c.03-.1,.05-.2,.06-.3,.25-.47,.53-.99,.83-1.56,8.27-15.43,36.67-64.29,65.09-64.29,6.73,0,8.6,6.68,8.68,6.95,.09,.33,.24,.63,.44,.89,.58,.77,1.6,1.16,2.6,.91,1.34-.35,2.14-1.71,1.8-3.05-.95-3.7-5.01-10.7-13.52-10.7-33.43,0-64.49,57.08-70.83,69.46l-23.04,26.02,2.66-23.96c.13-1.17-.57-2.27-1.69-2.64-1.11-.38-2.34,.08-2.94,1.09l-19.84,33.55-1.03-26.07c-.04-1.08-.76-2-1.79-2.31-.23-.06-.47-.1-.7-.1-.81,0-1.58,.39-2.06,1.08-6.81,9.78-11.41,16.61-14.16,20.73-6.76-31.25,.24-62.31,19.96-88.03C50.99,24.05,89.42,5,127.76,5s77.82,20.41,100.44,51.99c17.5,24.45,22.94,52.45,15.56,79.43Z"/>
      </g>
      <g>
        <path class="cls-3" d="M243.76,136.42l-11.73-20.68c-.55-.97-1.68-1.46-2.76-1.2-1.08,.26-1.86,1.21-1.91,2.32,0,.07-.25,5.38-1.87,13.98l-33.51-33.96c-.68-.7-1.7-.93-2.62-.6-.91,.32-1.55,1.15-1.65,2.11,0,.06-.36,3.8-1.2,7.7l-21.17-25.39,.18-.04-2.7-2.97-8.87-10.64c-.41-.5-.98-.79-1.58-.88-.56-.07-1.14,.04-1.65,.35l-6,3.7c-.09,.05-.17,.11-.24,.17l-2.32,1.83-67.66,53.42,2.45-8.59c.03-.1,.05-.2,.06-.3,.25-.47,.53-.99,.83-1.56,8.27-15.43,36.67-64.29,65.09-64.29,6.73,0,8.6,6.68,8.68,6.95,.09,.33,.24,.63,.44,.89,.58,.77,1.6,1.16,2.6,.91,1.34-.35,2.14-1.71,1.8-3.05-.95-3.7-5.01-10.7-13.52-10.7-33.43,0-64.49,57.08-70.83,69.46l-23.04,26.02,2.66-23.96c.13-1.17-.57-2.27-1.69-2.64-1.11-.38-2.34,.08-2.94,1.09l-19.84,33.55-1.03-26.07c-.04-1.08-.76-2-1.79-2.31-.23-.06-.47-.1-.7-.1-.81,0-1.58,.39-2.06,1.08-6.81,9.78-11.41,16.61-14.16,20.73-6.76-31.25,.24-62.31,19.96-88.03C50.99,24.05,89.42,5,127.76,5s77.82,20.41,100.44,51.99c17.5,24.45,22.94,52.45,15.56,79.43Z"/>
        <polygon class="cls-3" points="165.52 80.66 165.34 80.7 162.82 77.69 165.52 80.66"/>
      </g>
    </g>
  </g>
</svg>