<?xml version="1.0" encoding="UTF-8"?>
<svg id="_レイヤー_2" data-name="レイヤー 2" xmlns="http://www.w3.org/2000/svg" viewBox="0 0 58.86 36.87">
  <defs>
    <style>
      .cls-1 {
        fill: #6a6;
      }

      .cls-2 {
        fill: #fff;
      }

      .cls-3 {
        fill: #212121;
      }
    </style>
  </defs>
  <g id="_レイヤー_1-2" data-name="レイヤー 1">
    <g>
      <g>
        <path class="cls-3" d="M31.55,10.32c0-2.23,1.18-4.19,2.96-5.26h6.43c1.76,1.09,2.94,3.03,2.94,5.26,0,3.41-2.76,6.17-6.17,6.17s-6.16-2.76-6.16-6.17Z"/>
        <path class="cls-3" d="M46.55,27.18c-3.45,3.44-7.38,6.85-15,6.85s-11.56-3.41-15-6.85l4.88-6.18c3.55,4.35,10.12,4.31,10.12,4.31,0,0,6.56,.04,10.11-4.31l4.89,6.18Z"/>
      </g>
      <path class="cls-2" d="M43.88,10.32c0,3.41-2.76,6.17-6.17,6.17s-6.16-2.76-6.16-6.17c0-2.23,1.18-4.19,2.96-5.26h6.43c1.76,1.09,2.94,3.03,2.94,5.26Z"/>
      <path class="cls-3" d="M56.37,.1L2.51,0h-.01C1.12,0,0,1.12,0,2.5s1.12,2.5,2.5,2.5l11.26,.02c-1.97,3.18-3.11,6.93-3.11,10.95,0,11.54,9.35,20.9,20.9,20.9s20.89-9.36,20.89-20.9c0-3.99-1.12-7.71-3.06-10.88h6.98c1.38,.01,2.5-1.11,2.5-2.49,0-1.38-1.11-2.5-2.49-2.5ZM31.55,34.03c-7.37,0-11.56-3.41-15-6.85l4.88-6.18c3.55,4.35,10.12,4.31,10.12,4.31,0,0,6.56,.04,10.11-4.31l4.89,6.18c-3.45,3.44-7.38,6.85-15,6.85Zm12.33-23.71c0,3.41-2.76,6.17-6.17,6.17s-6.16-2.76-6.16-6.17c0-2.23,1.18-4.19,2.96-5.26h6.43c1.76,1.09,2.94,3.03,2.94,5.26Z"/>
      <path class="cls-1" d="M46.55,27.18c-3.45,3.44-7.38,6.85-15,6.85s-11.56-3.41-15-6.85l4.88-6.18c3.55,4.35,10.12,4.31,10.12,4.31,0,0,6.56,.04,10.11-4.31l4.89,6.18Z"/>
    </g>
  </g>
</svg>