<?xml version="1.0" encoding="UTF-8"?>
<svg id="_レイヤー_2" data-name="レイヤー 2" xmlns="http://www.w3.org/2000/svg" viewBox="0 0 59.22 48.65">
  <defs>
    <style>
      .cls-1 {
        fill: #6a6;
      }

      .cls-2 {
        fill: #fff;
      }

      .cls-3 {
        fill: #212121;
      }
    </style>
  </defs>
  <g id="_レイヤー_1-2" data-name="レイヤー 1">
    <g>
      <path class="cls-3" d="M33.47,22.11c0-3.41,2.76-6.17,6.17-6.17s6.17,2.76,6.17,6.17-2.77,6.17-6.17,6.17-6.17-2.77-6.17-6.17Z"/>
      <path class="cls-3" d="M48.47,38.97c-3.45,3.44-7.37,6.85-15,6.85s-11.56-3.41-15-6.85l4.88-6.18c3.55,4.35,10.12,4.31,10.12,4.31,0,0,6.56,.04,10.12-4.31l4.88,6.18Z"/>
      <path class="cls-2" d="M45.81,22.11c0,3.4-2.77,6.17-6.17,6.17s-6.17-2.77-6.17-6.17,2.76-6.17,6.17-6.17,6.17,2.76,6.17,6.17Z"/>
      <path class="cls-3" d="M58.58,18.32c-.39-.43-9.76-10.68-31.95-15.42C13.25,.04,2.93,0,2.5,0,1.12,0,0,1.12,0,2.5s1.12,2.5,2.5,2.5c.1,0,10.25,.04,23.08,2.79,.35,.07,.69,.15,1.03,.23-8.17,2.83-14.04,10.6-14.04,19.74,0,11.54,9.36,20.89,20.9,20.89s20.89-9.35,20.89-20.89c0-2.82-.56-5.51-1.57-7.97,1.37,1.12,2.04,1.84,2.07,1.87,.49,.55,1.18,.83,1.86,.83,.59,0,1.19-.21,1.67-.64,1.02-.92,1.11-2.5,.19-3.53Zm-12.77,3.79c0,3.4-2.77,6.17-6.17,6.17s-6.17-2.77-6.17-6.17,2.76-6.17,6.17-6.17,6.17,2.76,6.17,6.17Zm-12.34,23.71c-7.37,0-11.56-3.41-15-6.85l4.88-6.18c3.55,4.35,10.12,4.31,10.12,4.31,0,0,6.56,.04,10.12-4.31l4.88,6.18c-3.45,3.44-7.37,6.85-15,6.85Z"/>
      <path class="cls-1" d="M48.47,38.97c-3.45,3.44-7.37,6.85-15,6.85s-11.56-3.41-15-6.85l4.88-6.18c3.55,4.35,10.12,4.31,10.12,4.31,0,0,6.56,.04,10.12-4.31l4.88,6.18Z"/>
    </g>
  </g>
</svg>