<?xml version="1.0" encoding="UTF-8"?>
<svg id="_レイヤー_2" data-name="レイヤー 2" xmlns="http://www.w3.org/2000/svg" viewBox="0 0 43.2 62.39">
  <defs>
    <style>
      .cls-1 {
        fill: #ffe2cc;
      }

      .cls-2 {
        fill: #212121;
      }
    </style>
  </defs>
  <g id="_レイヤー_1-2" data-name="レイヤー 1">
    <g>
      <path class="cls-1" d="M38.2,15.97V56.8c-7.74-1.33-29.59-6.85-32.75-26.86-1.79-11.3,1.83-20.65,9.2-23.82,1.68-.73,3.45-1.08,5.27-1.08,6.04,0,12.64,3.87,18.28,10.93Z"/>
      <path class="cls-2" d="M42.68,13.58C35.71,4.51,24.16-3.42,12.68,1.52,3.13,5.63-1.64,17.09,.51,30.72c1.85,11.73,9.42,20.9,21.87,26.52,9.2,4.14,17.76,4.89,18.12,4.92l2.7,.23V14.26l-.52-.68Zm-4.48,43.22c-7.74-1.33-29.59-6.85-32.75-26.86-1.79-11.3,1.83-20.65,9.2-23.82,1.68-.73,3.45-1.08,5.27-1.08,6.04,0,12.64,3.87,18.28,10.93V56.8Z"/>
    </g>
  </g>
</svg>