<?xml version="1.0" encoding="UTF-8"?>
<svg id="_レイヤー_2" data-name="レイヤー 2" xmlns="http://www.w3.org/2000/svg" viewBox="0 0 27.78 13.57">
  <defs>
    <style>
      .cls-1 {
        fill: #ffdfc0;
      }
    </style>
  </defs>
  <g id="_レイヤー_1-2" data-name="レイヤー 1">
    <g>
      <path class="cls-1" d="M6.99,13.57c-.77,0-1.53-.4-1.94-1.11L.31,4.36C-.32,3.29,.04,1.91,1.11,1.28c1.07-.63,2.45-.27,3.08,.81l4.73,8.09c.63,1.07,.27,2.45-.81,3.08-.36,.21-.75,.31-1.13,.31Z"/>
      <path class="cls-1" d="M16.26,13.08c-.77,0-1.53-.4-1.94-1.11L9.58,3.87c-.63-1.07-.27-2.45,.81-3.08,1.07-.63,2.45-.27,3.08,.81l4.73,8.09c.63,1.07,.27,2.45-.81,3.08-.36,.21-.75,.31-1.13,.31Z"/>
      <path class="cls-1" d="M25.53,12.59c-.77,0-1.53-.4-1.94-1.11L18.85,3.39c-.63-1.07-.27-2.45,.81-3.08,1.07-.63,2.45-.27,3.08,.81l4.73,8.09c.63,1.07,.27,2.45-.81,3.08-.36,.21-.75,.31-1.13,.31Z"/>
    </g>
  </g>
</svg>