<?xml version="1.0" encoding="UTF-8"?>
<svg id="_レイヤー_2" data-name="レイヤー 2" xmlns="http://www.w3.org/2000/svg" viewBox="0 0 35.2 70.16">
  <defs>
    <style>
      .cls-1 {
        fill: #212121;
      }

      .cls-2 {
        fill: #444;
      }
    </style>
  </defs>
  <g id="_レイヤー_1-2" data-name="レイヤー 1">
    <g>
      <path class="cls-2" d="M27.8,64.95c-6.68-.78-18.61-4.84-22.23-23.43-2.09-10.7,1.57-20.07,10.88-27.85,2.93-2.45,6.01-4.37,8.62-5.78-13.01,26.67-2.84,48.29,2.73,57.06Z"/>
      <path class="cls-1" d="M34.58,65.87c-.96-1.09-23.17-27.19-1.54-62.06,.55-.9,.49-2.04-.17-2.87s-1.76-1.15-2.76-.81C29.76,.25-5.19,12.46,.66,42.47c4.3,22.11,19.97,27.69,29.63,27.69,.97,0,1.88-.05,2.71-.16,.92-.11,1.7-.72,2.03-1.59,.34-.86,.16-1.84-.45-2.54ZM5.57,41.52c-2.09-10.7,1.57-20.07,10.88-27.85,2.93-2.45,6.01-4.37,8.62-5.78-13.01,26.67-2.84,48.29,2.73,57.06-6.68-.78-18.61-4.84-22.23-23.43Z"/>
    </g>
  </g>
</svg>