<?xml version="1.0" encoding="UTF-8"?>
<svg id="_レイヤー_2" data-name="レイヤー 2" xmlns="http://www.w3.org/2000/svg" viewBox="0 0 346.75 285.22">
  <defs>
    <style>
      .cls-1 {
        fill: #ffe2cc;
      }

      .cls-2 {
        fill: #212121;
      }
    </style>
  </defs>
  <g id="_レイヤー_1-2" data-name="レイヤー 1">
    <g>
      <path class="cls-1" d="M332.85,69.54L240.92,7.01c-1.57-1.07-3.22-1.94-4.91-2.62l-.21-1.89H115.5l-.07,.49c-3.35,.66-6.63,1.98-9.63,4.02L13.88,69.54C1.99,77.63-1.09,93.82,7,105.7c8.09,11.89,24.28,14.97,36.17,6.88l63.06-42.9-9.33,67.59c-.16,.72-.3,1.45-.41,2.2l-15.23,110.13c-1.97,14.24,7.98,27.38,22.22,29.35l25.35,3.51c14.24,1.97,27.38-7.98,29.35-22.22l8.61-62.26c4.47,.16,8.97,.15,13.44-.01l8.61,62.27c1.97,14.24,15.11,24.19,29.35,22.22l25.35-3.51c14.24-1.97,24.19-15.11,22.22-29.35l-14.31-103.44-8.12-74.55,60.23,40.97c11.89,8.09,28.08,5,36.17-6.88,8.09-11.89,5-28.08-6.88-36.17Z"/>
      <path class="cls-2" d="M214.57,285.22c-6.17,0-12.15-2-17.16-5.79-6.08-4.6-10-11.29-11.04-18.84l-8.31-60.04c-3.03,.08-6.08,.08-9.11,0l-8.3,60.03c-1.04,7.55-4.97,14.24-11.04,18.84-6.08,4.6-13.58,6.56-21.13,5.51l-25.35-3.51c-7.55-1.04-14.24-4.97-18.84-11.04-4.6-6.08-6.56-13.58-5.51-21.13l15.23-110.13c.1-.73,.24-1.48,.42-2.3l8.55-61.91-58.41,39.73c-13.01,8.85-30.79,5.46-39.64-7.54-8.85-13.01-5.46-30.79,7.54-39.64L104.4,4.94c2.84-1.93,5.95-3.32,9.25-4.12,.46-.51,1.12-.82,1.85-.82h120.31c1.28,0,2.35,.96,2.49,2.23l.05,.45c1.39,.65,2.73,1.41,3.99,2.27l91.92,62.53c6.3,4.29,10.56,10.77,11.98,18.26,1.42,7.49-.15,15.08-4.44,21.38-8.85,13.01-26.63,16.39-39.64,7.54l-55.75-37.92,7.54,69.17,14.3,103.36c1.04,7.55-.91,15.05-5.51,21.13-4.6,6.08-11.29,10-18.84,11.04l-25.35,3.51c-1.33,.18-2.65,.27-3.97,.27Zm-34.34-89.74c1.24,0,2.3,.92,2.48,2.16l8.61,62.27c.86,6.23,4.1,11.75,9.11,15.54,5.01,3.79,11.2,5.41,17.43,4.55l25.35-3.51c6.23-.86,11.75-4.1,15.54-9.11,3.79-5.01,5.41-11.2,4.55-17.43l-14.31-103.44-8.13-74.62c-.11-.97,.36-1.91,1.2-2.41,.83-.5,1.89-.47,2.69,.08l60.23,40.97c10.73,7.3,25.39,4.51,32.69-6.22,7.3-10.73,4.51-25.39-6.22-32.69L239.52,9.08c-1.38-.94-2.88-1.74-4.44-2.37-.75-.3-1.3-.94-1.49-1.71H116.91c-.29,.21-.63,.37-1,.44-3.12,.61-6.05,1.84-8.7,3.64L15.29,71.61c-10.73,7.3-13.52,21.96-6.22,32.69,7.3,10.73,21.96,13.52,32.69,6.22l63.06-42.9c.82-.56,1.89-.58,2.72-.06s1.29,1.49,1.16,2.47l-9.33,67.59c0,.07-.02,.14-.04,.21-.16,.72-.28,1.37-.37,1.99l-15.23,110.13c-.86,6.23,.75,12.42,4.55,17.43,3.79,5.01,9.31,8.25,15.54,9.11l25.35,3.51c12.85,1.77,24.76-7.23,26.53-20.08l8.61-62.26c.18-1.27,1.26-2.19,2.57-2.16,4.39,.16,8.86,.15,13.26,0,.03,0,.06,0,.09,0Z"/>
    </g>
  </g>
</svg>