<?xml version="1.0" encoding="UTF-8"?>
<svg id="_レイヤー_2" data-name="レイヤー 2" xmlns="http://www.w3.org/2000/svg" viewBox="0 0 317 214.17">
  <defs>
    <style>
      .cls-1 {
        fill: #6a6;
      }

      .cls-2 {
        fill: #212121;
      }
    </style>
  </defs>
  <g id="_レイヤー_1-2" data-name="レイヤー 1">
    <g>
      <path class="cls-2" d="M316.94,50.8c-.15-.66-.55-1.23-1.13-1.58l-57.75-35.9C243.61,4.34,227.02-.24,209.98,0l-6.92,.11c-1.15,.02-2.14,.82-2.39,1.94-5.45,23.88-25.8,36.85-42.16,36.92-16.39-.07-36.74-13.04-42.18-36.92-.26-1.12-1.25-1.92-2.4-1.94l-6.92-.11c-16.97-.24-33.63,4.33-48.07,13.31L1.18,49.22c-.57,.35-.98,.92-1.12,1.58-.15,.65-.02,1.34,.34,1.9L47.66,125.24c.74,1.14,2.26,1.47,3.41,.76l12.05-7.46-12.81,92.79c-.1,.72,.12,1.44,.59,1.99,.48,.54,1.16,.85,1.89,.85h211.42c.72,0,1.41-.31,1.88-.85,.48-.55,.69-1.27,.59-1.99l-12.8-92.79,12.04,7.46c1.15,.71,2.67,.38,3.41-.76l47.26-72.54c.37-.56,.49-1.25,.35-1.9Zm-64.95,60.69c-.83-.51-1.87-.5-2.68,.03-.81,.53-1.25,1.48-1.11,2.44l13.14,95.21H55.65l13.15-95.21c.13-.96-.31-1.91-1.12-2.44-.81-.53-1.85-.54-2.68-.03l-14.48,8.97L5.99,52.11,61.57,17.57c13.63-8.47,29.29-12.8,45.36-12.56l4.99,.08c5.93,22.21,25.63,38.8,46.59,38.89,20.93-.09,40.63-16.68,46.56-38.89l4.99-.08c16.06-.25,31.73,4.09,45.36,12.56l55.59,34.54-44.53,68.35-14.49-8.97Z"/>
      <path class="cls-1" d="M248.2,113.96l13.14,95.21H55.65l13.15-95.21c.13-.96-.31-1.91-1.12-2.44-.81-.53-1.85-.54-2.68-.03l-14.48,8.97L5.99,52.11,61.57,17.57c13.63-8.47,29.29-12.8,45.36-12.56l4.99,.08c5.93,22.21,25.63,38.8,46.59,38.89,20.93-.09,40.63-16.68,46.56-38.89l4.99-.08c16.06-.25,31.73,4.09,45.36,12.56l55.59,34.54-44.53,68.35-14.49-8.97c-.83-.51-1.87-.5-2.68,.03-.81,.53-1.25,1.48-1.11,2.44Z"/>
    </g>
  </g>
</svg>