<?xml version="1.0" encoding="utf-8"?>
<!-- Generator: Adobe Illustrator 26.5.0, SVG Export Plug-In . SVG Version: 6.00 Build 0)  -->
<svg version="1.1" id="レイヤー_1" xmlns="http://www.w3.org/2000/svg" xmlns:xlink="http://www.w3.org/1999/xlink" x="0px"
	 y="0px" viewBox="0 0 20 18" style="enable-background:new 0 0 20 18;" xml:space="preserve">
<style type="text/css">
	.st0{fill:#2B2B2B;}
</style>
<g>
	<path class="st0" d="M11.9,13.5c-1.6,0-3.2,0-4.9,0c-0.3,0-0.6,0-0.9-0.1c-0.4-0.1-0.7-0.4-1-0.7c-0.4-0.4-0.6-0.9-0.7-1.4
		C4.3,10.1,4,8.9,3.8,7.7C3.6,6.5,3.3,5.3,3.1,4.1C3,3.4,2.8,2.6,2.7,1.9c0-0.2-0.1-0.2-0.3-0.2c-0.5,0-1,0-1.5,0
		c-0.3,0-0.6-0.1-0.7-0.4c-0.3-0.5,0-1.2,0.6-1.3c0,0,0,0,0.1,0c0.6,0,1.2,0,1.9,0c0.6,0.1,1.1,0.4,1.4,1c0,0.1,0.1,0.1,0.2,0.1
		c4.7,0,9.5,0,14.2,0c0.4,0,0.7,0.1,1,0.4C19.8,1.7,19.9,2,20,2.3c0.1,0.3,0,0.7-0.1,1c-0.4,1.6-0.9,3.3-1.3,4.9
		C18.3,9,17.8,9.6,16.9,10c-0.3,0.1-0.6,0.1-0.9,0.1c-3.3,0-6.6,0-9.9,0c-0.1,0-0.1,0-0.1,0.1c0,0.3,0.1,0.5,0.1,0.8
		c0.1,0.5,0.4,0.8,0.9,0.8c0.6,0,1.2,0,1.9,0c2.7,0,5.4,0,8.1,0c0.3,0,0.5,0.1,0.7,0.3c0.2,0.3,0.3,0.6,0.1,0.9
		c-0.2,0.3-0.4,0.5-0.8,0.5c-1,0-1.9,0-2.9,0C13.4,13.5,12.7,13.5,11.9,13.5z M4.6,2.8C4.6,2.8,4.6,2.9,4.6,2.8
		C4.7,3.4,4.8,4,4.9,4.5c0.2,1.3,0.5,2.6,0.7,3.9c0,0.1,0,0.1,0.1,0.1c3.4,0,6.9,0,10.3,0c0.1,0,0.2,0,0.3,0
		c0.3-0.1,0.5-0.3,0.6-0.7c0.4-1.6,0.9-3.1,1.3-4.7c0-0.1,0-0.1,0.1-0.2C13.7,2.8,9.1,2.8,4.6,2.8z"/>
	<path class="st0" d="M7.9,16.3c0,0.8-0.6,1.6-1.7,1.6c-0.9,0-1.7-0.7-1.7-1.7c0-0.9,0.7-1.6,1.7-1.7C7.1,14.6,7.8,15.3,7.9,16.3z"
		/>
	<path class="st0" d="M16.2,18c-0.9,0-1.6-0.7-1.7-1.7c0-0.9,0.7-1.7,1.7-1.7c0.8,0,1.7,0.6,1.6,1.7C17.9,17.2,17.2,18,16.2,18z"/>
</g>
</svg>
