<?xml version="1.0" encoding="UTF-8"?>
<svg id="_レイヤー_2" data-name="レイヤー 2" xmlns="http://www.w3.org/2000/svg" viewBox="0 0 196.32 200">
  <defs>
    <style>
      .cls-1 {
        fill: #fff;
      }
    </style>
  </defs>
  <g id="_2" data-name="2">
    <g>
      <path class="cls-1" d="M196.31,191.68c.13,4.72-3.79,8.55-8.51,8.31l-31.45-1.62c-3.43-.17-6.37-2.49-7.34-5.78l-10.9-36.82-4.39-.57-19.94,32.81c-1.79,2.93-5.22,4.43-8.57,3.72l-30.83-6.47c-4.62-.97-7.43-5.68-6.09-10.21l12.9-43.74,50.28-8.01c5.22-.83,9.79-3.88,12.57-8.35,2.78-4.49,3.49-9.95,1.92-14.98l-2.59-8.34,43.41,5.63c3.94,.52,6.93,3.82,7.04,7.79l2.48,86.64Z"/>
      <g>
        <path class="cls-1" d="M64.77,42.72c-.49-3.05,1.59-5.92,4.65-6.41,3.05-.49,5.92,1.59,6.41,4.65,.49,3.05-1.61,5.92-4.66,6.41-3.05,.49-5.91-1.59-6.4-4.65Z"/>
        <path class="cls-1" d="M74.43,67.83c-3.05,.49-5.92-1.59-6.41-4.65-.49-3.05,1.59-5.92,4.65-6.41,3.05-.49,5.92,1.61,6.41,4.66s-1.59,5.91-4.65,6.4Z"/>
        <path class="cls-1" d="M149.69,58.84l-17.96-34.07C126.34,14.08,115.41,1.81,93.58,.02c-2.86-.23-5.51,1.57-6.29,4.34-2.54,9.08-10.17,16.33-20.1,17.9-9.95,1.58-19.44-2.94-24.67-10.8-1.59-2.38-4.68-3.28-7.33-2.16C14.96,17.77,8.39,32.85,6.56,44.7L.09,82.66c-.54,3.08,1.39,6.04,4.41,6.82l23.68,6.13,.38,24.81c.06,3.66,3.34,6.42,6.96,5.84l49.48-7.88,44.57-7.1c3.61-.57,5.87-4.22,4.79-7.71l-4.26-13.68-3.1-10,20.61-13.18c2.63-1.69,3.53-5.11,2.08-7.87Zm-84.92-16.12c-.49-3.05,1.59-5.92,4.65-6.41,3.05-.49,5.92,1.59,6.41,4.65,.49,3.05-1.61,5.92-4.66,6.41-3.05,.49-5.91-1.59-6.4-4.65Zm9.66,25.11c-3.05,.49-5.92-1.59-6.41-4.65-.49-3.05,1.59-5.92,4.65-6.41,3.05-.49,5.92,1.61,6.41,4.66s-1.59,5.91-4.65,6.4Z"/>
      </g>
    </g>
  </g>
</svg>