<svg width="91" height="80" viewBox="0 0 91 80" fill="none" xmlns="http://www.w3.org/2000/svg">
<path d="M84.638 36.5942C83.357 34.7898 81.3402 33.6758 79.1523 33.5155V26.5513C79.1534 24.6241 78.363 22.8539 77.0992 21.5944C75.8386 20.3306 74.0695 19.5413 72.1423 19.5422H40.4011C40.0113 19.5422 39.633 19.3936 39.3456 19.1233L39.3477 19.1266L33.7703 13.8963C32.4702 12.6784 30.7567 12 28.9759 12H19.8591C17.9319 11.9989 16.1617 12.7895 14.9022 14.0533C13.6384 15.3127 12.848 17.083 12.8491 19.0102V33.5155C10.6613 33.6758 8.64422 34.7898 7.36328 36.5953C6.46578 37.8603 6 39.358 6 40.8695C6 41.6889 6.13672 42.5148 6.41563 43.3095L13.0016 62.1414C13.0402 62.2492 13.0795 62.3444 13.1298 62.447C13.4322 63.0591 13.7142 63.6605 14.0314 64.2609C14.5111 65.1508 15.0602 66.1016 16.0538 66.9391C16.5472 67.3503 17.153 67.7028 17.812 67.9261C18.4722 68.1516 19.1677 68.2498 19.8589 68.2489H72.1422C73.2831 68.2552 74.3578 67.8814 75.1655 67.3567C76.3919 66.562 77.1172 65.5492 77.6705 64.6689C78.2142 63.7866 78.5914 62.965 78.8286 62.5302C78.9045 62.387 78.9452 62.2941 78.9984 62.1414L85.5855 43.3084C85.8633 42.5147 86 41.6889 86 40.8695C86 39.358 85.5353 37.8603 84.638 36.5942ZM73.6825 33.4834H18.3184V19.0103C18.3195 18.5766 18.4862 18.2091 18.7692 17.9206C19.0577 17.6375 19.4252 17.4709 19.8589 17.4698H28.9758C29.3678 17.4698 29.7427 17.6184 30.0302 17.8866L35.6067 23.1159L35.6087 23.1191C36.9056 24.3316 38.6181 25.012 40.4011 25.012H72.1422C72.5759 25.013 72.9444 25.1798 73.2319 25.4628C73.515 25.7502 73.6817 26.1177 73.6827 26.5514L73.6825 33.4834Z" fill="#DD705E"/>
</svg>
