<?xml version="1.0" encoding="UTF-8"?>
<svg id="_レイヤー_2" data-name="レイヤー 2" xmlns="http://www.w3.org/2000/svg" viewBox="0 0 170.94 200">
  <defs>
    <style>
      .cls-1 {
        fill: #fff;
      }
    </style>
  </defs>
  <g id="_2" data-name="2">
    <g>
      <path class="cls-1" d="M85.44,41.55c-9.45-9.45-16.3-25.05-20.34-40.3-.44-1.66-2.78-1.66-3.21,0-4.04,15.26-10.89,30.86-20.34,40.31-9.45,9.44-25.05,16.29-40.3,20.34-1.66,.44-1.66,2.78,0,3.21,15.26,4.04,30.86,10.89,40.31,20.34,9.45,9.45,16.3,25.05,20.34,40.3,.44,1.66,2.78,1.66,3.21,0,4.04-15.26,10.89-30.86,20.34-40.31,9.45-9.45,25.05-16.29,40.3-20.34,1.66-.44,1.66-2.78,0-3.21-15.26-4.04-30.86-10.89-40.31-20.34Z"/>
      <path class="cls-1" d="M147.94,113.88c-5.17-5.18-9.05-13.45-11.52-21.82-.47-1.6-2.72-1.57-3.19,.03-2.47,8.36-6.33,16.62-11.51,21.8-5.17,5.17-13.44,9.04-21.8,11.51-1.61,.48-1.61,2.72,0,3.2,8.36,2.47,16.62,6.34,21.8,11.51,5.17,5.17,9.04,13.43,11.52,21.79,.48,1.61,2.72,1.61,3.2,0,2.47-8.36,6.34-16.62,11.51-21.8,5.17-5.17,13.44-9.04,21.8-11.51,1.61-.48,1.61-2.72,0-3.2-8.36-2.47-16.62-6.34-21.8-11.51Z"/>
      <path class="cls-1" d="M48.42,141.82c-.48-1.56-2.69-1.56-3.17,0-2.08,6.74-5.24,13.32-9.42,17.5-4.18,4.17-10.76,7.34-17.5,9.42-1.56,.48-1.56,2.69,0,3.17,6.74,2.08,13.32,5.24,17.5,9.42,4.18,4.18,7.34,10.75,9.43,17.49,.48,1.56,2.69,1.56,3.17,0,2.08-6.74,5.24-13.32,9.42-17.5,4.17-4.18,10.75-7.34,17.49-9.42,1.56-.48,1.56-2.69,0-3.17-6.74-2.08-13.32-5.24-17.5-9.42-4.18-4.17-7.34-10.75-9.42-17.5Z"/>
    </g>
  </g>
</svg>