<svg width="91" height="80" viewBox="0 0 91 80" fill="none" xmlns="http://www.w3.org/2000/svg">
<path d="M13.7755 28.338H20.7447C22.2769 28.338 23.5202 27.0949 23.5202 25.56C23.5202 24.0263 22.2769 22.7831 20.7447 22.7831H13.7755C12.2431 22.7831 11 24.0263 11 25.56C11 27.0949 12.2431 28.338 13.7755 28.338Z" fill="#0E536D"/>
<path d="M19.6257 31.2443H14.4299V48.756H19.6257V31.2443Z" fill="#0E536D"/>
<path d="M23.5203 54.4402C23.5203 52.9064 22.277 51.662 20.7448 51.662H13.7755C12.2431 51.6622 11 52.9066 11 54.4402C11 55.9736 12.2431 57.2169 13.7755 57.2169H20.7447C22.277 57.2169 23.5203 55.9738 23.5203 54.4402Z" fill="#0E536D"/>
<path d="M55.3542 24.1405H31.9729V28.0374H55.3542V24.1405Z" fill="#0E536D"/>
<path d="M55.3542 38.4291H31.9729V42.326H55.3542V38.4291Z" fill="#0E536D"/>
<path d="M46.2613 52.7175H31.9729V56.6144H46.2613V52.7175Z" fill="#0E536D"/>
<path d="M19.6257 12.2888C19.627 11.6913 20.1129 11.2055 20.7098 11.2041H60.3202C61.6452 11.2053 62.8199 11.733 63.6907 12.5994C64.5571 13.471 65.0854 14.6455 65.0867 15.97V25.2847C66.7896 22.7527 68.5179 20.4681 70.2824 18.5006V15.97C70.2806 10.4672 65.8231 6.00971 60.3201 6.0083H20.7098C17.2398 6.01096 14.4318 8.8194 14.4299 12.2888V19.877H19.6257V12.2888Z" fill="#0E536D"/>
<path d="M65.0868 49.016V64.03C65.0856 65.3542 64.5573 66.5289 63.6909 67.3991C62.8201 68.2667 61.6454 68.7945 60.3204 68.7956H20.7098C20.1129 68.7945 19.6271 68.3086 19.6257 67.7111V60.123H14.4299V67.7111C14.4318 71.1805 17.2398 73.9889 20.7098 73.9914H60.3202C65.8231 73.9903 70.2806 69.5327 70.2826 64.0299V46.1908C68.9982 47.0381 67.4379 47.6128 65.6746 47.8602C65.4945 48.2142 65.2954 48.605 65.0868 49.016Z" fill="#0E536D"/>
<path d="M82.5522 14.9197C70.9796 16.5141 58.8861 44.5089 53.4322 54.5567C52.0622 57.0811 55.2482 59.188 56.658 56.7716C57.6741 55.035 63.2155 44.0966 63.2155 44.0966C69.253 44.2956 71.4799 40.0805 69.0664 37.4622C77.1799 37.6297 81.2004 33.1644 78.9 30.4548C81.3196 31.2211 83.4164 30.7086 86.5288 29.0114C93.1714 25.3886 92.8613 13.2617 82.5522 14.9197Z" fill="#0E536D"/>
</svg>
