<?xml version="1.0" encoding="UTF-8"?>
<svg id="_レイヤー_2" data-name="レイヤー 2" xmlns="http://www.w3.org/2000/svg" viewBox="0 0 200 152.17">
  <defs>
    <style>
      .cls-1 {
        fill: #fff;
      }
    </style>
  </defs>
  <g id="_2" data-name="2">
    <path class="cls-1" d="M199.58,88.16l-16.3-47.94C178.49,25.23,166.83,7.05,138.86,.23c-3.67-.89-7.49,.9-9.06,4.33-5.17,11.28-16.57,19.11-29.79,19.11s-24.64-7.83-29.82-19.11c-1.58-3.43-5.4-5.22-9.07-4.33C33.11,7.08,21.47,25.3,16.65,40.29L.42,88.26c-1.32,3.89,.57,8.14,4.33,9.78l29.48,12.83-4.62,32.29c-.68,4.76,3.01,9.02,7.82,9.02l125.21-.06c4.81,0,8.5-4.27,7.81-9.03l-4.67-32.26,29.48-12.87c3.76-1.64,5.64-5.89,4.32-9.78Zm-99.58-3.84c-4.06,0-7.36-3.29-7.36-7.36s3.29-7.36,7.36-7.36,7.36,3.29,7.36,7.36-3.29,7.36-7.36,7.36Zm0-27.25c-4.06,0-7.36-3.29-7.36-7.36s3.29-7.36,7.36-7.36,7.36,3.29,7.36,7.36-3.29,7.36-7.36,7.36Z"/>
  </g>
</svg>