<?xml version="1.0" encoding="UTF-8"?>
<svg id="_レイヤー_2" data-name="レイヤー 2" xmlns="http://www.w3.org/2000/svg" viewBox="0 0 191.62 191.8">
  <defs>
    <style>
      .cls-1 {
        fill: #fff;
      }
    </style>
  </defs>
  <g id="_レイヤー_1-2" data-name="レイヤー 1">
    <g>
      <path class="cls-1" d="M0,98.65c-.15-18.64,3.95-36,13.54-51.89C24.76,28.19,40.46,14.76,60.6,6.73,76.63,.33,93.27-1.43,110.35,1.13c20.33,3.04,37.9,11.81,52.51,26.14,15.77,15.47,25.36,34.23,28.02,56.31,.59,4.85,.94,9.67,.6,14.62-.71,10.37-8.3,17.35-16.81,20.19-3.23,1.08-6.55,1.21-10.02,1.18-12.65-.1-25.33-.85-37.94,.32-10.76,1-18.07,12.59-15.05,23.02,1.42,4.88,3.49,9.5,5.52,14.15,4.45,10.16,3.54,21.09-4.78,29.26-3.7,3.64-8.2,5.42-13.27,5.48-24.29,.32-46.18-6.69-64.81-22.47C15.33,153.23,4,132.75,.91,107.91c-.39-3.14-.62-6.29-.9-9.26Zm146.32,2.79c6.99,0,12.65,0,18.32,0,2.09,0,4.15-.15,6.11-.99,1.55-.67,2.48-1.68,2.74-3.5,.63-4.43,0-8.78-.67-13.11-3.08-20.13-12.59-36.73-28.49-49.35-15.37-12.2-33.09-17.76-52.78-16.65-19.88,1.13-37.06,8.64-50.91,22.84-18.05,18.5-25.17,40.9-21.63,66.51,2.04,14.75,7.89,27.92,17.7,39.23,16.03,18.49,36.54,27.09,60.77,27.4,2.56,.03,3.98-1.23,4.35-3.76,.19-1.26,.03-2.48-.45-3.67-1.21-3-2.32-6.05-3.64-9.01-5.16-11.57-6.96-23.29-1.26-35.18,5.77-12.04,15.42-18.85,28.71-20.38,7.47-.86,14.97-.16,21.13-.39Z"/>
      <path class="cls-1" d="M95.96,59.44c-6.9,.03-12.01-5.02-12.04-11.87-.02-6.36,5.53-12.23,11.93-11.95,6.52,.28,11.9,4.71,12.02,11.84,.12,6.84-5.02,11.95-11.91,11.98Z"/>
      <path class="cls-1" d="M59.8,71.43c-6.89-.06-12.01-5.21-11.84-12.05,.17-7.22,5.71-11.57,12.09-11.77,6.46-.2,11.93,5.67,11.86,12.01-.08,6.87-5.2,11.86-12.11,11.81Z"/>
      <path class="cls-1" d="M131.94,71.43c-6.9,.02-12.01-5.02-12.03-11.88-.02-6.36,5.54-12.23,11.93-11.94,6.53,.29,11.9,4.72,12.02,11.85,.12,6.84-5.03,11.95-11.92,11.98Z"/>
      <path class="cls-1" d="M47.91,107.42c-6.89,0-12.05-5.1-11.95-11.95,.1-7.07,5.4-11.82,11.98-11.8,6.65,.02,11.87,4.81,11.95,11.84,.08,6.85-5.09,11.92-11.98,11.91Z"/>
    </g>
  </g>
</svg>