<?xml version="1.0" encoding="UTF-8"?>
<svg id="_レイヤー_2" data-name="レイヤー 2" xmlns="http://www.w3.org/2000/svg" viewBox="0 0 510.72 511.27">
  <defs>
    <style>
      .cls-1 {
        fill: #fff;
      }
    </style>
  </defs>
  <g id="_レイヤー_1-2" data-name="レイヤー 1">
    <g>
      <path class="cls-1" d="M379.99,271.37c4.33,4.29,8.96,7.71,12.55,12.28,9.41,11.98,8.28,32.16-2.53,42.74-11.31,11.05-30.74,11.99-43.08,2.14-2.09-1.67-4.05-3.44-5.94-5.33-51.68-51.73-103.34-103.48-155.07-155.17-11.58-11.57-13.34-29.32-5.23-41.93,6.49-10.09,16.09-14.36,27.74-14.2,9.63,.13,17.7,4.03,24.12,11.27,1.93,2.18,3.92,4.31,5.84,6.51,.74,.84,1.3,1.14,2.11,.08,.55-.72,1.28-1.31,1.92-1.96,32.5-32.51,64.98-65.05,97.51-97.53,14.29-14.27,31.03-24.24,50.98-28.25,15.57-3.13,31.09-2.62,46.46,1.47,14.64,3.9,27.74,10.86,39.06,20.84,18.39,16.21,29.61,36.49,33.19,60.89,2.58,17.61,.66,34.73-5.82,51.25-3.88,9.91-9.64,18.79-16.44,26.96-3.3,3.97-6.91,7.66-10.56,11.32-31.58,31.55-63.13,63.13-94.69,94.7-.65,.65-1.35,1.23-2.1,1.91Z"/>
      <path class="cls-1" d="M175.67,202.7c11.11,10.88,22.22,21.77,33.34,32.66,3.63,3.55,7.2,7.17,10.94,10.61,1.37,1.26,1.31,1.86,0,3.15-19.79,19.43-39.53,38.91-59.25,58.41-3.83,3.79-7.55,7.71-11.38,11.62,.58,.43,1.34,.2,2.03,.2,26.97,.01,53.94,0,80.92,.05,1.65,0,2.76-.52,3.89-1.66,8.52-8.56,17.12-17.04,25.62-25.61,1.21-1.22,1.83-1.52,3.25-.11,14.1,13.93,28.26,27.8,42.49,41.6,1.52,1.48,1.41,2.16-.03,3.6-39.05,39.04-78.04,78.13-117.05,117.21-16.45,16.48-36.26,24.88-59.59,24.83-12.57-.03-25.14,.03-37.71-.04-2.25-.01-4.1,.5-6,1.79-11.96,8.16-23.93,16.31-36.05,24.22-7.79,5.08-16.39,7.29-25.69,5.34-19.06-4.01-28.65-22.3-24.42-39.13,1.17-4.65,3.17-8.9,5.85-12.88,7.96-11.8,15.86-23.64,23.83-35.43,.88-1.3,1.3-2.57,1.3-4.15-.03-13.91-.12-27.83,.07-41.74,.3-21.6,8.31-40.19,23.47-55.35,39.75-39.75,79.78-79.22,119.69-118.81,.12-.12,.26-.21,.47-.37Z"/>
    </g>
  </g>
</svg>