<?xml version="1.0" encoding="UTF-8"?>
<svg id="_レイヤー_2" data-name="レイヤー 2" xmlns="http://www.w3.org/2000/svg" xmlns:xlink="http://www.w3.org/1999/xlink" viewBox="0 0 500 500">
  <defs>
    <style>
      .cls-1 {
        fill: none;
      }

      .cls-2 {
        clip-path: url(#clippath);
      }

      .cls-3 {
        fill: #f6f7f7;
      }

      .cls-4 {
        fill: #ededed;
      }

      .cls-5 {
        fill: #fefefe;
      }

      .cls-6 {
        fill: #fdbfb6;
      }

      .cls-7 {
        fill: #fde0cb;
      }

      .cls-8 {
        fill: #fde1cc;
      }

      .cls-9 {
        fill: #6c2635;
      }

      .cls-10 {
        fill: #6c2a38;
      }

      .cls-11 {
        fill: #7dd2dc;
      }

      .cls-12 {
        fill: #d4d4d6;
      }

      .cls-13 {
        fill: #232323;
      }

      .cls-14 {
        fill: #080706;
      }

      .cls-15 {
        fill: #794b4e;
      }
    </style>
    <clipPath id="clippath">
      <rect class="cls-1" width="500" height="500"/>
    </clipPath>
  </defs>
  <g id="_レイヤー_1-2" data-name="レイヤー 1">
    <g class="cls-2">
      <g>
        <path class="cls-4" d="M364.16,499.8c-36.29,0-72.57,.02-108.86,.02-39.83,0-79.66-.01-119.5-.02,.37-2.76,.62-5.54,1.16-8.26,.33-1.64,.31-3.09-1.09-4.05-1.48-1.02-2.94-.44-4.39,.47-5.08,3.22-10.26,6.29-15.3,9.57-1.53,.99-2.27,.95-3.26-.66-2.76-4.49-5.7-8.86-8.58-13.28-15.02-23.09-30.04-46.18-45.11-69.24-.9-1.37-.86-1.9,.6-2.8,22.53-13.94,45.02-27.92,67.49-41.95,13.41-8.38,27.95-13.52,43.64-15.41,1.92-.23,3.85-.52,5.77,.39,5.19,2.44,10.53,4.51,15.97,6.33,.99,.33,1.58,.87,2.03,1.88,6.54,14.66,16.63,26.06,31.02,33.45,10.87,5.58,22.4,7.67,34.34,4.95,21.47-4.89,35.83-18.5,45-38.05,.57-1.21,1.21-1.91,2.45-2.32,4.86-1.63,9.68-3.4,14.29-5.63,2.3-1.11,4.58-1.39,7.01-1.01,2.9,.45,5.81,.88,8.69,1.46,13.62,2.73,26.01,8.33,37.74,15.72,21.52,13.56,43.19,26.88,64.85,40.23,1.5,.92,1.46,1.49,.57,2.81-3.21,4.73-6.29,9.55-9.41,14.34-14.73,22.65-29.48,45.3-44.16,67.98-1.02,1.57-1.65,1.98-3.39,.83-5.14-3.4-10.44-6.57-15.67-9.83-1.31-.82-2.71-1.1-4.03-.21-1.26,.85-1.41,2.14-1.16,3.62,.5,2.89,.85,5.8,1.26,8.7Z"/>
        <path class="cls-13" d="M364.16,499.8c-.41-2.9-.77-5.81-1.26-8.7-.25-1.47-.1-2.77,1.16-3.62,1.32-.89,2.72-.61,4.03,.21,5.23,3.26,10.53,6.43,15.67,9.83,1.74,1.15,2.37,.74,3.39-.83,14.68-22.69,29.42-45.33,44.16-67.98,3.12-4.79,6.2-9.61,9.41-14.34,.89-1.32,.93-1.89-.57-2.81-21.65-13.35-43.32-26.67-64.85-40.23-11.73-7.39-24.12-12.99-37.74-15.72-2.88-.58-5.79-1-8.69-1.46-2.43-.38-4.71-.1-7.01,1.01-4.61,2.23-9.43,4.01-14.29,5.63-1.24,.42-1.88,1.11-2.45,2.32-9.17,19.55-23.54,33.16-45,38.05-11.95,2.72-23.47,.64-34.34-4.95-14.39-7.39-24.48-18.79-31.02-33.45-.45-1-1.03-1.54-2.03-1.88-5.44-1.82-10.78-3.89-15.97-6.33-1.93-.91-3.86-.62-5.77-.39-15.69,1.89-30.22,7.03-43.64,15.41-22.47,14.03-44.96,28.01-67.49,41.95-1.46,.9-1.5,1.43-.6,2.8,15.07,23.06,30.08,46.15,45.11,69.24,2.87,4.42,5.82,8.79,8.58,13.28,.99,1.61,1.73,1.66,3.26,.66,5.05-3.28,10.22-6.34,15.3-9.57,1.45-.92,2.9-1.49,4.39-.47,1.4,.96,1.42,2.41,1.09,4.05-.55,2.72-.79,5.5-1.16,8.26-1.43,0-2.87-.09-4.29,.05-1.62,.16-2.21-.33-1.68-1.95,.14-.41,.1-.89,.15-1.45-.28,.05-.5,.02-.62,.12-3.54,3.06-7.71,3.74-12.2,3.27-1.12-.12-2.27-.13-3.39,0-4.17,.51-7.71-.09-9.32-4.68-.36-1.02-1.09-1.12-1.9-.38-.05,.05-.14,.07-.19,.12-5.31,5.4-11.99,5.46-18.84,4.82,5.01-3.46,9.99-6.96,15.07-10.33,1.29-.85,1.23-1.42,.47-2.59-11.93-18.23-23.83-36.48-35.67-54.77-.86-1.33-1.43-1.21-2.53-.45-7.38,5.07-14.79,10.11-22.21,15.13-14.13,9.58-18.88,26.35-13.34,41.32,1.64,4.43,4.57,8.03,7.31,11.77-1.43,0-2.9-.18-4.3,.05-3.21,.51-4.92-.84-6.54-3.63-9.98-17.26-6.06-39.59,9.63-52.35,7.9-6.43,16.67-11.67,25.11-17.36,1.96-1.32,2.02-2.18,.71-3.94-1.85-2.47-3.42-5.15-5.1-7.74-2.21-3.4-1.94-4.67,1.45-6.78,11.72-7.28,23.41-14.61,35.17-21.82,13.75-8.44,27.22-17.33,41.26-25.3,10.44-5.93,21.62-9.92,33.48-11.95,.19-.03,.36-.17,.56-.26-.21-.76-.88-.83-1.35-1.12-15.89-9.68-32.08-18.91-46.19-31.21-1.06-.92-1.67-.45-2.49,.09-6.65,4.28-13.32,8.54-19.94,12.86-1.7,1.11-3.37,1.83-5.19,.48-1.83-1.36-1.6-3.18-.98-5.11,2.9-8.94,5.75-17.9,8.61-26.86,.65-2.03-.17-4.04-2.04-5.03-.2-.11-.43-.15-.63-.26-4.32-2.47-8.71-2.87-13.27-.61-.93,.46-2.02,.6-3.01,.96-1.69,.61-3.09,.22-4.29-1.07-1.23-1.32-.94-2.73-.29-4.19,.7-1.56,2.49-3.11,2.01-4.58-.47-1.4-2.46-2.28-3.73-3.44-8.11-7.37-13.02-16.46-14.69-27.3-1.36-8.82-.76-17.43,2.82-25.71,.99-2.3,2.32-4.39,3.82-6.38,.13-.2,.5-.39,.19-.65-.31-.28-.44,.1-.61,.28-.25,.16-.51,.31-.75,.49-2.89,2.09-5.82,.92-6.22-2.61-.82-7.22-.76-14.45,.08-21.68,3.13-27.14,14.66-50.99,29.02-73.71,5.12-8.09,10.55-16,16.93-23.17,5.59-6.29,10.23-13.36,16.65-19.38-4.18-.79-8.01-.71-11.8-1.03-3.01-.26-6-.62-8.96-1.14-1.82-.32-3.6-.82-4.02-3.03-.41-2.11,.8-3.35,2.36-4.47,5.84-4.23,12.37-7.15,18.97-9.91,15.32-6.4,31.26-10.91,47.34-14.86,9.06-2.22,17.33-6.42,26.12-9.28,21.45-6.98,43.43-9.93,65.92-9.54,.29,0,.57-.05,.97-.09-2.03-6.97-4.63-13.61-7.31-20.23-.72-1.76-1.29-3.42,.16-5.05,1.46-1.64,3.21-1.25,5-.7,12.3,3.8,23.22,10.29,33.89,17.27,2.08,1.36,3.94,3.47,6.2,4.03,2.18,.54,4.48-1.3,6.72-2.09,10.4-3.64,20.94-6.69,31.89-8.12,2.69-.35,5.41-.46,8.12-.62,1.6-.1,3.05,.32,3.84,1.85,.83,1.58,.4,3.04-.64,4.41-5.42,7.15-10.51,14.52-15.14,22.22-.84,1.4-.89,1.97,.79,2.77,14.05,6.66,27.29,14.71,40.09,23.52,3.3,2.27,7.14,3.52,10.73,5.23,15.26,7.27,30.08,15.26,43.67,25.39,2.97,2.21,5.7,4.7,8.47,7.15,1.53,1.35,2.19,2.89,1.25,4.8-.87,1.77-2.55,2.29-4.89,1.52-7.22-2.38-14.38-4.91-21.74-6.83-1.66-.43-3.33-.81-5.39-1.3,4.74,7.2,8.88,14.26,12.47,21.64,8.54,17.53,13.99,36.01,17.07,55.22,.43,2.7,1.09,5.24,2.3,7.72,4.72,9.68,8.99,19.54,11.52,30.07,.46,1.9,.23,3.5-1.45,4.57-1.82,1.15-3.43,.45-4.9-.89-.62-.56-1.05-1.47-2.67-1.49,1.69,2.29,3.17,4.29,4.44,6.42,.42,.71,1.25,.07,1.87-.1,2.67-.72,3.93-.08,4.85,2.55,.3,.85,.57,1.72,.85,2.58,1.07,3.31,.58,4.41-2.76,5.63-1.09,.4-1.38,.91-1.11,1.99,.22,.87,.3,1.79,.33,2.69,.06,2.09-.22,3.99,3.03,4.16,2.36,.12,2.76,2.51,1.87,7.86-.34,2.04-1.61,3.26-3.58,2.93-2.07-.34-2.48,.51-2.92,2.24-2.06,8.16-6.26,15.14-12.34,20.94-1.18,1.13-1.27,1.83-.26,3.12,1.59,2.04,1.25,3.65-.78,5.22-.66,.51-1.34,.98-2.01,1.46-3.3,2.39-4.04,2.33-6.69-.86-.62-.74-1.02-.79-1.85-.36-2.46,1.3-4.95,2.56-7.5,3.67-1.19,.52-1.19,1.48-1.32,2.39-1.12,7.43-1.09,14.88-.35,22.34,.58,5.79,1.7,11.47,3.08,17.11,.77,3.16-1.48,5.25-4.65,4.46-4.82-1.21-8.83-3.74-12.42-7.72-.51,2.82-.89,5.28-1.4,7.72-2.13,10.12-5.3,19.92-9.47,29.38-.87,1.96-.75,2.85,1.18,4.04,20.29,12.48,40.52,25.07,60.76,37.64,3.48,2.16,3.76,3.34,1.57,6.7-1.77,2.72-3.42,5.52-5.36,8.11-1.32,1.75-.81,2.5,.8,3.59,8.01,5.38,16.17,10.57,23.86,16.39,17.52,13.25,21.61,36.83,9.97,55.19-.86,1.36-1.75,2.04-3.41,1.91-2.1-.16-4.22-.05-6.34-.06,0-.52,.43-.76,.72-1.08,5.13-5.82,8.27-12.55,8.72-20.31,.74-12.72-3.89-23.16-14.24-30.69-7.78-5.66-15.9-10.86-23.79-16.37-1.43-1-1.72-.11-2.29,.76-11.86,18.25-23.72,36.51-35.63,54.73-.81,1.24-.68,1.74,.54,2.55,5.07,3.37,10.05,6.87,15.06,10.32-3.54,.03-7.08,.05-10.63,.11-.73,.01-1.31-.23-1.88-.63-.8-.57-1.6-1.12-2.42-1.67-1.69-1.12-3.43-3.15-5.07-3.08-1.59,.07-2.28,2.88-3.37,4.47-.5,.72-1.06,.91-1.88,.9-4.75-.03-9.5-.03-14.25,0-.8,0-1.44-.27-2.09-.68-1.52-.96-3.06-1.89-4.62-2.84-.1,.22-.21,.34-.2,.45q.24,3.05-2.92,3.05c-.98,0-1.96-.02-2.94-.02Zm29.82-192.8c1.05,7.72,2.67,15.18,9.73,20.36-.91-6.33-2.18-12.35-2-18.51,.12-4.42-.47-8.87,.41-13.27,.23-1.17-.03-1.94-1.55-1.37-1.26,.46-2.6,.71-3.91,1.05-.7-.1-1.08,.41-1.54,.79-4.39,3.69-6.24,3.18-7.84-2.16-.06-.22-.13-.43-.2-.64-.71-6.2-1.87-12.32-3.08-18.44-1.1-6.16-2.2-12.32-3.41-19.09-1.31,2.54-2.25,4.49-3.3,6.37-3.87,6.95-8.95,13-14.15,18.97-1.13,1.1-2.22,2.23-3.39,3.28-1.11,.99-2.36,1.64-3.91,1-1.59-.67-2.17-1.98-2.24-3.6-.08-1.87-.16-3.75-.24-5.62,.21-6.57-.75-13.05-1.37-19.57-.43-4.56-2.52-7.74-6.01-10.3-1.27-.94-2.52-1.94-3.88-2.72-4.37-2.5-9.01-4.2-14.26-4.68,.43,1.1,1.27,1.19,1.86,1.59,7.82,5.23,12.07,12.42,12.14,21.94,.05,5.96-2.09,11.16-5.45,15.96-2.68,2.82-5.62,5.3-9.05,7.17-4.84,1.8-9.71,2.79-14.98,2.08-11.44-1.54-21.18-12.16-21.7-23.71-.3-6.73,1.81-12.54,5.63-17.9,.12-.17,.37-.42,.33-.48-.27-.39-.47-.05-.68,.12-4.32,2.68-7.57,6.37-10.2,10.67-1.19,1.94-2.93,2.61-4.48,1.72-1.64-.94-1.98-2.64-.82-4.7,2.13-3.78,4.93-7.02,8.19-9.85,7.35-6.37,15.94-9.78,25.56-10.85,11.89-1.32,23.11,.34,33.29,7.03,.25,.17,.53,.25,.97-.21-2.79-11.84-7.24-23.23-12.48-34.33,1.07-.29,2.14-.6,3.22-.85,1.1-.25,1.43-.96,1.3-1.98-.13-1.06-.89-1.31-1.78-1.24-1.47,.12-2.94,.31-4.41,.46-1.77-3.15-3.51-6.32-5.32-9.44-4.46-7.7-9.28-15.14-14.98-22-.82,.48-.87,1.3-1.14,1.97-5.42,13.09-10.73,26.22-17.05,38.91-9.43,18.94-20.65,36.63-35.76,51.63-9.34,9.27-19.88,16.84-31.76,22.53-1.4,.67-2.8,.77-4.05-.22-1.23-.97-1.54-2.31-1.29-3.86,.77-4.76,1.53-9.52,2.21-14.29,2.97-20.7,4.65-41.5,4.31-62.43-.04-2.22-.2-4.43-.33-7.15-.84,1.07-1.33,1.7-1.83,2.33-6.03,7.75-12.51,15.07-19.98,21.47-2.21-.79-4.07-2.16-5.88-3.6,1.39-2.12,3.6-3.39,5.37-5.13,8.24-8.11,15.59-16.95,21.66-26.8,1.09-1.76,2.46-2.36,4.34-2,1.62,.32,1.96,1.65,2.21,3.05,.83,4.67,1.09,9.41,1.19,14.11,.16,7.52,.16,15.05-.22,22.6-.45,8.85-1,17.68-1.89,26.5-.8,7.98-1.73,15.93-3.14,23.83-.12,.66-.35,1.52,.18,1.94,.61,.48,1.25-.23,1.81-.54,6.82-3.77,12.9-8.57,18.64-13.78,15.39-13.97,26.63-31.01,36.15-49.27,8.22-15.78,14.67-32.35,21.53-48.73,1.56-3.73,3.89-4.32,6.62-1.35,6.25,6.77,11.48,14.31,16.3,22.14,10.25,16.64,17.92,34.37,22.89,53.29,1.46,5.57,1.66,11.46,4.3,16.73,.22,.43,.26,1.08,.11,1.55-.75,2.46-.37,4.95,.05,7.35,.6,3.42-.08,6.98,1.15,10.68,1.96-2.48,3.82-4.64,5.47-6.95,5.5-7.71,10.52-15.61,10.61-25.6,.03-2.76,1.77-4.02,4.29-3.69,1.81,.24,2.43,1.62,2.9,3.08,1.62,5.09,2.43,10.35,3.4,15.58,1.46,7.8,2.84,15.62,4.31,23.42,.53,2.8,.93,5.65,1.95,8.64,3.56-4.08,6.69-7.98,9.53-12.14,5.34-7.83,8.7-16.5,11.11-25.54,3.06-11.48,4.9-23.14,4.17-35.1-.34-5.48,.02-10.98-.39-16.48-.52-6.97-1.28-13.91-2.5-20.77-3.29-18.48-9.14-36.11-18.03-52.71-5.86-10.95-12.95-21.03-21.22-30.24-7.15-7.97-15.1-15.16-23.78-21.46-13.02-9.44-27.26-16.58-42.43-21.84-9.81-3.4-19.88-5.82-30.16-7.44-10.04-1.58-20.13-2.36-30.28-2.6-3.47-.08-6.92,.39-10.37,.39-4.68,0-9.32,.55-13.93,1.09-9.02,1.06-17.93,2.8-26.7,5.29-12.53,3.56-24.6,8.26-35.88,14.71-16.08,9.19-30.25,20.73-42.16,35.04-10.06,12.09-18.12,25.34-24.22,39.79-4.84,11.46-8.41,23.33-10.7,35.58-1.56,8.35-2.65,16.73-2.98,25.24-.18,4.59-.1,9.14,0,13.72,.16,7.53,.69,14.98,1.88,22.41,2.13,13.32,5.51,26.29,10.62,38.79,1.14,2.78,2.6,5.43,4.08,8.49,2.84-8.82,6.63-16.68,10.69-24.4,3.37-6.4,7.32-12.46,11.9-18.08,2.46-3.02,5.18-2.61,6.76,.94,1.23,2.76,2.14,5.63,2.6,8.6,.6,3.88,1.05,7.78,1.59,11.78,2.35-1.05,4.54-2.04,6.74-3.02,.68-.3,1.03-.64,.82-1.53-.41-1.7,.26-3.22,1.04-4.74,2.22-4.32,5.45-7.82,9.2-10.74,8.02-6.24,17.32-8.89,27.4-8.7,3.3,.06,6.09-.49,8.66-2.75,3.83-3.37,8.17-6.13,11.61-9.96,2.06,1.25,4.24,2.35,5.92,4.15-3.48,3.7-7.81,6.42-11.77,10.02,1.14,.34,1.92,.56,2.69,.8,10.31,3.24,18.51,9.26,24.17,18.55,1.33,2.19,1.01,3.92-.69,4.9-1.59,.92-3.27,.2-4.59-1.91-2.63-4.2-5.84-7.84-10.1-10.47-.21-.16-.41-.51-.68-.12-.04,.06,.21,.32,.33,.48,3.33,4.78,5.6,9.88,5.65,15.88,.12,12.54-8.59,23.3-20.88,25.57-12.57,2.32-24.84-4.85-28.98-16.88-1.61-4.68-1.58-9.44-.89-14.26,.08-.08,.25-.21,.24-.23-.17-.24-.31-.17-.42,.06-.55,.23-1.12,.41-1.64,.7-8.15,4.57-16.56,8.61-25.15,12.28-3.02,1.29-5.04,.06-5.32-3.17-.16-1.88-.22-3.76-.38-5.64-.33-3.94-.65-7.89-1.92-12.09-6.28,8.87-11.24,18.02-14.89,27.87-.98,2.06-1.88,4.14-2.2,6.43-1.19,1.38-1.12,3.22-1.78,4.8-.53,1.27-.27,2.35,.46,3.56,2.82,4.63,5.51,9.34,8.21,14.04,2.69,4.69,5.21,5.41,10.03,2.81,.92,.99,1.85,1.98,2.75,2.99,6.52,7.29,13.8,13.73,21.74,19.4,20.12,14.37,42.3,24.23,66.3,30.04,12.33,2.99,24.83,4.84,37.53,4.58,13.37-.28,26.46-2.65,39.34-6.21,20.36-5.62,39.46-14,56.92-26,13.68-9.4,25.51-20.69,35.22-34.18,1.97,.63,2.29,2.6,3.1,4.07,1.62,2.96,3.89,4.61,7.3,4.61ZM105,106.76c-.53,.53-1.14,.99-1.59,1.58-4.4,5.82-8.66,11.75-12.57,17.91-7.93,12.48-14.89,25.47-20.1,39.33-3.73,9.92-6.48,20.11-7.79,30.66-.57,4.62-.51,9.24-.44,14.23,2.49-1.86,4.64-3.57,6.64-5.47,1.09-1.04,2.31-1.7,3.88-.98,1.54,.7,2.3,1.82,2.16,3.57-.09,1.1-.02,2.22-.02,3.34,.46-.53,.47-1.05,.46-1.56-.31-12.21,.83-24.3,3.15-36.29,3.17-16.4,8-32.22,15.55-47.18,3.29-6.53,7.18-12.7,10.78-19.03,.19-.2,.37-.4,.56-.6-.09-.06-.18-.13-.27-.19-.13,.23-.26,.46-.4,.69Zm283.12,209.57c-.6-3.16-1.58-6.26-1.42-9.91-1.6,1.75-2.88,3.03-4.01,4.42-7.34,9.07-15.84,16.9-25.18,23.87-4.05,3.02-8.25,5.81-12.51,8.5-.74,.47-1.72,.92-.78,2.08,1.21,1.48,1.79,3.3,2.59,4.99,.32,.69,.62,1.26,1.5,1.51,9.7,2.78,18.71,7.12,27.31,12.34,1.21,.73,1.61,.75,2.24-.68,2.77-6.36,5.03-12.9,6.9-19.56,1.68-6,3-12.08,3.36-18.33,.75-3.08,.78-6.15,0-9.23ZM189.31,43.91c7.51-2.15,15.01-4.26,22.7-5.76,9.53-1.85,19.16-2.88,28.83-3.22,6.84-.24,13.69-.23,20.56,.26,8.18,.59,16.31,1.46,24.35,2.94,20.52,3.8,39.91,10.76,57.93,21.36,18,10.58,33.4,24.13,46.05,40.74,13.63,17.89,23.08,37.85,28.94,59.54,3.02,11.18,4.93,22.57,6.06,34.08,.52,5.3,.64,10.65,.97,15.97,.05,.74-.41,1.7,.77,2.21,.21-1.56,.14-3.03,.02-4.53-.19-2.6,1.83-4.25,4.35-3.77,1.03,.2,1.37,1.36,2.37,1.52,.35-.51,.02-.89-.14-1.29-2.35-5.87-4.84-11.68-7.74-17.3-.38-.73-.83-1.49-.94-2.28-1.29-9.05-3.01-18.01-5.47-26.82-4.53-16.25-10.98-31.67-19.93-46.01-2.47-3.96-5.02-7.86-7.86-11.57-2.05-2.68-.8-5.88,2.4-6.21,1.63-.17,3.3-.18,4.95,.15,4.27,.87,8.55,1.62,12.76,2.82-.18-.35-.39-.55-.64-.71-11.54-7.44-23.63-13.86-36.08-19.63-3.2-1.48-6.56-2.69-9.47-4.74-13.59-9.55-27.84-17.93-42.99-24.76-3.77-1.7-4.42-3.14-2.41-6.8,3.07-5.61,6.39-11.08,10.06-16.33,1.15-1.64,2.41-3.2,3.45-5.25-4.72,.91-9.24,1.44-13.66,2.6-7.86,2.07-15.57,4.56-23.14,7.52-2.5,.98-4.59,1-6.94-.66-7.14-5.02-14.47-9.77-22.17-13.91-3.15-1.69-6.38-3.25-10.28-4.58,.48,1.32,.8,2.21,1.12,3.1,1.82,5.09,3.68,10.17,5.06,15.41,1.13,4.31-.07,5.83-4.55,5.95-.68-.68-1.55-.45-2.34-.45-4.04-.02-8.08,0-12.12,.02-.65,0-1.37-.17-1.89,.42-1.88,.02-3.77-.11-5.63,.08-7.05,.69-14.1,1.36-21.08,2.6-8.92,1.59-17.69,3.7-26.2,6.82-.95,.05-1.85,.22-2.72,1.03,.43,.1,.67,.24,.84,.18,.63-.21,1.25-.48,1.87-.73Zm108.08,320.3c-31.7,10.05-63.28,9.97-95.32-.46,.56,1.17,.73,1.58,.94,1.97,5.36,9.94,12.92,17.8,22.7,23.4,8.82,5.05,18.27,7.88,28.58,6.69,12.31-1.42,22.63-6.97,31.51-15.43,4.84-4.61,8.66-9.97,11.59-16.17Zm-204.93-79.77c-1.78-4.21-3.55-7.96-4.97-11.85-6.13-16.78-10.08-34.06-11.34-51.91-.14-1.94-.72-1.7-1.95-.94-3.85,2.37-6.69,5.64-8.48,9.74-3.59,8.2-3.64,16.7-1.61,25.25,3.63,15.22,14.41,23.71,28.34,29.71Zm333.18-64.72c-.95,23.58-6.06,45.57-20.18,65.36,3.11-1.02,5.4-2.26,7.78-3.32,1.69-.76,2.12-1.35,.8-2.98-1.71-2.1-1.34-3.71,.84-5.37,.66-.5,1.34-.98,2.01-1.47,3.1-2.26,4.32-2.16,6.51,.89,.95,1.32,1.44,.96,2.35,.05,4.45-4.47,7.57-9.72,9.46-15.71,.85-2.69,.83-2.7-1.88-3.08-2.68-.37-3.65-1.6-3.41-4.29,.07-.75,.19-1.5,.26-2.25,.34-4,1.11-4.66,5.07-4.48,.61,.03,1.6,.51,1.78-.33,.29-1.31,.21-2.77-.41-3.98-.4-.78-1.23-.07-1.81,.13-1.61,.57-3.34,.84-4.32-.71-1.36-2.15-2.43-4.6-2.16-7.21,.25-2.48,2.72-2.47,4.44-3.24,.12-.05,.21-.19,.36-.33-1.86-3.02-4.07-5.68-7.48-7.68ZM129.11,79.35c13.05-12.15,27.33-21.61,43.31-28.76-.71-.48-1.13-.33-1.56-.21-13.54,3.65-27.16,7.02-40.42,11.64-6.96,2.43-13.86,4.97-20.51,8.17-.5,.24-1.3,.4-1.14,1.19,.17,.83,.96,.59,1.51,.56,2.57-.12,5.09,.4,7.62,.59,2.73,.21,5.53,.21,8.21,1.11,2.94,.99,3.72,2.2,2.97,5.71Zm186.48,205.24c7.35,0,13.68-2.76,18.08-7.46,.78-.83,.87-1.37,.14-2.24-1.5-1.79-2.93-3.64-4.34-5.51-.6-.79-.96-.74-1.73-.09-6.85,5.81-16.22,5.87-22.92,.08-1.08-.94-1.42-.51-2.03,.29-1.33,1.74-2.64,3.49-4.07,5.14-.84,.97-.69,1.55,.17,2.41,4.83,4.78,10.52,7.46,16.69,7.37Zm-132.45,0c7.32-.01,13.46-2.68,17.99-7.44,.76-.8,.97-1.33,.19-2.24-1.47-1.71-2.87-3.5-4.2-5.32-.72-.99-1.12-.94-2.05-.13-6.54,5.65-16.25,5.61-22.76-.09-.84-.74-1.23-.78-1.89,.1-1.35,1.81-2.74,3.6-4.2,5.32-.79,.93-.75,1.54,.14,2.42,4.83,4.79,10.51,7.47,16.79,7.38Zm117.97-29.39c-.06,4.25,3.2,7.68,7.41,7.79,4.12,.11,7.68-3.32,7.78-7.48,.1-4.14-3.31-7.7-7.47-7.79-4.18-.09-7.66,3.28-7.72,7.49Zm-102.27,.19c.01-4.24-3.34-7.65-7.53-7.67-4.14-.02-7.64,3.45-7.65,7.61-.01,4.16,3.45,7.67,7.59,7.68,4.19,.01,7.59-3.39,7.6-7.61Zm-101.58,63.51c5.75-3.71,11.01-7.12,16.28-10.51,.55-.35,.73-.79,.37-1.31-2.47-3.58-4.91-7.19-7.47-10.7-.92-1.27-1.81-.77-2.24,.56-2.26,7.12-4.5,14.24-6.95,21.97Zm50.07-65.07c5.42-1.87,23.05-12.54,25.25-15.2-10.39,1.56-19.09,5.72-25.25,15.2ZM185.65,44.98c-2.11,.09-3.87,1.07-5.66,2.01,2.08-.12,3.84-1.17,5.66-2.01Zm247.87,170.91c.16,1.6,1.12,2.06,2.16,2.44-.23-1.18-1.05-1.78-2.16-2.44Zm-84.97,24.17s-.09-.05-.13-.07c0,.09,0,.18-.01,.27,.05-.02,.1-.03,.13-.07,.02-.03,0-.09,.01-.13Z"/>
        <path class="cls-8" d="M416.44,499.72c-5.01-3.45-9.99-6.95-15.06-10.32-1.22-.81-1.35-1.31-.54-2.55,11.91-18.22,23.76-36.48,35.63-54.73,.57-.87,.86-1.76,2.29-.76,7.89,5.51,16.01,10.71,23.79,16.37,10.35,7.53,14.99,17.97,14.24,30.69-.45,7.76-3.59,14.49-8.72,20.31-.29,.32-.73,.56-.72,1.08-16.37,0-32.74,.01-49.11,.01-.6,0-1.2-.06-1.81-.09Z"/>
        <path class="cls-8" d="M32.62,499.81c-2.73-3.74-5.67-7.34-7.31-11.77-5.54-14.97-.79-31.75,13.34-41.32,7.41-5.03,14.82-10.06,22.21-15.13,1.11-.76,1.68-.88,2.53,.45,11.84,18.29,23.74,36.54,35.67,54.77,.77,1.17,.82,1.73-.47,2.59-5.08,3.36-10.05,6.87-15.07,10.33-10.11,.03-20.21,.07-30.31,.09-6.86,.01-13.73,0-20.59,0Z"/>
        <path class="cls-9" d="M198.34,219.57c-3.43,3.83-7.78,6.6-11.61,9.96-2.58,2.27-5.36,2.81-8.66,2.75-10.08-.19-19.38,2.46-27.4,8.7-3.75,2.92-6.98,6.42-9.2,10.74-.78,1.52-1.44,3.04-1.04,4.74,.21,.89-.14,1.23-.82,1.53-2.19,.98-4.38,1.96-6.74,3.02-.53-4.01-.98-7.91-1.59-11.78-.46-2.98-1.37-5.85-2.6-8.6-1.59-3.56-4.3-3.96-6.76-.94-4.58,5.62-8.53,11.68-11.9,18.08-4.07,7.72-7.86,15.58-10.69,24.4-1.48-3.06-2.94-5.71-4.08-8.49-5.12-12.49-8.49-25.47-10.62-38.79-1.19-7.43-1.71-14.89-1.88-22.41-.1-4.58-.17-9.13,0-13.72,.33-8.51,1.42-16.89,2.98-25.24,2.29-12.24,5.87-24.11,10.7-35.58,6.1-14.45,14.16-27.7,24.22-39.79,11.91-14.31,26.09-25.85,42.16-35.04,11.28-6.45,23.36-11.15,35.88-14.71,8.77-2.49,17.68-4.22,26.7-5.29,4.61-.54,9.25-1.09,13.93-1.09,3.45,0,6.9-.47,10.37-.39,10.15,.24,20.23,1.01,30.28,2.6,10.28,1.62,20.34,4.04,30.16,7.44,15.17,5.25,29.41,12.4,42.43,21.84,8.69,6.3,16.63,13.49,23.78,21.46,8.26,9.21,15.35,19.29,21.22,30.24,8.89,16.6,14.74,34.23,18.03,52.71,1.22,6.86,1.98,13.8,2.5,20.77,.41,5.51,.06,11,.39,16.48,.73,11.96-1.11,23.63-4.17,35.1-2.41,9.04-5.77,17.71-11.11,25.54-2.84,4.17-5.97,8.07-9.53,12.14-1.01-2.99-1.42-5.83-1.95-8.64-1.46-7.8-2.85-15.62-4.31-23.42-.98-5.23-1.79-10.49-3.4-15.58-.47-1.47-1.09-2.85-2.9-3.08-2.53-.33-4.27,.94-4.29,3.69-.1,9.99-5.11,17.89-10.61,25.6-1.65,2.31-3.5,4.47-5.47,6.95-1.23-3.7-.55-7.26-1.15-10.68-.42-2.4-.8-4.88-.05-7.35,.14-.47,.1-1.12-.11-1.55-2.64-5.27-2.84-11.16-4.3-16.73-4.97-18.93-12.65-36.66-22.89-53.29-4.82-7.83-10.06-15.37-16.3-22.14-2.74-2.97-5.06-2.38-6.62,1.35-6.86,16.38-13.31,32.96-21.53,48.73-9.52,18.27-20.76,35.31-36.15,49.27-5.74,5.21-11.82,10.01-18.64,13.78-.56,.31-1.2,1.03-1.81,.54-.53-.42-.3-1.28-.18-1.94,1.41-7.9,2.34-15.85,3.14-23.83,.89-8.82,1.43-17.65,1.89-26.5,.38-7.54,.38-15.07,.22-22.6-.1-4.7-.36-9.44-1.19-14.11-.25-1.39-.59-2.73-2.21-3.05-1.88-.37-3.25,.24-4.34,2-6.08,9.85-13.42,18.69-21.66,26.8-1.76,1.74-3.97,3.01-5.37,5.13-.47-.22-.96-.41-1.4-.68-11.53-6.99-23.75-12.31-36.93-15.33-1.42-.33-3.2-.88-3.6,.99-.41,1.9,1.52,2.06,2.88,2.37,12.83,2.89,24.66,8.15,35.88,14.91Z"/>
        <path class="cls-7" d="M363.15,281.06c5.19-5.97,10.28-12.02,14.15-18.97,1.05-1.88,1.99-3.83,3.3-6.37,1.21,6.77,2.31,12.93,3.41,19.09-.36-.1-.72-.19-1.08-.31-3.17-1.05-5.54-.58-7.29,1.72-1.68,2.22-1.49,4.61-.12,6.95,1.33,2.26,2.76,4.48,3.94,6.81,1.35,2.65,3.51,4.88,4.14,7.91-.03,.15-.04,.29-.02,.44-9.7,13.49-21.53,24.77-35.22,34.18-17.46,12-36.56,20.38-56.92,26-12.87,3.56-25.97,5.93-39.34,6.21-12.7,.27-25.21-1.59-37.53-4.58-24-5.81-46.18-15.67-66.3-30.04-7.94-5.67-15.23-12.11-21.74-19.4-.9-1.01-1.83-1.99-2.75-2.99-.11-.24-.22-.48-.32-.71,2.06-1.21,2.75-3.56,1.46-6-1.64-3.12-3.36-6.22-5.28-9.17-3.45-5.3-5.53-11.53-10.58-15.76,3.65-9.85,8.61-18.99,14.89-27.87,1.27,4.2,1.59,8.15,1.92,12.09,.16,1.88,.21,3.76,.38,5.64,.28,3.23,2.3,4.46,5.32,3.17,8.59-3.67,17-7.71,25.15-12.28,.51-.29,1.09-.47,1.64-.7,.06,.06,.12,.11,.18,.17-.68,4.81-.72,9.57,.89,14.26,4.14,12.03,16.41,19.2,28.98,16.88,12.29-2.27,20.99-13.03,20.88-25.57-.06-6-2.33-11.1-5.65-15.88,.12-.12,.23-.24,.35-.37,4.26,2.63,7.47,6.28,10.1,10.47,1.32,2.11,3,2.83,4.59,1.91,1.69-.98,2.02-2.71,.69-4.9-5.66-9.29-13.86-15.31-24.17-18.55-.77-.24-1.55-.46-2.69-.8,3.96-3.6,8.29-6.32,11.77-10.02,.76-.2,1.21,.45,1.81,.68,.73,.29,1.31,.01,1.79-.52,.43-.48,.57-1.04,.24-1.64-.25-.44-.77-.73-.73-1.33,7.47-6.4,13.95-13.72,19.98-21.47,.49-.63,.99-1.26,1.83-2.33,.13,2.73,.29,4.94,.33,7.15,.34,20.93-1.34,41.73-4.31,62.43-.68,4.77-1.44,9.53-2.21,14.29-.25,1.55,.05,2.89,1.29,3.86,1.26,.99,2.65,.89,4.05,.22,11.88-5.69,22.42-13.26,31.76-22.53,15.11-15,26.33-32.69,35.76-51.63,6.32-12.69,11.63-25.82,17.05-38.91,.28-.67,.33-1.49,1.14-1.97,5.7,6.86,10.52,14.31,14.98,22,1.81,3.13,3.55,6.29,5.32,9.44-.36,.72-1.11,.7-1.73,.87-5.02,1.33-9.92,3.03-14.71,5.05-8.83,3.72-17.28,8.14-25.03,13.83-.88,.65-1.75,1.4-.83,2.6,.86,1.12,1.8,.7,2.76,.04,6.75-4.7,13.87-8.75,21.41-12.04,6.41-2.8,12.9-5.38,19.81-6.72,5.24,11.1,9.69,22.48,12.48,34.33-.44,.46-.72,.38-.97,.21-10.18-6.69-21.41-8.35-33.29-7.03-9.62,1.07-18.21,4.48-25.56,10.85-3.27,2.83-6.06,6.07-8.19,9.85-1.16,2.06-.82,3.76,.82,4.7,1.54,.88,3.29,.22,4.48-1.72,2.63-4.29,5.88-7.99,10.2-10.67,.12,.12,.23,.24,.35,.37-3.82,5.36-5.93,11.17-5.63,17.9,.52,11.54,10.26,22.17,21.7,23.71,5.27,.71,10.14-.28,14.98-2.08,.53,2.34,2.15,4.1,3.28,6.11,2.87,5.1,5.78,10.18,8.92,15.11,2.39,3.75,7.7,3.27,9.81-.63,1.49-2.75,.36-5.04-1.02-7.37-4-6.78-7.97-13.58-11.95-20.38,3.35-4.79,5.49-10,5.45-15.96-.07-9.52-4.32-16.71-12.14-21.94-.59-.4-1.43-.49-1.86-1.59,5.25,.48,9.89,2.18,14.26,4.68,1.37,.78,2.61,1.78,3.88,2.72,3.48,2.56,5.57,5.74,6.01,10.3,.62,6.52,1.58,12.99,1.37,19.57-2.8,1.12-4.1,4.61-2.49,7.45,4.07,7.18,8.24,14.31,12.5,21.38,1.9,3.16,5.34,3.88,8.17,2.02,2.84-1.86,3.4-5.34,1.54-8.51-3.37-5.77-6.64-11.6-9.95-17.4Zm-195.31,25.44c4.81,0,7.55-4.67,5.2-8.74-3.91-6.76-7.83-13.53-11.87-20.22-1.36-2.26-3.3-4.03-6.25-3.61-2.35,.33-3.95,1.75-4.77,3.99-.85,2.31,.12,4.26,1.24,6.18,3.67,6.3,7.32,12.61,11.04,18.88,1.23,2.07,2.76,3.82,5.41,3.52Zm-41.96-25.36c-.03,.82-.02,1.92,.59,2.97,4.05,6.85,8.03,13.74,12.13,20.57,.96,1.6,2.23,3.03,4.38,3.19,2.35,.18,4.39-.45,5.62-2.52,1.3-2.22,1.28-4.52-.09-6.82-2.08-3.48-3.95-7.09-6.1-10.52-2.3-3.68-3.99-7.77-6.92-11.04-1.57-1.76-4.11-2.21-6.19-1.35-2.42,.99-3.41,2.51-3.42,5.54Zm141.66,47.73c8.64,0,14.33-8.75,9.82-15.59-.34-.51-.42-1.07-.51-1.68-.24-1.73-1.36-2.37-2.89-1.56-6.66,3.55-13.87,4.94-21.29,5.33-9.82,.52-19.4-.54-28.31-5.16-1.19-.62-2.31-.94-3.09,.48-.78,1.43,.13,2.34,1.26,2.92,1.73,.89,3.51,1.72,5.34,2.39,8.21,3.02,16.75,3.56,25.39,3.16,1.26-.06,1.96,.11,2.47,1.5,1.98,5.45,6.18,7.89,11.8,8.2Zm-16.53-36.51c-.59-1.03,.66-3.2-.93-3.22-1.89-.02-.87,2.16-.93,3.33-.06,1.14-.77,3.29,.73,3.29,1.91,0,.56-2.19,1.13-3.41Z"/>
        <path class="cls-10" d="M258.6,33.93c4.49-.12,5.69-1.65,4.55-5.95-1.38-5.23-3.23-10.32-5.06-15.41-.32-.89-.64-1.78-1.12-3.1,3.9,1.33,7.12,2.89,10.28,4.58,7.7,4.14,15.03,8.89,22.17,13.91,2.35,1.65,4.44,1.63,6.94,.66,7.56-2.95,15.28-5.45,23.14-7.52,4.41-1.16,8.94-1.69,13.66-2.6-1.04,2.04-2.3,3.6-3.45,5.25-3.67,5.25-6.99,10.72-10.06,16.33-2,3.66-1.36,5.1,2.41,6.8,15.15,6.83,29.4,15.21,42.99,24.76,2.91,2.04,6.27,3.26,9.47,4.74,12.45,5.77,24.54,12.19,36.08,19.63,.25,.16,.46,.37,.64,.71-4.21-1.2-8.5-1.96-12.76-2.82-1.65-.34-3.33-.33-4.95-.15-3.2,.34-4.46,3.53-2.4,6.21,2.84,3.71,5.39,7.61,7.86,11.57,8.95,14.34,15.4,29.76,19.93,46.01,2.46,8.81,4.18,17.77,5.47,26.82,.11,.79,.56,1.55,.94,2.28,2.9,5.63,5.4,11.43,7.74,17.3,.16,.41,.5,.79,.14,1.29-1-.15-1.34-1.32-2.37-1.52-2.52-.48-4.55,1.17-4.35,3.77,.11,1.5,.18,2.97-.02,4.53-1.18-.51-.73-1.47-.77-2.21-.34-5.32-.45-10.67-.97-15.97-1.13-11.51-3.03-22.9-6.06-34.08-5.87-21.69-15.31-41.65-28.94-59.54-12.65-16.6-28.05-30.16-46.05-40.74-18.03-10.59-37.42-17.56-57.93-21.36-8.04-1.49-16.17-2.35-24.35-2.94-6.86-.49-13.72-.5-20.56-.26-9.67,.34-19.29,1.37-28.83,3.22-7.68,1.49-15.19,3.61-22.7,5.76,0-.16,.01-.32,.02-.48,8.51-3.12,17.28-5.23,26.2-6.82,6.99-1.25,14.04-1.91,21.08-2.6,1.86-.18,3.75-.06,5.63-.08,5.45,0,10.9,0,16.35,0Z"/>
        <path class="cls-7" d="M297.39,364.21c-2.93,6.2-6.75,11.56-11.59,16.17-8.88,8.46-19.2,14.02-31.51,15.43-10.31,1.19-19.76-1.64-28.58-6.69-9.78-5.6-17.34-13.46-22.7-23.4-.21-.39-.38-.8-.94-1.97,32.04,10.43,63.62,10.51,95.32,.46Z"/>
        <path class="cls-9" d="M388.11,325.57c-.35,6.25-1.67,12.34-3.36,18.33-1.87,6.66-4.12,13.2-6.9,19.56-.63,1.44-1.03,1.42-2.24,.68-8.6-5.22-17.61-9.56-27.31-12.34-.88-.25-1.17-.82-1.5-1.51-.8-1.7-1.38-3.51-2.59-4.99-.94-1.16,.04-1.61,.78-2.08,4.26-2.7,8.47-5.48,12.51-8.5,9.33-6.97,17.83-14.8,25.18-23.87,1.13-1.4,2.41-2.67,4.01-4.42-.16,3.66,.82,6.75,1.42,9.92,0,3.08,0,6.15,0,9.23Z"/>
        <path class="cls-7" d="M92.46,284.44c-13.92-6-24.71-14.5-28.34-29.71-2.04-8.54-1.98-17.05,1.61-25.25,1.79-4.09,4.63-7.37,8.48-9.74,1.23-.76,1.81-1,1.95,.94,1.25,17.85,5.2,35.13,11.34,51.91,1.42,3.88,3.19,7.64,4.97,11.85Z"/>
        <path class="cls-10" d="M105.11,106.86c-3.6,6.34-7.49,12.51-10.78,19.03-7.55,14.96-12.38,30.78-15.55,47.18-2.32,11.99-3.46,24.07-3.15,36.29,.01,.51,0,1.03-.46,1.56,0-1.11-.07-2.23,.02-3.34,.14-1.75-.62-2.87-2.16-3.57-1.57-.72-2.79-.05-3.88,.98-2,1.9-4.14,3.61-6.64,5.47-.06-4.99-.13-9.6,.44-14.23,1.31-10.55,4.07-20.75,7.79-30.66,5.21-13.86,12.17-26.85,20.1-39.33,3.91-6.16,8.17-12.09,12.57-17.91,.45-.59,1.05-1.06,1.59-1.58,0,0,.11,.1,.11,.1Z"/>
        <path class="cls-7" d="M425.64,219.72c3.41,2,5.62,4.66,7.48,7.68-.15,.15-.24,.28-.36,.33-1.72,.77-4.19,.76-4.44,3.24-.26,2.61,.8,5.06,2.16,7.21,.98,1.55,2.72,1.27,4.32,.71,.57-.2,1.41-.91,1.81-.13,.62,1.21,.7,2.67,.41,3.98-.19,.84-1.17,.36-1.78,.33-3.96-.18-4.73,.49-5.07,4.48-.06,.75-.19,1.5-.26,2.25-.25,2.69,.73,3.91,3.41,4.29,2.71,.38,2.73,.38,1.88,3.08-1.89,6-5.01,11.25-9.46,15.71-.91,.91-1.4,1.27-2.35-.05-2.2-3.05-3.41-3.15-6.51-.89-.67,.49-1.35,.96-2.01,1.47-2.17,1.66-2.55,3.27-.84,5.37,1.32,1.62,.89,2.22-.8,2.98-2.38,1.06-4.67,2.3-7.78,3.32,14.12-19.79,19.23-41.78,20.18-65.36Z"/>
        <path class="cls-10" d="M129.11,79.35c.75-3.51-.03-4.72-2.97-5.71-2.67-.9-5.48-.9-8.21-1.11-2.53-.2-5.06-.72-7.62-.59-.55,.03-1.34,.26-1.51-.56-.16-.79,.64-.95,1.14-1.19,6.65-3.2,13.55-5.74,20.51-8.17,13.26-4.63,26.88-8,40.42-11.64,.43-.12,.85-.26,1.56,.21-15.98,7.15-30.26,16.61-43.31,28.76Z"/>
        <path class="cls-11" d="M315.59,284.59c-6.17,.09-11.86-2.59-16.69-7.37-.87-.86-1.01-1.45-.17-2.41,1.43-1.65,2.75-3.4,4.07-5.14,.61-.8,.95-1.23,2.03-.29,6.69,5.79,16.07,5.73,22.92-.08,.77-.65,1.14-.69,1.73,.09,1.41,1.86,2.84,3.72,4.34,5.51,.73,.87,.64,1.41-.14,2.24-4.4,4.7-10.73,7.46-18.08,7.46Z"/>
        <path class="cls-11" d="M183.14,284.59c-6.28,.09-11.96-2.59-16.79-7.38-.89-.88-.93-1.49-.14-2.42,1.46-1.72,2.85-3.51,4.2-5.32,.66-.88,1.05-.83,1.89-.1,6.51,5.7,16.21,5.74,22.76,.09,.93-.8,1.33-.86,2.05,.13,1.33,1.83,2.73,3.61,4.2,5.32,.78,.91,.57,1.44-.19,2.24-4.53,4.76-10.67,7.43-17.99,7.44Z"/>
        <path class="cls-6" d="M336.42,278.32c3.98,6.79,7.94,13.6,11.95,20.38,1.38,2.33,2.51,4.62,1.02,7.37-2.12,3.91-7.43,4.38-9.81,.63-3.14-4.93-6.05-10.01-8.92-15.11-1.13-2.01-2.75-3.77-3.28-6.11,3.43-1.87,6.37-4.35,9.05-7.17Z"/>
        <path class="cls-6" d="M363.15,281.06c3.31,5.8,6.58,11.63,9.95,17.4,1.85,3.17,1.3,6.65-1.54,8.51-2.83,1.86-6.26,1.14-8.17-2.02-4.26-7.07-8.43-14.2-12.5-21.38-1.61-2.84-.3-6.33,2.49-7.45,.08,1.87,.16,3.75,.24,5.62,.07,1.62,.65,2.93,2.24,3.6,1.54,.65,2.8,0,3.91-1,1.17-1.05,2.27-2.19,3.39-3.28Z"/>
        <path class="cls-6" d="M109.07,276.06c5.04,4.23,7.12,10.46,10.58,15.76,1.92,2.95,3.64,6.05,5.28,9.17,1.28,2.44,.6,4.79-1.46,6-2.83-2.92-5.21-6.19-7.51-9.53-3.31-4.82-6.07-9.98-9.09-14.98,.32-2.28,1.22-4.37,2.2-6.43Z"/>
        <path class="cls-3" d="M301.11,255.2c.06-4.21,3.54-7.58,7.72-7.49,4.15,.09,7.56,3.65,7.47,7.79-.1,4.17-3.65,7.59-7.78,7.48-4.21-.11-7.47-3.54-7.41-7.79Z"/>
        <path class="cls-3" d="M198.85,255.39c-.01,4.22-3.4,7.62-7.6,7.61-4.14-.01-7.6-3.51-7.59-7.68,.01-4.15,3.51-7.63,7.65-7.61,4.19,.02,7.55,3.44,7.53,7.67Z"/>
        <path class="cls-14" d="M336.01,205.08c-6.91,1.34-13.4,3.92-19.81,6.72-7.54,3.29-14.66,7.35-21.41,12.04-.96,.66-1.9,1.08-2.76-.04-.92-1.2-.05-1.95,.83-2.6,7.75-5.69,16.2-10.11,25.03-13.83,4.78-2.01,9.68-3.71,14.71-5.05,.62-.17,1.37-.15,1.73-.87,1.47-.16,2.94-.35,4.41-.46,.89-.07,1.65,.18,1.78,1.24,.13,1.02-.2,1.73-1.3,1.98-1.08,.25-2.15,.56-3.22,.85Z"/>
        <path class="cls-14" d="M207.39,220.91c-.04,.6,.48,.89,.73,1.33,.33,.6,.19,1.16-.24,1.64-.48,.53-1.06,.8-1.79,.52-.6-.23-1.05-.88-1.81-.68-1.68-1.8-3.86-2.9-5.92-4.15-11.22-6.76-23.05-12.02-35.88-14.91-1.36-.31-3.3-.47-2.88-2.37,.41-1.87,2.18-1.32,3.6-.99,13.17,3.03,25.39,8.35,36.93,15.33,.44,.27,.93,.45,1.4,.68,1.81,1.45,3.66,2.82,5.88,3.6Z"/>
        <path class="cls-6" d="M383.61,297.88c-.63-3.02-2.79-5.25-4.14-7.91-1.19-2.34-2.62-4.55-3.94-6.81-1.37-2.34-1.57-4.73,.12-6.95,1.74-2.3,4.12-2.77,7.29-1.72,.35,.12,.72,.21,1.08,.31,1.21,6.12,2.37,12.24,3.08,18.44-1.43,1.34-1.97,3.35-3.48,4.64Z"/>
        <path class="cls-10" d="M97.27,318.89c2.44-7.73,4.68-14.85,6.95-21.97,.42-1.33,1.31-1.83,2.24-.56,2.56,3.51,5,7.12,7.47,10.7,.36,.52,.17,.96-.37,1.31-5.27,3.39-10.53,6.79-16.28,10.51Z"/>
        <path class="cls-10" d="M396.66,295.26c1.31-.34,2.65-.59,3.91-1.05,1.53-.56,1.79,.21,1.55,1.37-.88,4.41-.29,8.85-.41,13.27-.17,6.15,1.1,12.17,2,18.51-7.07-5.19-8.69-12.64-9.73-20.36,.28-.23,.54-.5,.85-.68,3.73-2.19,4.55-4.92,2.64-8.77-.36-.73-.8-1.43-.81-2.29Z"/>
        <path class="cls-15" d="M106.87,282.49c3.02,5,5.77,10.16,9.09,14.98,2.3,3.34,4.68,6.61,7.51,9.53,.11,.24,.22,.48,.32,.71-4.82,2.6-7.33,1.87-10.03-2.81-2.7-4.7-5.39-9.41-8.21-14.04-.74-1.21-.99-2.29-.46-3.56,.66-1.58,.59-3.42,1.78-4.8Z"/>
        <path class="cls-15" d="M396.66,295.26c0,.86,.44,1.56,.81,2.29,1.91,3.85,1.08,6.58-2.64,8.77-.31,.18-.57,.45-.85,.68-3.41,0-5.68-1.65-7.3-4.6-.81-1.47-1.13-3.44-3.1-4.07-.01-.15,0-.3,.02-.44,1.51-1.28,2.05-3.3,3.48-4.64,.07,.21,.13,.43,.2,.64,1.59,5.34,3.45,5.86,7.84,2.16,.45-.38,.84-.88,1.54-.79Z"/>
        <path class="cls-10" d="M147.34,253.83c6.16-9.48,14.86-13.64,25.25-15.2-2.21,2.66-19.83,13.33-25.25,15.2Z"/>
        <path class="cls-15" d="M258.6,33.93c-5.45,0-10.9,0-16.35,0,.53-.59,1.24-.42,1.89-.42,4.04-.02,8.08-.05,12.12-.02,.79,0,1.67-.23,2.34,.45Z"/>
        <path class="cls-15" d="M185.65,44.98c-1.82,.84-3.58,1.9-5.66,2.01,1.79-.94,3.55-1.93,5.66-2.01Z"/>
        <path class="cls-15" d="M388.11,325.57c0-3.08,0-6.15,0-9.23,.77,3.08,.74,6.15,0,9.23Z"/>
        <path class="cls-12" d="M433.52,215.88c1.12,.65,1.93,1.26,2.16,2.44-1.04-.38-2-.83-2.16-2.44Z"/>
        <path class="cls-15" d="M189.33,43.42c0,.16-.01,.32-.02,.48-.62,.25-1.23,.52-1.87,.73-.17,.06-.4-.08-.84-.18,.88-.81,1.78-.98,2.72-1.03Z"/>
        <path class="cls-10" d="M105,106.76c.13-.23,.26-.46,.4-.69,.09,.06,.18,.13,.27,.19-.19,.2-.37,.4-.55,.6,0,0-.11-.1-.11-.1Z"/>
        <path class="cls-7" d="M158.37,256.11c.11-.23,.25-.3,.42-.06,0,.01-.15,.15-.24,.23-.06-.06-.12-.11-.18-.17Z"/>
        <path class="cls-7" d="M295.97,245.6c.21-.16,.41-.51,.68-.12,.04,.06-.21,.32-.33,.48-.12-.12-.23-.24-.35-.37Z"/>
        <path class="cls-7" d="M203.64,245.97c-.12-.17-.37-.42-.33-.48,.27-.39,.47-.05,.68,.12-.12,.12-.23,.24-.35,.36Z"/>
        <path class="cls-7" d="M348.55,240.05s.01,.1-.01,.13c-.03,.03-.09,.04-.13,.07,0-.09,0-.18,.01-.27,.04,.02,.09,.05,.13,.07Z"/>
        <path class="cls-5" d="M62.79,219.86c.17-.17,.3-.55,.61-.28,.3,.27-.07,.45-.19,.65-.14-.13-.28-.25-.41-.38Z"/>
        <path class="cls-6" d="M167.85,306.5c-2.65,.31-4.19-1.45-5.41-3.52-3.71-6.27-7.36-12.58-11.04-18.88-1.12-1.92-2.09-3.87-1.24-6.18,.82-2.24,2.42-3.66,4.77-3.99,2.95-.42,4.89,1.35,6.25,3.61,4.03,6.69,7.95,13.46,11.87,20.22,2.35,4.06-.39,8.74-5.2,8.74Z"/>
        <path class="cls-6" d="M125.88,281.13c0-3.03,1-4.55,3.42-5.54,2.09-.85,4.62-.4,6.19,1.35,2.93,3.27,4.62,7.36,6.92,11.04,2.15,3.44,4.03,7.04,6.1,10.52,1.37,2.29,1.39,4.6,.09,6.82-1.22,2.08-3.26,2.7-5.62,2.52-2.15-.16-3.41-1.59-4.38-3.19-4.1-6.82-8.08-13.71-12.13-20.57-.62-1.04-.62-2.14-.59-2.97Z"/>
        <path class="cls-13" d="M267.55,328.87c-5.62-.31-9.83-2.75-11.8-8.2-.51-1.4-1.21-1.56-2.47-1.5-8.64,.4-17.18-.14-25.39-3.16-1.83-.67-3.61-1.51-5.34-2.39-1.13-.58-2.04-1.49-1.26-2.92,.78-1.43,1.9-1.1,3.09-.48,8.9,4.62,18.48,5.68,28.31,5.16,7.42-.39,14.63-1.78,21.29-5.33,1.52-.81,2.65-.17,2.89,1.56,.09,.61,.17,1.17,.51,1.68,4.5,6.83-1.18,15.59-9.82,15.59Zm-9.62-10.01c1.57,6.33,9.12,9.45,14.56,6.07,3.45-2.14,4.8-6.33,3.12-9.59-.41-.79-.72-1.35-1.86-.81-5,2.4-10.36,3.57-15.82,4.32Z"/>
        <path class="cls-13" d="M251.01,292.36c-.57,1.22,.78,3.41-1.13,3.41-1.5,0-.79-2.16-.73-3.29,.06-1.17-.96-3.35,.93-3.33,1.6,.01,.34,2.19,.93,3.22Z"/>
        <path class="cls-6" d="M257.93,318.86c5.46-.75,10.82-1.92,15.82-4.32,1.14-.55,1.45,.01,1.86,.81,1.68,3.26,.33,7.45-3.12,9.59-5.44,3.37-12.98,.26-14.56-6.07Z"/>
      </g>
    </g>
  </g>
</svg>