<?xml version="1.0" encoding="UTF-8"?>
<svg id="_レイヤー_2" data-name="レイヤー 2" xmlns="http://www.w3.org/2000/svg" xmlns:xlink="http://www.w3.org/1999/xlink" viewBox="0 0 500 500">
  <defs>
    <style>
      .cls-1 {
        fill: none;
      }

      .cls-2 {
        clip-path: url(#clippath);
      }

      .cls-3 {
        fill: #f6f7f7;
      }

      .cls-4 {
        fill: #ededed;
      }

      .cls-5 {
        fill: #fefefe;
      }

      .cls-6 {
        fill: #fdbfb6;
      }

      .cls-7 {
        fill: #fde0cb;
      }

      .cls-8 {
        fill: #6c2635;
      }

      .cls-9 {
        fill: #6c2a38;
      }

      .cls-10 {
        fill: #7dd2dc;
      }

      .cls-11 {
        fill: #d4d4d6;
      }

      .cls-12 {
        fill: #232323;
      }

      .cls-13 {
        fill: #080706;
      }

      .cls-14 {
        fill: #794b4e;
      }
    </style>
    <clipPath id="clippath">
      <rect class="cls-1" width="500" height="500"/>
    </clipPath>
  </defs>
  <g id="_レイヤー_1-2" data-name="レイヤー 1">
    <g class="cls-2">
      <g>
        <path class="cls-4" d="M385.93,595.1c-43.21,0-86.41,.03-129.62,.03-47.43,0-94.85-.02-142.28-.03,.44-3.28,.74-6.59,1.39-9.83,.39-1.96,.37-3.68-1.3-4.83-1.77-1.21-3.5-.53-5.22,.56-6.05,3.84-12.21,7.49-18.22,11.39-1.82,1.18-2.7,1.13-3.88-.79-3.29-5.34-6.79-10.55-10.21-15.81-17.89-27.49-35.76-54.99-53.71-82.44-1.07-1.63-1.02-2.27,.71-3.34,26.82-16.59,53.61-33.24,80.36-49.95,15.97-9.98,33.28-16.1,51.96-18.35,2.28-.28,4.58-.62,6.87,.46,6.18,2.9,12.54,5.37,19.01,7.54,1.18,.4,1.88,1.04,2.41,2.23,7.79,17.46,19.81,31.03,36.93,39.83,12.94,6.65,26.67,9.13,40.89,5.89,25.56-5.82,42.66-22.03,53.58-45.31,.68-1.44,1.44-2.27,2.92-2.76,5.79-1.94,11.53-4.05,17.02-6.71,2.74-1.32,5.45-1.66,8.35-1.21,3.46,.54,6.92,1.05,10.35,1.73,16.22,3.25,30.97,9.91,44.94,18.71,25.63,16.14,51.43,32.01,77.21,47.9,1.79,1.1,1.74,1.78,.68,3.35-3.82,5.64-7.49,11.37-11.2,17.08-17.54,26.97-35.1,53.93-52.58,80.95-1.21,1.87-1.96,2.36-4.03,.99-6.12-4.05-12.43-7.82-18.66-11.71-1.56-.97-3.22-1.31-4.8-.25-1.5,1.01-1.68,2.55-1.38,4.3,.59,3.44,1.01,6.9,1.5,10.36Z"/>
        <path class="cls-12" d="M385.93,595.1c-.49-3.45-.91-6.92-1.5-10.36-.3-1.75-.12-3.3,1.38-4.3,1.57-1.06,3.23-.72,4.8,.25,6.23,3.89,12.54,7.66,18.66,11.71,2.07,1.37,2.82,.88,4.03-.99,17.48-27.01,35.04-53.98,52.58-80.95,3.71-5.71,7.39-11.44,11.2-17.08,1.06-1.57,1.11-2.25-.68-3.35-25.78-15.9-51.58-31.76-77.21-47.9-13.97-8.8-28.72-15.46-44.94-18.71-3.43-.69-6.9-1.19-10.35-1.73-2.9-.45-5.61-.12-8.35,1.21-5.49,2.66-11.23,4.77-17.02,6.71-1.48,.5-2.24,1.32-2.92,2.76-10.92,23.28-28.02,39.49-53.58,45.31-14.22,3.24-27.95,.76-40.89-5.89-17.13-8.8-29.15-22.37-36.93-39.83-.53-1.2-1.23-1.84-2.41-2.23-6.47-2.17-12.83-4.63-19.01-7.54-2.29-1.08-4.59-.74-6.87-.46-18.68,2.25-35.98,8.37-51.96,18.35-26.75,16.71-53.54,33.36-80.36,49.95-1.73,1.07-1.78,1.7-.71,3.34,17.95,27.45,35.82,54.95,53.71,82.44,3.42,5.26,6.92,10.47,10.21,15.81,1.18,1.91,2.06,1.97,3.88,.79,6.01-3.9,12.17-7.55,18.22-11.39,1.72-1.09,3.46-1.78,5.22-.56,1.66,1.14,1.69,2.87,1.3,4.83-.65,3.24-.94,6.55-1.39,9.83-1.7,0-3.42-.1-5.11,.06-1.93,.19-2.64-.39-2-2.33,.16-.49,.12-1.06,.18-1.73-.33,.06-.6,.03-.74,.15-4.22,3.64-9.18,4.45-14.53,3.9-1.33-.14-2.71-.16-4.03,0-4.97,.61-9.18-.11-11.09-5.57-.42-1.21-1.3-1.34-2.27-.45-.06,.06-.17,.08-.23,.14-6.32,6.43-14.27,6.5-22.43,5.74,5.97-4.11,11.9-8.29,17.94-12.3,1.54-1.02,1.47-1.69,.56-3.08-14.2-21.71-28.37-43.44-42.47-65.21-1.02-1.58-1.7-1.44-3.02-.53-8.79,6.04-17.61,12.04-26.44,18.02-16.82,11.4-22.48,31.38-15.89,49.2,1.95,5.27,5.44,9.56,8.7,14.01-1.71,0-3.45-.21-5.12,.06-3.82,.61-5.86-1-7.78-4.32-11.88-20.56-7.22-47.14,11.47-62.34,9.41-7.65,19.85-13.9,29.89-20.67,2.33-1.57,2.41-2.59,.84-4.69-2.2-2.94-4.07-6.13-6.07-9.22-2.63-4.05-2.31-5.56,1.73-8.07,13.95-8.67,27.87-17.39,41.87-25.99,16.37-10.05,32.41-20.63,49.12-30.12,12.43-7.06,25.74-11.81,39.86-14.23,.23-.04,.43-.2,.67-.31-.25-.91-1.05-.99-1.61-1.34-18.92-11.52-38.2-22.51-55-37.16-1.26-1.1-1.99-.53-2.97,.1-7.92,5.1-15.86,10.16-23.74,15.31-2.02,1.32-4.01,2.18-6.18,.57-2.18-1.62-1.91-3.78-1.16-6.08,3.45-10.65,6.84-21.32,10.25-31.98,.77-2.42-.2-4.81-2.43-5.99-.24-.13-.52-.17-.75-.31-5.14-2.95-10.38-3.42-15.8-.73-1.11,.55-2.4,.71-3.58,1.14-2.01,.73-3.68,.26-5.11-1.28-1.46-1.57-1.12-3.25-.34-4.99,.83-1.86,2.97-3.71,2.39-5.45-.55-1.67-2.93-2.71-4.45-4.09-9.66-8.77-15.5-19.6-17.49-32.5-1.62-10.51-.91-20.75,3.35-30.61,1.18-2.74,2.77-5.22,4.55-7.6,.15-.24,.59-.46,.23-.78-.37-.33-.52,.12-.72,.33-.3,.19-.61,.37-.89,.58-3.44,2.49-6.93,1.09-7.41-3.11-.98-8.6-.9-17.21,.09-25.81,3.72-32.32,17.45-60.72,34.55-87.76,6.09-9.64,12.56-19.06,20.15-27.59,6.66-7.49,12.18-15.91,19.82-23.08-4.98-.94-9.54-.84-14.06-1.23-3.58-.31-7.14-.74-10.67-1.36-2.17-.38-4.28-.98-4.79-3.6-.49-2.51,.95-3.98,2.81-5.33,6.96-5.03,14.72-8.52,22.58-11.8,18.24-7.61,37.22-12.99,56.37-17.69,10.79-2.65,20.63-7.64,31.1-11.05,25.54-8.31,51.71-11.83,78.49-11.36,.34,0,.68-.06,1.15-.11-2.42-8.3-5.51-16.21-8.7-24.08-.85-2.1-1.54-4.07,.19-6.01,1.74-1.95,3.82-1.49,5.96-.83,14.64,4.52,27.64,12.25,40.35,20.56,2.48,1.62,4.69,4.13,7.38,4.8,2.6,.65,5.33-1.55,8-2.49,12.38-4.34,24.93-7.97,37.98-9.67,3.2-.42,6.44-.55,9.67-.74,1.9-.11,3.63,.39,4.58,2.2,.98,1.88,.47,3.62-.77,5.25-6.46,8.51-12.52,17.29-18.02,26.46-1,1.67-1.06,2.34,.94,3.29,16.73,7.93,32.5,17.52,47.74,28,3.93,2.7,8.5,4.19,12.78,6.23,18.16,8.66,35.82,18.17,52,30.23,3.54,2.64,6.79,5.6,10.09,8.51,1.83,1.61,2.6,3.44,1.49,5.71-1.03,2.1-3.03,2.73-5.82,1.81-8.59-2.83-17.12-5.85-25.89-8.13-1.98-.51-3.97-.96-6.42-1.55,5.65,8.57,10.57,16.98,14.85,25.77,10.17,20.87,16.66,42.88,20.32,65.75,.51,3.21,1.3,6.24,2.74,9.19,5.62,11.53,10.7,23.27,13.72,35.81,.54,2.26,.27,4.17-1.73,5.44-2.17,1.37-4.08,.53-5.84-1.06-.74-.67-1.25-1.75-3.18-1.77,2.01,2.72,3.78,5.1,5.29,7.64,.5,.84,1.49,.08,2.23-.12,3.18-.86,4.68-.09,5.78,3.04,.36,1.02,.68,2.04,1.01,3.07,1.27,3.94,.69,5.25-3.28,6.7-1.3,.48-1.65,1.08-1.32,2.37,.26,1.04,.36,2.13,.39,3.2,.07,2.49-.26,4.76,3.61,4.95,2.8,.14,3.28,2.99,2.22,9.36-.4,2.42-1.91,3.88-4.27,3.49-2.46-.41-2.95,.6-3.47,2.67-2.46,9.72-7.45,18.03-14.7,24.94-1.41,1.34-1.51,2.18-.32,3.71,1.9,2.42,1.49,4.35-.93,6.21-.78,.6-1.6,1.16-2.4,1.74-3.92,2.84-4.81,2.77-7.96-1.03-.73-.89-1.21-.95-2.2-.43-2.93,1.55-5.89,3.05-8.93,4.37-1.41,.61-1.41,1.77-1.57,2.84-1.33,8.84-1.3,17.71-.41,26.6,.69,6.89,2.02,13.65,3.67,20.37,.92,3.77-1.76,6.26-5.54,5.31-5.74-1.44-10.52-4.45-14.79-9.19-.6,3.35-1.06,6.29-1.67,9.2-2.54,12.05-6.31,23.72-11.28,34.98-1.03,2.34-.9,3.4,1.4,4.81,24.16,14.86,48.24,29.86,72.34,44.81,4.15,2.57,4.48,3.97,1.87,7.97-2.11,3.23-4.07,6.58-6.39,9.65-1.57,2.09-.97,2.98,.95,4.27,9.54,6.4,19.26,12.59,28.41,19.51,20.86,15.78,25.73,43.85,11.88,65.71-1.03,1.62-2.08,2.43-4.06,2.28-2.5-.19-5.03-.06-7.54-.07,0-.62,.52-.9,.86-1.29,6.11-6.93,9.84-14.95,10.38-24.18,.88-15.14-4.63-27.58-16.96-36.54-9.27-6.74-18.93-12.93-28.33-19.49-1.71-1.19-2.05-.13-2.73,.91-14.13,21.73-28.24,43.47-42.42,65.17-.96,1.47-.81,2.07,.64,3.04,6.03,4.01,11.96,8.18,17.93,12.29-4.22,.04-8.44,.06-12.65,.14-.87,.02-1.56-.27-2.23-.75-.95-.67-1.91-1.34-2.88-1.98-2.01-1.33-4.08-3.74-6.04-3.66-1.89,.08-2.71,3.43-4.02,5.32-.59,.86-1.26,1.08-2.24,1.08-5.66-.03-11.32-.03-16.97,0-.96,0-1.72-.32-2.49-.81-1.81-1.15-3.65-2.25-5.5-3.38-.12,.26-.25,.41-.24,.54q.29,3.63-3.48,3.63c-1.17,0-2.33-.02-3.5-.03Zm35.51-229.56c1.25,9.2,3.17,18.07,11.59,24.24-1.08-7.54-2.59-14.71-2.39-22.04,.15-5.27-.56-10.56,.49-15.8,.28-1.39-.03-2.31-1.85-1.64-1.5,.55-3.1,.85-4.65,1.25-.83-.12-1.29,.48-1.83,.94-5.22,4.4-7.43,3.79-9.33-2.57-.08-.26-.16-.51-.24-.77-.85-7.38-2.23-14.67-3.67-21.96-1.31-7.33-2.62-14.67-4.06-22.73-1.56,3.03-2.68,5.35-3.93,7.59-4.6,8.28-10.66,15.48-16.84,22.59-1.34,1.31-2.65,2.66-4.04,3.91-1.32,1.18-2.81,1.95-4.65,1.18-1.9-.79-2.59-2.35-2.66-4.29-.09-2.23-.19-4.46-.28-6.69,.25-7.82-.89-15.54-1.63-23.3-.52-5.43-3.01-9.21-7.15-12.26-1.52-1.12-3-2.31-4.62-3.24-5.2-2.98-10.73-5-16.98-5.58,.51,1.31,1.51,1.42,2.22,1.89,9.32,6.23,14.37,14.79,14.46,26.12,.05,7.09-2.49,13.29-6.48,19-3.19,3.35-6.69,6.31-10.77,8.53-5.76,2.15-11.56,3.32-17.84,2.48-13.63-1.83-25.22-14.48-25.84-28.23-.36-8.02,2.16-14.94,6.7-21.31,.14-.2,.44-.5,.39-.57-.32-.47-.56-.06-.81,.14-5.14,3.19-9.02,7.59-12.14,12.7-1.41,2.31-3.49,3.1-5.33,2.05-1.95-1.12-2.35-3.15-.97-5.6,2.54-4.5,5.87-8.35,9.76-11.73,8.75-7.58,18.98-11.64,30.43-12.92,14.15-1.58,27.52,.4,39.64,8.37,.3,.2,.63,.3,1.15-.25-3.32-14.1-8.62-27.65-14.86-40.87,1.28-.34,2.55-.72,3.84-1.01,1.31-.3,1.7-1.15,1.55-2.36-.16-1.26-1.06-1.57-2.12-1.48-1.75,.14-3.5,.36-5.25,.55-2.11-3.75-4.18-7.52-6.33-11.24-5.31-9.16-11.05-18.03-17.84-26.2-.97,.57-1.03,1.54-1.36,2.34-6.45,15.58-12.77,31.22-20.3,46.33-11.23,22.55-24.58,43.61-42.58,61.48-11.12,11.04-23.67,20.05-37.81,26.83-1.67,.8-3.33,.92-4.82-.26-1.47-1.16-1.83-2.75-1.53-4.59,.92-5.67,1.82-11.33,2.64-17.02,3.54-24.65,5.54-49.41,5.13-74.34-.04-2.64-.24-5.27-.39-8.52-.99,1.27-1.59,2.02-2.17,2.77-7.18,9.22-14.9,17.94-23.79,25.56-2.64-.94-4.84-2.57-7-4.29,1.66-2.53,4.29-4.04,6.39-6.11,9.81-9.66,18.56-20.18,25.79-31.91,1.29-2.1,2.93-2.81,5.17-2.38,1.93,.38,2.34,1.97,2.63,3.63,.98,5.56,1.3,11.21,1.42,16.8,.18,8.96,.19,17.92-.27,26.9-.54,10.54-1.19,21.05-2.25,31.55-.96,9.5-2.06,18.97-3.74,28.37-.14,.78-.42,1.81,.21,2.31,.73,.58,1.49-.27,2.16-.64,8.12-4.49,15.36-10.2,22.2-16.41,18.32-16.63,31.71-36.92,43.04-58.67,9.79-18.79,17.46-38.52,25.63-58.02,1.86-4.44,4.63-5.14,7.89-1.61,7.44,8.07,13.67,17.04,19.41,26.36,12.2,19.81,21.34,40.92,27.26,63.45,1.74,6.63,1.97,13.65,5.12,19.92,.26,.52,.31,1.29,.14,1.85-.9,2.93-.44,5.89,.06,8.75,.71,4.08-.1,8.31,1.37,12.72,2.34-2.96,4.55-5.53,6.51-8.28,6.55-9.18,12.52-18.58,12.64-30.48,.03-3.28,2.11-4.79,5.11-4.4,2.15,.28,2.9,1.92,3.45,3.67,1.92,6.06,2.89,12.33,4.05,18.55,1.73,9.29,3.38,18.6,5.13,27.88,.63,3.34,1.11,6.73,2.32,10.28,4.23-4.86,7.96-9.5,11.34-14.46,6.36-9.32,10.36-19.65,13.23-30.41,3.64-13.66,5.84-27.55,4.96-41.8-.4-6.53,.02-13.07-.47-19.63-.62-8.3-1.53-16.56-2.98-24.73-3.91-22.01-10.88-42.99-21.46-62.76-6.98-13.04-15.42-25.04-25.26-36.01-8.52-9.49-17.97-18.06-28.32-25.56-15.5-11.24-32.46-19.75-50.52-26-11.69-4.05-23.67-6.93-35.91-8.86-11.96-1.89-23.97-2.81-36.05-3.09-4.13-.1-8.24,.46-12.35,.46-5.58,0-11.1,.66-16.59,1.3-10.74,1.27-21.35,3.33-31.79,6.29-14.92,4.23-29.29,9.84-42.72,17.52-19.14,10.94-36.02,24.68-50.2,41.72-11.98,14.39-21.58,30.17-28.84,47.38-5.76,13.65-10.01,27.78-12.74,42.36-1.86,9.94-3.16,19.92-3.55,30.05-.21,5.46-.12,10.88,0,16.34,.19,8.96,.82,17.84,2.23,26.69,2.54,15.86,6.56,31.31,12.65,46.18,1.36,3.31,3.09,6.47,4.86,10.11,3.38-10.5,7.89-19.86,12.73-29.05,4.01-7.62,8.71-14.84,14.17-21.53,2.93-3.6,6.16-3.11,8.05,1.12,1.46,3.28,2.54,6.7,3.1,10.24,.72,4.61,1.26,9.26,1.89,14.03,2.8-1.26,5.41-2.43,8.02-3.59,.81-.36,1.23-.76,.98-1.82-.48-2.03,.3-3.84,1.23-5.64,2.64-5.14,6.48-9.31,10.95-12.79,9.55-7.42,20.63-10.59,32.62-10.36,3.93,.07,7.25-.58,10.31-3.27,4.56-4.01,9.73-7.3,13.82-11.86,2.46,1.49,5.05,2.8,7.05,4.94-4.14,4.4-9.3,7.64-14.01,11.93,1.36,.4,2.29,.66,3.21,.95,12.28,3.86,22.04,11.03,28.78,22.09,1.59,2.61,1.2,4.67-.82,5.83-1.9,1.09-3.89,.24-5.46-2.28-3.13-5-6.95-9.34-12.02-12.47-.25-.19-.49-.61-.81-.14-.05,.07,.25,.38,.39,.57,3.96,5.69,6.66,11.77,6.73,18.91,.14,14.93-10.23,27.75-24.86,30.45-14.97,2.76-29.57-5.77-34.5-20.1-1.92-5.58-1.88-11.24-1.06-16.98,.1-.09,.29-.26,.28-.27-.2-.28-.36-.2-.5,.07-.65,.27-1.33,.49-1.95,.83-9.71,5.44-19.72,10.25-29.95,14.62-3.59,1.53-6,.07-6.34-3.77-.19-2.23-.26-4.48-.45-6.71-.4-4.69-.77-9.39-2.29-14.39-7.48,10.57-13.38,21.45-17.73,33.18-1.17,2.45-2.24,4.93-2.62,7.65-1.42,1.64-1.33,3.84-2.12,5.72-.63,1.52-.33,2.8,.55,4.24,3.35,5.52,6.56,11.12,9.77,16.72,3.21,5.58,6.2,6.44,11.94,3.35,1.09,1.18,2.2,2.35,3.28,3.56,7.76,8.68,16.43,16.34,25.89,23.1,23.95,17.11,50.36,28.84,78.94,35.76,14.68,3.55,29.57,5.77,44.69,5.45,15.92-.33,31.51-3.15,46.84-7.39,24.24-6.7,46.98-16.67,67.77-30.96,16.29-11.2,30.38-24.63,41.93-40.69,2.35,.75,2.73,3.1,3.69,4.85,1.93,3.52,4.63,5.49,8.69,5.48ZM77.35,127.12c-.63,.63-1.36,1.18-1.89,1.89-5.24,6.93-10.31,13.99-14.96,21.32-9.44,14.86-17.73,30.33-23.93,46.83-4.44,11.81-7.72,23.95-9.28,36.51-.68,5.5-.61,11-.53,16.94,2.97-2.21,5.52-4.25,7.9-6.51,1.3-1.24,2.76-2.02,4.62-1.17,1.83,.84,2.74,2.17,2.57,4.25-.11,1.32-.02,2.65-.02,3.97,.55-.64,.56-1.25,.54-1.86-.37-14.54,.99-28.93,3.75-43.21,3.77-19.52,9.53-38.36,18.52-56.18,3.92-7.77,8.55-15.12,12.83-22.66,.22-.24,.44-.48,.66-.72-.11-.08-.22-.15-.32-.23-.16,.28-.31,.55-.47,.83Zm337.11,249.53c-.72-3.77-1.89-7.45-1.69-11.8-1.9,2.09-3.43,3.6-4.77,5.27-8.74,10.8-18.87,20.13-29.98,28.42-4.82,3.6-9.82,6.92-14.9,10.13-.88,.56-2.04,1.1-.92,2.47,1.44,1.76,2.14,3.92,3.08,5.95,.38,.82,.74,1.5,1.78,1.8,11.55,3.31,22.28,8.48,32.51,14.69,1.44,.87,1.92,.9,2.66-.81,3.3-7.57,5.99-15.35,8.21-23.29,2-7.14,3.57-14.39,4-21.83,.89-3.66,.93-7.32,.01-10.99ZM177.74,52.28c8.94-2.56,17.88-5.08,27.03-6.86,11.35-2.21,22.81-3.43,34.33-3.84,8.14-.29,16.3-.28,24.48,.31,9.73,.7,19.42,1.73,28.99,3.5,24.43,4.52,47.52,12.82,68.98,25.43,21.43,12.6,39.77,28.73,54.83,48.5,16.23,21.3,27.48,45.07,34.46,70.89,3.6,13.31,5.87,26.87,7.21,40.58,.62,6.32,.76,12.68,1.16,19.02,.06,.88-.49,2.02,.92,2.63,.24-1.85,.16-3.61,.03-5.39-.23-3.09,2.18-5.06,5.18-4.49,1.23,.23,1.63,1.62,2.82,1.8,.42-.6,.02-1.06-.17-1.54-2.8-6.99-5.77-13.9-9.22-20.6-.45-.87-.99-1.77-1.12-2.72-1.53-10.78-3.59-21.45-6.51-31.94-5.4-19.35-13.07-37.71-23.73-54.78-2.94-4.71-5.98-9.35-9.36-13.78-2.44-3.19-.95-7,2.86-7.4,1.94-.2,3.93-.22,5.9,.18,5.08,1.03,10.19,1.93,15.2,3.36-.21-.41-.47-.66-.76-.85-13.74-8.86-28.13-16.5-42.96-23.37-3.81-1.77-7.81-3.21-11.28-5.64-16.18-11.37-33.15-21.35-51.19-29.48-4.49-2.03-5.26-3.74-2.87-8.1,3.66-6.68,7.61-13.19,11.98-19.44,1.37-1.96,2.87-3.81,4.11-6.25-5.62,1.08-11.01,1.71-16.26,3.09-9.35,2.46-18.54,5.43-27.55,8.95-2.98,1.17-5.47,1.19-8.27-.78-8.5-5.98-17.23-11.64-26.4-16.56-3.75-2.02-7.6-3.88-12.24-5.46,.57,1.57,.95,2.63,1.33,3.69,2.17,6.06,4.38,12.11,6.02,18.34,1.35,5.13-.08,6.94-5.42,7.09-.8-.81-1.85-.53-2.79-.54-4.81-.03-9.62,0-14.43,.03-.78,0-1.63-.2-2.26,.5-2.24,.02-4.49-.13-6.71,.09-8.39,.82-16.78,1.62-25.1,3.1-10.62,1.89-21.06,4.4-31.19,8.12-1.13,.06-2.2,.26-3.24,1.23,.52,.12,.79,.28,1,.22,.75-.25,1.48-.57,2.22-.87Zm128.69,381.37c-37.75,11.96-75.34,11.87-113.49-.55,.66,1.4,.87,1.88,1.12,2.35,6.38,11.83,15.38,21.19,27.03,27.86,10.5,6.01,21.76,9.38,34.03,7.97,14.66-1.69,26.95-8.3,37.52-18.37,5.76-5.49,10.31-11.87,13.81-19.25ZM62.42,338.67c-2.12-5.01-4.23-9.48-5.92-14.1-7.3-19.98-12.01-40.56-13.5-61.81-.16-2.31-.85-2.02-2.32-1.12-4.58,2.82-7.96,6.72-10.09,11.59-4.27,9.76-4.34,19.89-1.91,30.06,4.32,18.12,17.16,28.23,33.74,35.38Zm396.7-77.06c-1.13,28.08-7.21,54.26-24.03,77.82,3.7-1.21,6.43-2.69,9.26-3.96,2.01-.9,2.52-1.61,.95-3.54-2.04-2.51-1.59-4.42,1-6.4,.78-.6,1.59-1.17,2.39-1.75,3.7-2.69,5.14-2.58,7.76,1.06,1.13,1.57,1.71,1.15,2.79,.06,5.3-5.32,9.01-11.57,11.26-18.71,1.01-3.21,.99-3.21-2.24-3.66-3.19-.44-4.35-1.9-4.06-5.1,.08-.89,.23-1.78,.3-2.67,.41-4.76,1.32-5.55,6.04-5.34,.73,.03,1.9,.6,2.12-.4,.35-1.57,.25-3.3-.48-4.74-.47-.92-1.47-.09-2.15,.15-1.91,.68-3.98,1-5.15-.84-1.62-2.56-2.89-5.48-2.58-8.58,.3-2.95,3.24-2.94,5.29-3.86,.14-.06,.25-.22,.43-.4-2.22-3.6-4.84-6.77-8.9-9.14ZM106.06,94.48c15.54-14.47,32.54-25.73,51.56-34.25-.84-.57-1.34-.39-1.85-.25-16.12,4.34-32.34,8.35-48.12,13.86-8.28,2.89-16.51,5.92-24.42,9.73-.6,.29-1.55,.47-1.35,1.42,.2,.98,1.14,.7,1.8,.67,3.05-.14,6.06,.47,9.08,.71,3.25,.25,6.59,.25,9.77,1.32,3.5,1.18,4.43,2.62,3.54,6.8Zm222.03,244.37c8.75,0,16.29-3.29,21.53-8.88,.92-.98,1.04-1.63,.16-2.67-1.79-2.13-3.49-4.34-5.17-6.56-.71-.94-1.14-.89-2.06-.11-8.16,6.92-19.32,6.99-27.29,.1-1.29-1.12-1.69-.6-2.42,.35-1.58,2.07-3.15,4.15-4.85,6.12-1,1.15-.83,1.85,.21,2.87,5.75,5.7,12.53,8.88,19.88,8.77Zm-157.71,0c8.71-.01,16.02-3.19,21.42-8.86,.9-.95,1.15-1.58,.22-2.67-1.75-2.04-3.42-4.16-5.01-6.34-.86-1.18-1.34-1.11-2.44-.16-7.79,6.73-19.35,6.68-27.09-.1-1-.88-1.47-.93-2.25,.11-1.61,2.16-3.27,4.28-5,6.34-.94,1.11-.89,1.83,.17,2.88,5.74,5.71,12.52,8.9,19.99,8.79Zm140.47-34.99c-.07,5.06,3.81,9.15,8.82,9.28,4.91,.13,9.14-3.95,9.26-8.91,.11-4.93-3.95-9.17-8.89-9.28-4.98-.11-9.12,3.91-9.19,8.91Zm-121.76,.22c.01-5.05-3.98-9.11-8.97-9.14-4.93-.03-9.1,4.11-9.11,9.06-.02,4.95,4.11,9.13,9.03,9.14,4.99,.01,9.03-4.03,9.05-9.06Zm-120.95,75.62c6.84-4.42,13.11-8.48,19.38-12.51,.65-.42,.87-.94,.45-1.56-2.94-4.27-5.84-8.56-8.89-12.75-1.1-1.51-2.16-.92-2.66,.67-2.7,8.47-5.36,16.96-8.27,26.16Zm59.62-77.48c6.46-2.23,27.44-14.93,30.07-18.1-12.37,1.85-22.73,6.81-30.07,18.1ZM173.38,53.55c-2.51,.1-4.61,1.28-6.74,2.4,2.48-.14,4.57-1.4,6.74-2.4Zm295.13,203.49c.2,1.91,1.34,2.45,2.58,2.9-.28-1.4-1.25-2.12-2.58-2.9Zm-101.17,28.78c-.05-.03-.1-.06-.15-.09,0,.11-.01,.22-.02,.32,.05-.02,.12-.04,.16-.08,.03-.03,.01-.1,.01-.16Z"/>
        <path class="cls-8" d="M188.5,261.43c-4.09,4.56-9.26,7.86-13.82,11.86-3.07,2.7-6.38,3.35-10.31,3.27-12-.23-23.07,2.93-32.62,10.36-4.47,3.47-8.31,7.65-10.95,12.79-.93,1.81-1.72,3.61-1.23,5.64,.25,1.06-.17,1.46-.98,1.82-2.61,1.16-5.22,2.34-8.02,3.59-.63-4.77-1.17-9.42-1.89-14.03-.55-3.54-1.63-6.96-3.1-10.24-1.89-4.23-5.12-4.72-8.05-1.12-5.45,6.69-10.15,13.9-14.17,21.53-4.84,9.19-9.35,18.55-12.73,29.05-1.76-3.65-3.5-6.8-4.86-10.11-6.09-14.87-10.11-30.32-12.65-46.18-1.41-8.85-2.04-17.73-2.23-26.69-.12-5.46-.21-10.87,0-16.34,.39-10.13,1.69-20.11,3.55-30.05,2.73-14.58,6.98-28.71,12.74-42.36,7.26-17.21,16.85-32.99,28.84-47.38,14.18-17.03,31.06-30.78,50.2-41.72,13.44-7.68,27.81-13.28,42.72-17.52,10.44-2.96,21.05-5.03,31.79-6.29,5.49-.65,11.01-1.3,16.59-1.3,4.11,0,8.22-.56,12.35-.46,12.08,.28,24.09,1.21,36.05,3.09,12.24,1.93,24.22,4.81,35.91,8.86,18.07,6.26,35.02,14.76,50.52,26,10.34,7.5,19.8,16.06,28.32,25.56,9.84,10.97,18.28,22.97,25.26,36.01,10.58,19.77,17.55,40.76,21.46,62.76,1.45,8.17,2.36,16.43,2.98,24.73,.49,6.56,.07,13.1,.47,19.63,.87,14.24-1.32,28.13-4.96,41.8-2.87,10.76-6.87,21.09-13.23,30.41-3.38,4.96-7.11,9.6-11.34,14.46-1.21-3.56-1.69-6.95-2.32-10.28-1.74-9.29-3.39-18.59-5.13-27.88-1.16-6.22-2.13-12.49-4.05-18.55-.56-1.75-1.3-3.39-3.45-3.67-3.01-.39-5.08,1.12-5.11,4.4-.11,11.9-6.08,21.31-12.64,30.48-1.96,2.75-4.17,5.32-6.51,8.28-1.46-4.4-.65-8.64-1.37-12.72-.5-2.86-.96-5.81-.06-8.75,.17-.56,.12-1.33-.14-1.85-3.15-6.27-3.38-13.29-5.12-19.92-5.92-22.53-15.06-43.64-27.26-63.45-5.74-9.32-11.98-18.3-19.41-26.36-3.26-3.53-6.03-2.84-7.89,1.61-8.17,19.51-15.84,39.24-25.63,58.02-11.33,21.75-24.72,42.04-43.04,58.67-6.84,6.21-14.08,11.92-22.2,16.41-.67,.37-1.43,1.22-2.16,.64-.63-.5-.35-1.53-.21-2.31,1.68-9.4,2.78-18.87,3.74-28.37,1.06-10.5,1.71-21.01,2.25-31.55,.46-8.98,.45-17.95,.27-26.9-.12-5.59-.43-11.24-1.42-16.8-.29-1.66-.7-3.25-2.63-3.63-2.24-.44-3.87,.28-5.17,2.38-7.24,11.72-15.98,22.25-25.79,31.91-2.1,2.07-4.73,3.58-6.39,6.11-.56-.27-1.14-.49-1.66-.81-13.73-8.32-28.28-14.65-43.97-18.26-1.69-.39-3.8-1.05-4.29,1.18-.49,2.26,1.81,2.46,3.43,2.82,15.27,3.44,29.36,9.71,42.72,17.75Z"/>
        <path class="cls-7" d="M384.73,334.64c6.19-7.1,12.24-14.31,16.84-22.59,1.25-2.24,2.37-4.56,3.93-7.59,1.44,8.06,2.75,15.4,4.06,22.73-.43-.12-.86-.23-1.28-.37-3.77-1.26-6.6-.69-8.68,2.05-2.01,2.64-1.77,5.48-.14,8.27,1.58,2.7,3.28,5.33,4.7,8.11,1.61,3.16,4.18,5.81,4.92,9.41-.04,.18-.05,.35-.03,.53-11.55,16.06-25.64,29.5-41.93,40.69-20.79,14.29-43.53,24.26-67.77,30.96-15.33,4.23-30.92,7.06-46.84,7.39-15.12,.32-30.01-1.89-44.69-5.45-28.58-6.92-54.99-18.65-78.94-35.76-9.46-6.75-18.13-14.42-25.89-23.1-1.07-1.2-2.18-2.37-3.28-3.56-.13-.28-.26-.57-.38-.85,2.46-1.44,3.27-4.24,1.74-7.15-1.95-3.72-4-7.4-6.29-10.92-4.11-6.31-6.59-13.73-12.59-18.77,4.35-11.73,10.25-22.62,17.73-33.18,1.52,5,1.89,9.7,2.29,14.39,.19,2.23,.26,4.48,.45,6.71,.34,3.84,2.74,5.31,6.34,3.77,10.23-4.37,20.24-9.18,29.95-14.62,.61-.34,1.3-.56,1.95-.83,.07,.07,.14,.13,.22,.2-.81,5.73-.86,11.4,1.06,16.98,4.93,14.33,19.54,22.86,34.5,20.1,14.63-2.7,25-15.52,24.86-30.45-.07-7.14-2.77-13.22-6.73-18.91,.14-.15,.28-.29,.42-.44,5.07,3.13,8.89,7.47,12.02,12.47,1.57,2.51,3.57,3.37,5.46,2.28,2.02-1.16,2.41-3.23,.82-5.83-6.74-11.06-16.5-18.23-28.78-22.09-.92-.29-1.85-.55-3.21-.95,4.71-4.29,9.87-7.53,14.01-11.93,.91-.23,1.44,.53,2.16,.81,.87,.34,1.56,.02,2.14-.62,.52-.57,.68-1.23,.29-1.95-.29-.53-.92-.87-.86-1.58,8.89-7.63,16.61-16.34,23.79-25.56,.59-.75,1.18-1.5,2.17-2.77,.15,3.25,.34,5.88,.39,8.52,.41,24.92-1.59,49.68-5.13,74.34-.82,5.68-1.72,11.35-2.64,17.02-.3,1.84,.06,3.44,1.53,4.59,1.49,1.17,3.15,1.06,4.82,.26,14.14-6.77,26.69-15.79,37.81-26.83,18-17.86,31.35-38.93,42.58-61.48,7.53-15.11,13.85-30.75,20.3-46.33,.33-.8,.39-1.77,1.36-2.34,6.79,8.16,12.53,17.03,17.84,26.2,2.16,3.72,4.22,7.49,6.33,11.24-.43,.85-1.32,.83-2.07,1.03-5.98,1.59-11.82,3.61-17.51,6.01-10.52,4.43-20.58,9.7-29.81,16.46-1.05,.77-2.08,1.67-.98,3.09,1.02,1.33,2.15,.83,3.28,.04,8.04-5.59,16.51-10.42,25.49-14.34,7.63-3.33,15.36-6.41,23.58-8,6.24,13.22,11.53,26.77,14.86,40.87-.53,.55-.85,.45-1.15,.25-12.12-7.96-25.49-9.94-39.64-8.37-11.45,1.28-21.68,5.34-30.43,12.92-3.89,3.37-7.22,7.23-9.76,11.73-1.38,2.45-.98,4.48,.97,5.6,1.84,1.05,3.92,.26,5.33-2.05,3.13-5.11,7.01-9.51,12.14-12.7,.14,.15,.28,.29,.42,.44-4.55,6.38-7.06,13.3-6.7,21.31,.61,13.74,12.21,26.39,25.84,28.23,6.28,.84,12.08-.33,17.84-2.48,.63,2.78,2.56,4.88,3.91,7.27,3.41,6.07,6.88,12.12,10.62,17.99,2.84,4.46,9.17,3.9,11.69-.75,1.77-3.27,.43-6-1.21-8.78-4.77-8.07-9.49-16.17-14.23-24.26,3.99-5.71,6.54-11.9,6.48-19-.09-11.33-5.14-19.89-14.46-26.12-.71-.47-1.71-.59-2.22-1.89,6.25,.57,11.77,2.6,16.98,5.58,1.63,.93,3.11,2.12,4.62,3.24,4.15,3.05,6.64,6.84,7.15,12.26,.74,7.76,1.88,15.47,1.63,23.3-3.33,1.33-4.89,5.49-2.97,8.87,4.85,8.55,9.82,17.03,14.89,25.45,2.26,3.76,6.35,4.62,9.72,2.41,3.38-2.22,4.04-6.35,1.84-10.13-4.01-6.87-7.9-13.81-11.84-20.72Zm-232.55,30.29c5.73,0,8.99-5.56,6.19-10.4-4.66-8.05-9.33-16.11-14.13-24.08-1.62-2.7-3.93-4.8-7.45-4.3-2.79,.4-4.7,2.08-5.68,4.75-1.01,2.75,.15,5.07,1.48,7.36,4.37,7.5,8.72,15.01,13.14,22.48,1.46,2.47,3.29,4.55,6.45,4.19Zm-49.96-30.2c-.03,.98-.03,2.29,.71,3.53,4.82,8.16,9.56,16.37,14.45,24.49,1.15,1.91,2.66,3.61,5.21,3.8,2.8,.21,5.23-.53,6.69-3.01,1.55-2.64,1.53-5.39-.1-8.12-2.47-4.15-4.71-8.44-7.27-12.53-2.74-4.39-4.75-9.25-8.24-13.15-1.87-2.09-4.89-2.63-7.38-1.61-2.88,1.17-4.06,2.98-4.07,6.59Zm168.68,56.83c10.29,0,17.06-10.42,11.7-18.56-.4-.61-.5-1.27-.6-2-.29-2.07-1.62-2.83-3.44-1.86-7.93,4.23-16.51,5.88-25.35,6.35-11.7,.62-23.1-.65-33.7-6.15-1.42-.74-2.76-1.12-3.68,.57-.93,1.7,.15,2.78,1.5,3.47,2.07,1.06,4.18,2.05,6.36,2.85,9.78,3.59,19.94,4.24,30.23,3.77,1.5-.07,2.34,.13,2.94,1.79,2.35,6.49,7.36,9.39,14.05,9.76Zm-19.69-43.47c-.7-1.22,.79-3.81-1.11-3.83-2.25-.02-1.04,2.57-1.11,3.96-.07,1.35-.91,3.92,.87,3.92,2.28,0,.67-2.61,1.35-4.06Z"/>
        <path class="cls-9" d="M260.24,40.4c5.34-.14,6.77-1.96,5.42-7.09-1.64-6.23-3.85-12.28-6.02-18.34-.38-1.06-.76-2.12-1.33-3.69,4.64,1.58,8.48,3.44,12.24,5.46,9.17,4.93,17.9,10.58,26.4,16.56,2.8,1.97,5.29,1.95,8.27,.78,9-3.52,18.19-6.49,27.55-8.95,5.26-1.38,10.64-2.01,16.26-3.09-1.23,2.43-2.74,4.29-4.11,6.25-4.37,6.25-8.33,12.76-11.98,19.44-2.39,4.36-1.62,6.08,2.87,8.1,18.04,8.13,35.01,18.11,51.19,29.48,3.46,2.43,7.47,3.88,11.28,5.64,14.82,6.87,29.22,14.52,42.96,23.37,.29,.19,.55,.44,.76,.85-5.01-1.43-10.12-2.33-15.2-3.36-1.97-.4-3.96-.39-5.9-.18-3.81,.4-5.3,4.2-2.86,7.4,3.38,4.42,6.42,9.06,9.36,13.78,10.66,17.07,18.33,35.43,23.73,54.78,2.93,10.49,4.98,21.16,6.51,31.94,.13,.94,.67,1.84,1.12,2.72,3.45,6.7,6.42,13.61,9.22,20.6,.19,.48,.59,.94,.17,1.54-1.2-.18-1.59-1.57-2.82-1.8-3-.57-5.41,1.39-5.18,4.49,.13,1.78,.22,3.54-.03,5.39-1.4-.61-.86-1.74-.92-2.63-.4-6.34-.54-12.7-1.16-19.02-1.34-13.71-3.61-27.26-7.21-40.58-6.98-25.82-18.23-49.59-34.46-70.89-15.06-19.77-33.4-35.91-54.83-48.5-21.46-12.61-44.55-20.91-68.98-25.43-9.57-1.77-19.25-2.8-28.99-3.5-8.17-.59-16.34-.6-24.48-.31-11.51,.41-22.97,1.63-34.33,3.84-9.15,1.78-18.09,4.29-27.03,6.86,0-.19,.01-.38,.02-.58,10.13-3.72,20.57-6.23,31.19-8.12,8.32-1.48,16.71-2.27,25.1-3.1,2.22-.22,4.47-.07,6.71-.09,6.49,0,12.98,0,19.47,0Z"/>
        <path class="cls-7" d="M306.43,433.66c-3.49,7.38-8.04,13.76-13.81,19.25-10.57,10.07-22.86,16.69-37.52,18.37-12.27,1.41-23.52-1.96-34.03-7.97-11.64-6.67-20.64-16.03-27.03-27.86-.25-.46-.45-.95-1.12-2.35,38.16,12.42,75.75,12.51,113.49,.55Z"/>
        <path class="cls-8" d="M414.45,387.64c-.42,7.44-1.99,14.69-4,21.83-2.23,7.93-4.91,15.72-8.21,23.29-.75,1.71-1.23,1.68-2.66,.81-10.24-6.22-20.97-11.38-32.51-14.69-1.05-.3-1.4-.98-1.78-1.8-.95-2.02-1.64-4.18-3.08-5.95-1.12-1.38,.04-1.92,.92-2.47,5.08-3.21,10.08-6.53,14.9-10.13,11.11-8.3,21.24-17.62,29.98-28.42,1.35-1.66,2.87-3.18,4.77-5.27-.2,4.36,.97,8.04,1.69,11.81,0,3.66,0,7.32-.01,10.99Z"/>
        <path class="cls-7" d="M62.42,338.67c-16.58-7.15-29.42-17.26-33.74-35.38-2.42-10.17-2.36-20.3,1.91-30.06,2.13-4.88,5.51-8.77,10.09-11.59,1.47-.9,2.16-1.19,2.32,1.12,1.49,21.25,6.2,41.83,13.5,61.81,1.69,4.62,3.8,9.09,5.92,14.1Z"/>
        <path class="cls-9" d="M77.49,127.24c-4.29,7.55-8.91,14.89-12.83,22.66-8.99,17.82-14.74,36.65-18.52,56.18-2.76,14.28-4.12,28.66-3.75,43.21,.02,.61,0,1.23-.54,1.86,0-1.32-.09-2.66,.02-3.97,.17-2.08-.74-3.42-2.57-4.25-1.86-.85-3.32-.06-4.62,1.17-2.38,2.27-4.93,4.3-7.9,6.51-.08-5.94-.15-11.44,.53-16.94,1.56-12.57,4.84-24.7,9.28-36.51,6.2-16.5,14.49-31.97,23.93-46.83,4.66-7.34,9.72-14.39,14.96-21.32,.53-.7,1.25-1.26,1.89-1.89,0,0,.14,.12,.14,.12Z"/>
        <path class="cls-7" d="M459.13,261.62c4.06,2.38,6.69,5.55,8.9,9.14-.18,.17-.29,.33-.43,.4-2.05,.92-4.99,.91-5.29,3.86-.31,3.11,.96,6.03,2.58,8.58,1.17,1.85,3.23,1.52,5.15,.84,.68-.24,1.68-1.08,2.15-.15,.74,1.44,.83,3.18,.48,4.74-.22,1-1.39,.43-2.12,.4-4.72-.21-5.63,.58-6.04,5.34-.08,.89-.22,1.78-.3,2.67-.29,3.2,.87,4.66,4.06,5.1,3.23,.45,3.25,.46,2.24,3.66-2.25,7.14-5.96,13.39-11.26,18.71-1.08,1.08-1.67,1.51-2.79-.06-2.61-3.64-4.06-3.75-7.76-1.06-.8,.58-1.61,1.15-2.39,1.75-2.59,1.98-3.03,3.89-1,6.4,1.57,1.93,1.06,2.64-.95,3.54-2.83,1.26-5.56,2.74-9.26,3.96,16.81-23.56,22.9-49.74,24.03-77.82Z"/>
        <path class="cls-9" d="M106.06,94.48c.89-4.18-.04-5.62-3.54-6.8-3.18-1.07-6.53-1.07-9.77-1.32-3.02-.23-6.02-.85-9.08-.71-.65,.03-1.59,.31-1.8-.67-.19-.94,.76-1.13,1.35-1.42,7.91-3.81,16.14-6.84,24.42-9.73,15.79-5.51,32-9.52,48.12-13.86,.51-.14,1.01-.31,1.85,.25-19.02,8.52-36.02,19.78-51.56,34.25Z"/>
        <path class="cls-10" d="M328.1,338.85c-7.35,.11-14.12-3.08-19.88-8.77-1.03-1.02-1.21-1.72-.21-2.87,1.7-1.96,3.27-4.05,4.85-6.12,.73-.95,1.13-1.47,2.42-.35,7.97,6.9,19.13,6.82,27.29-.1,.92-.78,1.35-.83,2.06,.11,1.68,2.22,3.38,4.42,5.17,6.56,.87,1.04,.76,1.68-.16,2.67-5.24,5.59-12.78,8.88-21.53,8.88Z"/>
        <path class="cls-10" d="M170.39,338.85c-7.47,.11-14.24-3.08-19.99-8.79-1.06-1.05-1.11-1.77-.17-2.88,1.74-2.05,3.39-4.18,5-6.34,.78-1.05,1.25-.99,2.25-.11,7.75,6.78,19.31,6.83,27.09,.1,1.11-.96,1.59-1.02,2.44,.16,1.59,2.17,3.25,4.29,5.01,6.34,.93,1.09,.68,1.72-.22,2.67-5.4,5.67-12.71,8.84-21.42,8.86Z"/>
        <path class="cls-6" d="M352.9,331.39c4.74,8.09,9.46,16.19,14.23,24.26,1.64,2.78,2.99,5.51,1.21,8.78-2.52,4.65-8.85,5.22-11.69,.75-3.74-5.87-7.2-11.92-10.62-17.99-1.35-2.39-3.28-4.49-3.91-7.27,4.08-2.22,7.58-5.18,10.77-8.53Z"/>
        <path class="cls-6" d="M384.73,334.64c3.94,6.91,7.83,13.85,11.84,20.72,2.21,3.78,1.54,7.91-1.84,10.13-3.37,2.21-7.46,1.35-9.72-2.41-5.07-8.42-10.04-16.91-14.89-25.45-1.92-3.38-.36-7.54,2.97-8.87,.09,2.23,.19,4.46,.28,6.69,.08,1.93,.77,3.49,2.66,4.29,1.84,.77,3.34,0,4.65-1.18,1.39-1.25,2.7-2.6,4.04-3.91Z"/>
        <path class="cls-6" d="M82.19,328.7c6,5.04,8.48,12.46,12.59,18.77,2.29,3.52,4.34,7.2,6.29,10.92,1.53,2.91,.71,5.7-1.74,7.15-3.37-3.47-6.21-7.37-8.94-11.35-3.95-5.74-7.23-11.88-10.82-17.84,.38-2.72,1.45-5.2,2.62-7.65Z"/>
        <path class="cls-3" d="M310.86,303.86c.07-5.01,4.21-9.02,9.19-8.91,4.94,.11,9,4.35,8.89,9.28-.12,4.96-4.35,9.04-9.26,8.91-5.02-.13-8.9-4.21-8.82-9.28Z"/>
        <path class="cls-3" d="M189.1,304.08c-.01,5.03-4.05,9.07-9.05,9.06-4.93-.01-9.05-4.18-9.03-9.14,.02-4.95,4.18-9.08,9.11-9.06,4.99,.03,8.98,4.09,8.97,9.14Z"/>
        <path class="cls-13" d="M352.41,244.18c-8.23,1.59-15.95,4.66-23.58,8-8.98,3.92-17.45,8.75-25.49,14.34-1.14,.79-2.26,1.29-3.28-.04-1.09-1.43-.07-2.32,.98-3.09,9.23-6.77,19.29-12.04,29.81-16.46,5.7-2.4,11.53-4.42,17.51-6.01,.74-.2,1.63-.18,2.07-1.03,1.75-.19,3.5-.41,5.25-.55,1.06-.09,1.96,.22,2.12,1.48,.15,1.22-.24,2.06-1.55,2.36-1.29,.3-2.56,.67-3.84,1.01Z"/>
        <path class="cls-13" d="M199.26,263.03c-.05,.71,.57,1.06,.86,1.58,.4,.72,.23,1.38-.29,1.95-.57,.63-1.27,.96-2.14,.62-.72-.28-1.25-1.05-2.16-.81-2-2.14-4.59-3.45-7.05-4.94-13.35-8.05-27.45-14.31-42.72-17.75-1.62-.37-3.92-.56-3.43-2.82,.49-2.23,2.6-1.57,4.29-1.18,15.69,3.61,30.24,9.94,43.97,18.26,.53,.32,1.11,.54,1.66,.81,2.15,1.72,4.36,3.35,7,4.29Z"/>
        <path class="cls-6" d="M409.08,354.68c-.75-3.6-3.32-6.26-4.92-9.41-1.42-2.78-3.12-5.42-4.7-8.11-1.64-2.79-1.87-5.63,.14-8.27,2.08-2.74,4.91-3.3,8.68-2.05,.42,.14,.85,.25,1.28,.37,1.44,7.28,2.82,14.58,3.67,21.96-1.71,1.6-2.35,3.99-4.15,5.52Z"/>
        <path class="cls-9" d="M68.15,379.7c2.91-9.2,5.57-17.68,8.27-26.16,.5-1.58,1.56-2.17,2.66-.67,3.05,4.18,5.96,8.48,8.89,12.75,.43,.62,.21,1.14-.45,1.56-6.27,4.04-12.54,8.09-19.38,12.51Z"/>
        <path class="cls-9" d="M424.63,351.56c1.55-.41,3.15-.7,4.65-1.25,1.82-.67,2.13,.24,1.85,1.64-1.05,5.25-.34,10.54-.49,15.8-.21,7.33,1.31,14.5,2.39,22.04-8.42-6.17-10.34-15.05-11.59-24.25,.33-.27,.64-.59,1.01-.81,4.44-2.61,5.42-5.86,3.14-10.44-.43-.87-.96-1.7-.96-2.72Z"/>
        <path class="cls-14" d="M79.57,336.35c3.59,5.95,6.87,12.1,10.82,17.84,2.73,3.98,5.57,7.87,8.94,11.35,.13,.28,.26,.57,.38,.85-5.74,3.09-8.73,2.23-11.94-3.35-3.22-5.6-6.42-11.21-9.77-16.72-.88-1.44-1.18-2.73-.55-4.24,.78-1.88,.7-4.08,2.12-5.72Z"/>
        <path class="cls-14" d="M424.63,351.56c0,1.02,.53,1.85,.96,2.72,2.28,4.58,1.29,7.83-3.14,10.44-.37,.22-.67,.54-1.01,.81-4.06,0-6.76-1.96-8.69-5.48-.96-1.75-1.35-4.09-3.69-4.85-.02-.18,0-.35,.03-.53,1.8-1.53,2.44-3.92,4.15-5.52,.08,.26,.16,.51,.24,.77,1.9,6.36,4.11,6.97,9.33,2.57,.54-.45,1-1.05,1.83-.94Z"/>
        <path class="cls-9" d="M127.77,302.22c7.33-11.29,17.7-16.24,30.07-18.1-2.63,3.16-23.61,15.87-30.07,18.1Z"/>
        <path class="cls-14" d="M260.24,40.4c-6.49,0-12.98,0-19.47,0,.63-.71,1.48-.5,2.25-.5,4.81-.03,9.62-.05,14.43-.03,.94,0,1.98-.28,2.79,.54Z"/>
        <path class="cls-14" d="M173.38,53.55c-2.17,1-4.26,2.26-6.74,2.4,2.13-1.12,4.23-2.29,6.74-2.4Z"/>
        <path class="cls-14" d="M414.45,387.64c0-3.66,0-7.32,.01-10.99,.92,3.66,.88,7.33-.01,10.99Z"/>
        <path class="cls-11" d="M468.51,257.05c1.33,.78,2.3,1.5,2.58,2.9-1.24-.45-2.38-.99-2.58-2.9Z"/>
        <path class="cls-14" d="M177.76,51.7c0,.19-.01,.38-.02,.58-.74,.29-1.47,.62-2.22,.87-.2,.07-.48-.1-1-.22,1.04-.97,2.11-1.16,3.24-1.23Z"/>
        <path class="cls-9" d="M77.35,127.12c.16-.28,.31-.55,.47-.83,.11,.08,.22,.15,.32,.23-.22,.24-.44,.48-.66,.72,0,0-.13-.12-.13-.12Z"/>
        <path class="cls-7" d="M140.89,304.94c.13-.27,.3-.35,.5-.07,.01,.02-.18,.18-.28,.27-.07-.07-.14-.13-.21-.2Z"/>
        <path class="cls-7" d="M304.73,292.43c.25-.19,.49-.61,.81-.14,.05,.07-.25,.38-.39,.57-.14-.14-.28-.29-.42-.44Z"/>
        <path class="cls-7" d="M194.8,292.87c-.14-.2-.44-.5-.39-.57,.32-.47,.56-.06,.81,.14-.14,.14-.28,.29-.42,.43Z"/>
        <path class="cls-7" d="M367.34,285.82c0,.05,.01,.12-.01,.16-.03,.04-.1,.05-.16,.08,0-.11,.01-.22,.02-.32,.05,.03,.1,.06,.15,.09Z"/>
        <path class="cls-5" d="M27.09,261.78c.2-.21,.35-.66,.72-.33,.36,.32-.08,.54-.23,.78-.16-.15-.33-.3-.49-.45Z"/>
        <path class="cls-6" d="M152.18,364.94c-3.16,.37-4.98-1.72-6.45-4.19-4.42-7.47-8.77-14.98-13.14-22.48-1.33-2.28-2.49-4.6-1.48-7.36,.98-2.67,2.89-4.36,5.68-4.75,3.52-.5,5.82,1.6,7.45,4.3,4.8,7.97,9.47,16.02,14.13,24.08,2.8,4.84-.47,10.41-6.19,10.4Z"/>
        <path class="cls-6" d="M102.22,334.74c0-3.61,1.19-5.42,4.07-6.59,2.48-1.01,5.5-.48,7.38,1.61,3.49,3.9,5.5,8.76,8.24,13.15,2.56,4.09,4.79,8.38,7.27,12.53,1.63,2.73,1.65,5.48,.1,8.12-1.45,2.47-3.88,3.22-6.69,3.01-2.55-.19-4.07-1.9-5.21-3.8-4.88-8.12-9.62-16.33-14.45-24.49-.73-1.24-.74-2.55-.71-3.53Z"/>
        <path class="cls-12" d="M270.89,391.57c-6.69-.37-11.7-3.27-14.05-9.76-.6-1.66-1.44-1.86-2.94-1.79-10.29,.47-20.45-.17-30.23-3.77-2.18-.8-4.29-1.79-6.36-2.85-1.35-.69-2.42-1.77-1.5-3.47,.93-1.7,2.26-1.31,3.68-.57,10.6,5.5,22,6.77,33.7,6.15,8.84-.47,17.42-2.12,25.35-6.35,1.82-.97,3.15-.21,3.44,1.86,.1,.73,.2,1.39,.6,2,5.36,8.13-1.4,18.56-11.69,18.56Zm-11.46-11.92c1.87,7.54,10.86,11.25,17.33,7.23,4.11-2.55,5.72-7.53,3.72-11.41-.49-.95-.86-1.61-2.21-.96-5.95,2.86-12.33,4.25-18.84,5.15Z"/>
        <path class="cls-12" d="M251.21,348.1c-.68,1.45,.93,4.07-1.35,4.06-1.78,0-.94-2.57-.87-3.92,.07-1.39-1.14-3.98,1.11-3.96,1.9,.02,.41,2.61,1.11,3.83Z"/>
        <path class="cls-6" d="M259.44,379.66c6.51-.9,12.89-2.29,18.84-5.15,1.35-.65,1.72,.02,2.21,.96,2,3.88,.39,8.87-3.72,11.41-6.48,4.02-15.46,.31-17.33-7.23Z"/>
      </g>
    </g>
  </g>
</svg>