<?xml version="1.0" encoding="UTF-8"?>
<svg id="_レイヤー_1" data-name="レイヤー 1" xmlns="http://www.w3.org/2000/svg" viewBox="0 0 900 161.82">
  <defs>
    <style>
      .cls-1 {
        fill: #dd705e;
      }
    </style>
  </defs>
  <path class="cls-1" d="M203.76,72c0-12.23,1.05-25.51,3.16-41.11l33.73,4.85c-2.32,22.77-1.69,47.44,1.48,65.15,7.38-1.48,13.07-2.95,20.66-4.64l6.11,28.88c-16.23,6.96-33.31,13.92-49.12,20.66-11.18-25.09-16.02-47.44-16.02-73.79Zm106.47-24.67l33.94-7.8c6.54,14.76,13.07,45.33,13.7,63.89l-32.05,9.28c-2.11-16.23-7.59-39.64-15.6-65.36Z"/>
  <path class="cls-1" d="M381.37,129.77c2.74-9.91,6.11-25.3,8.64-39.64l31.21,4.01c-1.48,9.7-5.49,28.89-8.65,42.38l-31.2-6.75Zm48.49,28.89l7.17-33.73c20.24,5.06,29.94,1.48,29.94-10.75s-9.27-20.87-30.99-27.62c7.17-16.87,12.23-29.31,17.5-41.53-11.8-2.95-17.29-4.22-24.88-5.69l8.64-33.31c19.4,5.06,42.38,10.54,59.46,15.81-8.64,25.51-13.07,37.53-19.4,52.5,15.6,9.91,23.83,24.67,23.83,42.38,0,28.46-17.29,45.12-46.6,45.12-7.38,0-15.6-1.06-24.67-3.16Zm75.69-68.94l28.04-15.18c4.85,6.11,19.19,30.15,23.61,39.85l-28.46,14.13c-6.54-12.02-16.02-29.52-23.19-38.79Z"/>
  <path class="cls-1" d="M647.09,135.28c8.74-9.28,11.6-15.52,11.6-24.98,0-1.43-.18-2.68-.72-3.93-13.38,23.02-32.29,37.65-51.38,37.65-16.06,0-26.41-9.1-26.41-23.19,0-17.31,10.53-31.58,29.08-39.25,0-2.68,.18-5.53,.18-8.21-6.78,.54-12.67,1.07-16.59,1.43l-1.96-23.02c6.42-.89,13.2-1.43,18.91-1.78,0-5,.18-8.92,.18-10.53l25.16,1.07c0,1.96,0,3.75-.36,8.03,7.85-.36,16.59-.54,23.02-.54l.72,23.37c-6.96,0-16.06,.18-24.27,.54-.18,.89-.18,1.61-.18,4.46,29.44-1.25,50.14,13.56,50.14,35.68,0,12.67-6.07,25.16-16.95,35.33l-20.16-12.13Zm-35.69-11.24c-.36-13.02-.36-16.59-.36-21.05-5.89,3.75-8.92,8.56-8.92,13.92,0,4.64,2.86,7.49,7.14,7.32,.71,0,1.43-.18,2.14-.18Zm30.33-26.94c-4.28-.36-7.14-.54-9.63-.18,0,9.1,0,11.42,.18,14.27,3.57-4.28,6.96-9.28,9.46-14.1Z"/>
  <path class="cls-1" d="M711.26,92.67c19.61-22.56,57.35-65.99,75.06-85.81l28.67,24.88c-13.28,14.76-38.17,43.22-50.81,57.14,6.96,6.32,32.47,25.72,56.93,43.43l-26.78,28.67c-17.08-12.23-62.41-49.55-83.07-68.31Z"/>
  <g>
    <path class="cls-1" d="M855.4,120.88l39.12-1.02c.42,14.34,.42,21.93,1.06,36.27l-40.9,1.06c-.42-14.13-.07-22.07,.73-36.3Z"/>
    <path class="cls-1" d="M857.2,.24l42.8-.24c-2.74,31.52-5.27,68.05-5.9,99.56l-38.59,2.15c-.42-33.67,.42-75.21,1.69-101.47Z"/>
  </g>
  <g>
    <path class="cls-1" d="M133.04,98.75c-.84-9.91-6.75-18.13-17.29-23.19-21.93,49.55-48.91,74.01-81.38,74.01C12.86,149.56,0,135.43,0,111.82s12.86-43.43,35.42-56.51c-.84-15.39-1.27-26.57-1.05-33.94l32.05-.63c-.21,10.96-.42,17.08-.21,23.19,6.11-1.26,12.65-1.9,19.19-1.9,4.22,0,6.12,0,8.22,.21,2.32-7.38,4.22-14.76,6.11-21.93l32.68,8.64c-1.69,5.9-3.8,12.02-6.11,18.77,25.3,8.43,39.43,26.78,39.43,51.02,0,4.01-.21,8.01-.63,11.81,7.8,5.06,11.38,7.59,13.91,9.7l-14.97,25.09c-2.32-2.11-4.85-4.43-7.59-6.54-6.96,12.02-17.5,18.13-30.78,18.13-43.43,0-40.48-63.67,7.38-58.19Zm-90.24,22.98c-1.48-7.59-2.95-17.71-4.43-30.57-6.54,6.75-9.49,12.44-9.7,18.34-.21,7.38,3.59,12.86,9.07,12.86,1.69,0,3.37-.21,5.06-.63Zm40.69-51.23c-6.54,.42-11.81,1.27-16.23,2.74,.84,10.75,1.48,18.34,2.11,25.3,5.27-8.64,10.12-17.92,14.13-28.04Zm50.6,53.34c-3.37-1.69-7.17-2.95-9.7-2.95-5.69,0-9.07,5.27-6.11,9.7,1.27,1.9,3.37,2.95,5.69,2.95,5.48,0,9.28-3.58,10.12-9.7Z"/>
    <polygon class="cls-1" points="66.48 13.59 34.48 14.09 34.59 .59 66.99 .59 66.48 13.59"/>
  </g>
</svg>