<svg width="32" height="28" viewBox="0 0 32 28" fill="none" xmlns="http://www.w3.org/2000/svg">
<path d="M0 4C0 1.79375 1.79375 0 4 0H28C30.2062 0 32 1.79375 32 4V24C32 26.2062 30.2062 28 28 28H4C1.79375 28 0 26.2062 0 24V4ZM20.2375 10.6562C19.9562 10.2437 19.4937 10 19 10C18.5063 10 18.0375 10.2437 17.7625 10.6562L12.325 18.6313L10.6687 16.5625C10.3812 16.2062 9.95 16 9.5 16C9.05 16 8.6125 16.2062 8.33125 16.5625L4.33125 21.5625C3.96875 22.0125 3.9 22.6313 4.15 23.15C4.4 23.6687 4.925 24 5.5 24H11.5H13.5H26.5C27.0562 24 27.5688 23.6938 27.825 23.2C28.0813 22.7063 28.05 22.1125 27.7375 21.6562L20.2375 10.6562ZM7 10C8.65625 10 10 8.65625 10 7C10 5.34375 8.65625 4 7 4C5.34375 4 4 5.34375 4 7C4 8.65625 5.34375 10 7 10Z" fill="white"/>
</svg>
