<svg width="32" height="28" viewBox="0 0 32 28" fill="none" xmlns="http://www.w3.org/2000/svg">
<path d="M13.7875 5.575L16.9438 4H28V10H20.825C19.4563 9.05625 17.7938 8.5 16 8.5C14.2063 8.5 12.55 9.05625 11.175 10H4V6H12C12.6187 6 13.2313 5.85625 13.7875 5.575ZM0 6V24C0 26.2062 1.79375 28 4 28H28C30.2062 28 32 26.2062 32 24V4C32 1.79375 30.2062 0 28 0H16.9438C16.325 0 15.7125 0.14375 15.1562 0.425L12 2H10V1C10 0.45 9.55 0 9 0H5C4.45 0 4 0.45 4 1V2C1.79375 2 0 3.79375 0 6ZM21.5 17C21.5 20.0375 19.0375 22.5 16 22.5C12.9625 22.5 10.5 20.0375 10.5 17C10.5 13.9625 12.9625 11.5 16 11.5C19.0375 11.5 21.5 13.9625 21.5 17Z" fill="white"/>
</svg>
