<svg width="20" height="18" viewBox="0 0 20 18" fill="none" xmlns="http://www.w3.org/2000/svg">
<path d="M0.836527 0C0.372951 0 0 0.372951 0 0.836527C0 1.3001 0.372951 1.67305 0.836527 1.67305H2.65249L4.75426 12.7048C4.83094 13.0986 5.17601 13.3844 5.57684 13.3844H17.0094C17.473 13.3844 17.8459 13.0115 17.8459 12.5479C17.8459 12.0843 17.473 11.7114 17.0094 11.7114H6.27046L5.95328 10.0383H17.0024C17.5008 10.0383 17.94 9.7072 18.0759 9.22619L19.9581 2.53398C20.1568 1.82293 19.6235 1.11537 18.8846 1.11537H4.25234L4.16869 0.679678C4.09201 0.285813 3.74694 0 3.34611 0H0.836527ZM6.13453 17.8459C7.05819 17.8459 7.80758 17.0965 7.80758 16.1728C7.80758 15.2492 7.05819 14.4998 6.13453 14.4998C5.21086 14.4998 4.46148 15.2492 4.46148 16.1728C4.46148 17.0965 5.21086 17.8459 6.13453 17.8459ZM17.8459 16.1728C17.8459 15.2492 17.0965 14.4998 16.1728 14.4998C15.2492 14.4998 14.4998 15.2492 14.4998 16.1728C14.4998 17.0965 15.2492 17.8459 16.1728 17.8459C17.0965 17.8459 17.8459 17.0965 17.8459 16.1728Z" fill="#2B2B2B"/>
</svg>
