<svg width="20" height="18" viewBox="0 0 20 18" fill="none" xmlns="http://www.w3.org/2000/svg">
<path d="M1.85938 10.6166L8.91797 17.5519C9.21094 17.8397 9.59766 18 10 18C10.4023 18 10.7891 17.8397 11.082 17.5519L18.1406 10.6166C19.3281 9.45322 20 7.82115 20 6.11508V5.87665C20 3.00305 18.0273 0.552893 15.3359 0.0801278C13.5547 -0.232309 11.7422 0.380231 10.4688 1.72042L10 2.21374L9.53125 1.72042C8.25781 0.380231 6.44531 -0.232309 4.66406 0.0801278C1.97266 0.552893 0 3.00305 0 5.87665V6.11508C0 7.82115 0.671875 9.45322 1.85938 10.6166Z" fill="#2B2B2B"/>
</svg>
